<svg width="30" height="29" viewBox="0 0 30 29" fill="none" xmlns="http://www.w3.org/2000/svg">
<path d="M28.8513 4.93129L15.3513 0.431288C15.1222 0.360795 14.8772 0.360795 14.6482 0.431288L1.16222 4.93129H1.1341L0.993474 5.0016H0.979411L0.838786 5.08598C0.838786 5.10004 0.824724 5.10004 0.810661 5.1141L0.698161 5.21254L0.599724 5.32504C0.599724 5.3391 0.585661 5.3391 0.585661 5.35316L0.501286 5.47973C0.501286 5.49379 0.501286 5.49379 0.487224 5.50785L0.430974 5.63441L0.388786 5.7891V5.83129C0.374916 5.88639 0.370165 5.9434 0.374724 6.00004V17.25C0.374724 17.5484 0.49325 17.8346 0.704229 18.0455C0.915207 18.2565 1.20136 18.375 1.49972 18.375C1.79809 18.375 2.08424 18.2565 2.29522 18.0455C2.5062 17.8346 2.62472 17.5484 2.62472 17.25V7.56098L7.34972 9.13598C6.46204 10.5568 5.99405 12.1997 5.99972 13.875C6.00024 15.3987 6.38759 16.8973 7.12546 18.2304C7.86334 19.5635 8.92759 20.6875 10.2185 21.4969C7.53591 22.5117 5.24577 24.3537 3.67941 26.7563C3.51975 27.0088 3.46566 27.3138 3.52879 27.6058C3.59192 27.8978 3.76722 28.1533 4.01691 28.3172C4.13945 28.3984 4.27687 28.4545 4.42123 28.4822C4.56559 28.5099 4.71401 28.5086 4.85789 28.4785C5.00177 28.4485 5.13825 28.3901 5.25942 28.3069C5.38059 28.2237 5.48405 28.1173 5.56379 27.9938C6.5849 26.4209 7.98301 25.1282 9.63097 24.2333C11.2789 23.3384 13.1244 22.8696 14.9997 22.8696C16.875 22.8696 18.7205 23.3384 20.3685 24.2333C22.0164 25.1282 23.4145 26.4209 24.4357 27.9938C24.5384 28.1497 24.6783 28.2777 24.8427 28.366C25.0072 28.4544 25.1911 28.5005 25.3778 28.5C25.5934 28.5023 25.8044 28.4385 25.9825 28.3172C26.2322 28.1533 26.4075 27.8978 26.4706 27.6058C26.5338 27.3138 26.4797 27.0088 26.32 26.7563C24.7537 24.3537 22.4635 22.5117 19.781 21.4969C21.0719 20.6875 22.1361 19.5635 22.874 18.2304C23.6119 16.8973 23.9992 15.3987 23.9997 13.875C24.0054 12.1997 23.5374 10.5568 22.6497 9.13598L28.8513 7.06879C29.0764 6.99481 29.2723 6.85166 29.4113 6.65975C29.5502 6.46784 29.625 6.23696 29.625 6.00004C29.625 5.76311 29.5502 5.53224 29.4113 5.34033C29.2723 5.14842 29.0764 5.00527 28.8513 4.93129ZM21.7497 13.875C21.7497 15.6652 21.0386 17.3821 19.7727 18.648C18.5068 19.9139 16.7899 20.625 14.9997 20.625C13.2095 20.625 11.4926 19.9139 10.2268 18.648C8.96088 17.3821 8.24972 15.6652 8.24972 13.875C8.25244 12.4347 8.71016 11.032 9.55754 9.86722L14.6482 11.5688C14.8765 11.6439 15.1229 11.6439 15.3513 11.5688L20.4419 9.86722C21.2893 11.032 21.747 12.4347 21.7497 13.875ZM20.4419 7.50472H20.4278L14.9997 9.31879L9.5716 7.50472H9.55754L5.05754 6.00004L14.9997 2.68129L24.9419 6.00004L20.4419 7.50472Z" fill="#F9A068"/>
</svg>
