<?xml version="1.0" encoding="utf-8"?><svg viewBox="0 0 66 65" xmlns="http://www.w3.org/2000/svg" xmlns:xlink="http://www.w3.org/1999/xlink"><style>:root>svg{display:none}:root>svg:target{display:block}</style><svg fill="none" viewBox="0 0 34 29" id="age-card" xmlns="http://www.w3.org/2000/svg"><path d="M3.666 24v-1.083c0-.567.267-1.1.684-1.35A18.148 18.148 0 0113.666 19c.05 0 .084 0 .134.017.166-1.167.5-2.284.983-3.3a12.25 12.25 0 00-1.117-.05A21.46 21.46 0 002.65 18.7c-1.467.867-2.317 2.5-2.317 4.217v4.416h15.433c-.7-1-1.25-2.133-1.616-3.333H3.666zm10-10a6.665 6.665 0 006.667-6.667A6.665 6.665 0 0013.666.667 6.665 6.665 0 007 7.333 6.665 6.665 0 0013.666 14zm0-10C15.5 4 17 5.5 17 7.333c0 1.834-1.5 3.334-3.334 3.334a3.343 3.343 0 01-3.333-3.334C10.333 5.5 11.833 4 13.666 4zm17.917 16.667c0-.367-.05-.7-.1-1.05l1.9-1.684-1.667-2.883-2.416.817a6.08 6.08 0 00-1.8-1.05l-.5-2.484h-3.334l-.5 2.484a6.08 6.08 0 00-1.8 1.05l-2.416-.817-1.667 2.883 1.9 1.684c-.05.35-.1.683-.1 1.05 0 .366.05.7.1 1.05l-1.9 1.683 1.667 2.883 2.416-.816c.534.45 1.134.8 1.8 1.05l.5 2.483H27l.5-2.483a6.08 6.08 0 001.8-1.05l2.416.816 1.667-2.883-1.9-1.683c.05-.35.1-.684.1-1.05zM25.333 24A3.343 3.343 0 0122 20.667c0-1.834 1.5-3.334 3.333-3.334 1.833 0 3.333 1.5 3.333 3.334 0 1.833-1.5 3.333-3.333 3.333z" fill="#F9A068"/></svg><svg fill="none" viewBox="0 0 26 26" id="check" xmlns="http://www.w3.org/2000/svg"><path d="M13 0C5.82 0 0 5.82 0 13s5.82 13 13 13 13-5.82 13-13S20.18 0 13 0zm0 2.825c5.62 0 10.174 4.557 10.174 10.175S18.62 23.174 13 23.174C7.38 23.174 2.826 18.618 2.826 13 2.826 7.382 7.38 2.825 13 2.825zm4.981 4.002l-7.534 7.536-2.444-2.444-2.398 2.397 2.444 2.443 2.414 2.414 2.396-2.398 7.536-7.534-2.414-2.414z" fill="#F9A068"/></svg><svg fill="none" viewBox="0 0 20 20" id="dot" xmlns="http://www.w3.org/2000/svg"><rect x="4.5" y="4.5" width="11" height="11" rx="5.5" fill="#7660DC"/><rect x="4.5" y="4.5" width="11" height="11" rx="5.5" stroke="#7660DC"/><rect x=".5" y=".5" width="19" height="19" rx="9.5" stroke="#7660DC"/></svg><svg fill="none" viewBox="0 0 30 29" id="edu" xmlns="http://www.w3.org/2000/svg"><path d="M28.851 4.931l-13.5-4.5c-.229-.07-.474-.07-.703 0l-13.486 4.5h-.028l-.14.07H.978l-.14.085c0 .014-.014.014-.028.028l-.113.099-.098.112c0 .014-.014.014-.014.028L.5 5.48c0 .014 0 .014-.014.028l-.056.126-.042.155v.042A.52.52 0 00.375 6v11.25a1.125 1.125 0 102.25 0V7.561L7.35 9.136A8.887 8.887 0 006 13.875a9 9 0 004.219 7.622 13.514 13.514 0 00-6.54 5.26 1.139 1.139 0 00.742 1.725 1.11 1.11 0 001.143-.488 11.25 11.25 0 0118.872 0 1.125 1.125 0 00.942.506c.215.002.426-.061.605-.183a1.139 1.139 0 00.337-1.56 13.514 13.514 0 00-6.539-5.26A9 9 0 0024 13.875a8.887 8.887 0 00-1.35-4.739l6.201-2.067a1.125 1.125 0 000-2.138zm-7.101 8.944a6.75 6.75 0 11-13.5 0 6.835 6.835 0 011.308-4.008l5.09 1.702c.229.075.475.075.703 0l5.09-1.702a6.834 6.834 0 011.309 4.008zm-1.308-6.37h-.014L15 9.319 9.572 7.505h-.014L5.058 6 15 2.681 24.942 6l-4.5 1.505z" fill="#F9A068"/></svg><svg fill="none" viewBox="0 0 30 28" id="exp" xmlns="http://www.w3.org/2000/svg"><path d="M25.5 6.516h-21c-1.657 0-3 1.473-3 3.29v13.162c0 1.817 1.343 3.29 3 3.29h21c1.657 0 3-1.473 3-3.29V9.806c0-1.817-1.343-3.29-3-3.29z" stroke="#F9A068" stroke-width="3" stroke-linecap="round" stroke-linejoin="round"/><path d="M12 14.742l.316.174a5.571 5.571 0 002.684.695c.932 0 1.85-.238 2.683-.695l.317-.174M10.5 4.87c0-.873.316-1.71.879-2.327.562-.617 1.325-.963 2.121-.963h3c.796 0 1.559.346 2.121.963.563.617.879 1.454.879 2.327v1.645h-9V4.871z" stroke="#F9A068" stroke-width="3" stroke-linecap="round" stroke-linejoin="round"/></svg><svg fill="none" viewBox="0 0 32 32" id="exp-card" xmlns="http://www.w3.org/2000/svg"><path d="M30.125 24.5c0-.33-.045-.63-.09-.945l1.26-1.095c.27-.24.33-.63.15-.945l-.885-1.53a.732.732 0 00-.885-.33l-1.59.54a5.47 5.47 0 00-1.62-.945l-.33-1.635a.755.755 0 00-.735-.6h-1.77c-.36 0-.66.255-.735.6l-.33 1.635c-.6.225-1.14.54-1.62.945l-1.59-.54a.744.744 0 00-.885.33l-.885 1.53a.754.754 0 00.15.945l1.26 1.095c-.045.315-.09.615-.09.945 0 .33.045.63.09.945l-1.26 1.095c-.27.24-.33.63-.15.945l.885 1.53c.18.315.555.45.885.33l1.59-.54c.48.405 1.02.72 1.62.945l.33 1.635c.075.345.375.6.735.6h1.77c.36 0 .66-.255.735-.6l.33-1.635a5.47 5.47 0 001.62-.945l1.59.54c.345.12.705-.03.885-.33l.885-1.53a.754.754 0 00-.15-.945l-1.26-1.095c.045-.315.09-.615.09-.945zm-5.625 3c-1.65 0-3-1.35-3-3s1.35-3 3-3 3 1.35 3 3-1.35 3-3 3zM14 6.5c-.825 0-1.5.675-1.5 1.5v6c0 .405.165.78.435 1.065l3.105 3.105 1.56-2.685-2.1-2.1V8c0-.825-.675-1.5-1.5-1.5zm-11.61 9c-.975 0-1.71.915-1.47 1.86C2.42 23.195 7.7 27.5 14 27.5h.105l-1.815-3.135a10.515 10.515 0 01-8.46-7.77A1.464 1.464 0 002.39 15.5zM2 11c-.825 0-1.5-.675-1.5-1.5v-6C.5 2.675 1.175 2 2 2s1.5.675 1.5 1.5v2.04C5.975 2.48 9.755.5 14 .5A13.5 13.5 0 0127.5 14h-3c0-5.79-4.71-10.5-10.5-10.5A10.515 10.515 0 005.39 8H8c.825 0 1.5.675 1.5 1.5S8.825 11 8 11H2z" fill="#F9A068"/></svg><svg fill="none" viewBox="0 0 12 25" id="facebook" xmlns="http://www.w3.org/2000/svg"><path d="M9.81 4.595h2.191V.79C11.623.737 10.323.62 8.809.62c-6.932 0-5.046 7.83-5.322 8.978H0v4.255h3.486v10.708H7.76V13.854h3.345l.531-4.255H7.759c.188-2.817-.761-5.004 2.051-5.004z" fill="#fff"/></svg><svg fill="none" viewBox="0 0 35 30" id="feedback-card" xmlns="http://www.w3.org/2000/svg"><path d="M5.838 19.824l1.645-3.488a.565.565 0 011.033 0l1.646 3.488 3.678.564c.472.07.66.679.317 1.027l-2.66 2.712.627 3.834c.08.492-.412.867-.834.635L8 26.786l-3.29 1.81c-.423.232-.916-.143-.835-.634l.627-3.835-2.66-2.712c-.344-.348-.155-.956.317-1.029l3.68-.562v0zm19 0l1.645-3.488a.566.566 0 011.033 0l1.646 3.488 3.678.564c.472.07.66.679.317 1.027l-2.66 2.712.627 3.834c.08.492-.412.867-.834.635L27 26.786l-3.29 1.81c-.423.232-.916-.143-.835-.634l.627-3.835-2.66-2.712c-.342-.348-.155-.956.317-1.029l3.68-.562v0zm-9.5-14.25l1.645-3.488a.566.566 0 011.033 0l1.646 3.488 3.678.564c.472.07.66.679.317 1.027l-2.66 2.712.627 3.834c.08.492-.412.867-.834.635l-3.29-1.81-3.29 1.81c-.423.232-.916-.143-.835-.634l.627-3.835-2.66-2.712c-.344-.348-.155-.956.317-1.029l3.68-.562v0z" stroke="#F9A068" stroke-width="2.5" stroke-linecap="round" stroke-linejoin="round"/></svg><svg fill="none" viewBox="0 0 23 21" id="half-star" xmlns="http://www.w3.org/2000/svg"><path d="M11.664 14.608l4.097 2.245-.915-4.508 3.447-3.121-4.663-.541-1.966-4.173v10.098zm0 2.165L4.86 20.5l1.52-7.487L.654 7.83l7.744-.9L11.664 0l3.267 6.932 7.743.899-5.725 5.183 1.52 7.487-6.805-3.728z" fill="#F9A068"/></svg><svg fill="none" viewBox="0 0 25 25" id="inst" xmlns="http://www.w3.org/2000/svg"><path d="M17.663.62h-9.7C4.02.62.813 3.82.813 7.752v9.677c0 3.932 3.207 7.132 7.15 7.132h9.7c3.943 0 7.15-3.2 7.15-7.132V7.752c0-3.932-3.207-7.132-7.15-7.132zM22.4 17.43a4.73 4.73 0 01-4.736 4.723h-9.7a4.73 4.73 0 01-4.736-4.723V7.752A4.73 4.73 0 017.963 3.03h9.7A4.73 4.73 0 0122.4 7.752v9.677z" fill="#fff"/><path d="M12.813 6.399c-3.423 0-6.208 2.778-6.208 6.192s2.785 6.192 6.208 6.192c3.422 0 6.207-2.778 6.207-6.192s-2.785-6.192-6.207-6.192zm0 9.975a3.788 3.788 0 01-3.793-3.783 3.788 3.788 0 013.793-3.784 3.788 3.788 0 013.793 3.784 3.788 3.788 0 01-3.793 3.783z" fill="url(#jpaint0_linear_49_2)"/><path d="M19.032 7.928c.822 0 1.488-.664 1.488-1.483 0-.82-.666-1.484-1.488-1.484-.821 0-1.487.664-1.487 1.484s.666 1.483 1.487 1.483z" fill="#fff"/><defs><linearGradient id="jpaint0_linear_49_2" x1="12.813" y1="24.491" x2="12.813" y2=".806" gradientUnits="userSpaceOnUse"><stop stop-color="#fff"/></linearGradient></defs></svg><svg fill="none" viewBox="0 0 36 34" id="kvali" xmlns="http://www.w3.org/2000/svg"><path d="M35.678 12.5c.003-2.085-.747-4.138-2.18-5.966-1.434-1.828-3.505-3.373-6.02-4.491C24.963.924 22.085.269 19.11.138c-2.974-.13-5.946.266-8.642 1.155-2.695.888-5.027 2.24-6.777 3.927C1.942 6.908.83 8.878.46 10.948c-.371 2.069.011 4.17 1.11 6.109 1.1 1.938 2.883 3.65 5.18 4.978V32.75a.865.865 0 00.202.549c.134.168.328.308.562.408.233.102.499.16.773.17.275.01.548-.029.794-.114L18 30.627l8.92 3.136c.228.07.473.109.723.112.426 0 .835-.118 1.136-.33.302-.21.47-.496.47-.795V22.035c2.011-1.159 3.63-2.614 4.742-4.263 1.111-1.648 1.688-3.449 1.687-5.272zm-32.142 0c0-2.002.848-3.96 2.437-5.625 1.59-1.665 3.849-2.963 6.492-3.729s5.55-.967 8.357-.576c2.806.39 5.383 1.355 7.406 2.77 2.022 1.417 3.4 3.221 3.958 5.185.558 1.964.272 4-.823 5.85-1.095 1.85-2.949 3.431-5.327 4.544-2.379 1.113-5.175 1.706-8.036 1.706-3.835-.003-7.51-1.071-10.222-2.97-2.712-1.897-4.237-4.47-4.242-7.155zm22.5 18.436l-7.313-2.573a2.28 2.28 0 00-.723-.116c-.25 0-.498.04-.723.116l-7.313 2.573v-7.41c2.489.887 5.243 1.35 8.036 1.35 2.793 0 5.547-.463 8.036-1.35v7.41zM18 20.376c2.225 0 4.4-.463 6.25-1.328 1.85-.865 3.292-2.095 4.143-3.534.852-1.439 1.075-3.022.64-4.55-.433-1.528-1.505-2.93-3.078-4.032-1.573-1.101-3.578-1.851-5.76-2.155-2.183-.304-4.445-.148-6.5.448-2.056.596-3.813 1.605-5.05 2.9C7.41 9.42 6.75 10.943 6.75 12.5c0 2.089 1.185 4.092 3.295 5.569 2.11 1.477 4.971 2.306 7.955 2.306zm0-13.5c1.59 0 3.143.33 4.464.947 1.322.618 2.352 1.497 2.96 2.525.608 1.028.767 2.159.457 3.25-.31 1.09-1.075 2.093-2.199 2.88-1.124.787-2.556 1.322-4.114 1.54a11.272 11.272 0 01-4.643-.32c-1.469-.427-2.724-1.148-3.607-2.073S9.964 13.613 9.964 12.5c.005-1.49.854-2.919 2.36-3.973C13.829 7.473 15.87 6.879 18 6.875z" fill="#F9A068"/></svg><svg fill="none" viewBox="0 0 66 65" id="lock" xmlns="http://www.w3.org/2000/svg"><path d="M13.5 13.313V19H8.219A7.719 7.719 0 00.5 26.719V56.78A7.719 7.719 0 008.219 64.5H44.78c.309 0 .611-.018.91-.054a27.57 27.57 0 01-2.093-1.703 25.079 25.079 0 01-2.257-2.306H8.22a3.656 3.656 0 01-3.656-3.656V26.72a3.656 3.656 0 013.656-3.657H44.78a3.656 3.656 0 013.657 3.657v4.117c.28-.244.555-.493.827-.747l.07-.065.01-.013A4.457 4.457 0 0152.5 28.75v-2.031A7.718 7.718 0 0044.781 19H39.5v-5.688a13 13 0 10-26 0zm13-8.938a8.938 8.938 0 018.938 8.938V19H17.561v-5.688A8.937 8.937 0 0126.5 4.376zm4.875 37.375a4.875 4.875 0 11-9.75 0 4.875 4.875 0 019.75 0zm8.125-3.64v9.328c0 10.534 10.26 15.921 12.548 16.99a1.043 1.043 0 00.899 0c2.29-1.062 12.553-6.412 12.553-16.644V38.11a1.268 1.268 0 00-1.235-1.253c-1.563-.053-4.269-.25-6.08-.957-1.683-.657-3.628-2.389-4.752-3.486a1.349 1.349 0 00-1.867 0c-1.125 1.097-3.072 2.828-4.754 3.486-1.808.707-4.514.904-6.077.957A1.268 1.268 0 0039.5 38.11z" fill="#F9A068" fill-opacity=".8"/></svg><svg fill="none" viewBox="0 0 23 21" id="star" xmlns="http://www.w3.org/2000/svg"><path d="M11.01 16.773L4.206 20.5l1.52-7.487L0 7.83l7.744-.9L11.01 0l3.266 6.932 7.744.899-5.726 5.183 1.52 7.487-6.804-3.728z" fill="#F9A068"/></svg><svg fill="none" viewBox="0 0 25 21" id="telegram" xmlns="http://www.w3.org/2000/svg"><path d="M10.23 13.764l-.397 5.57c.568 0 .814-.243 1.11-.536l2.662-2.538 5.518 4.03c1.012.563 1.725.267 1.998-.928l3.622-16.93h.001c.321-1.493-.54-2.076-1.527-1.71l-21.29 8.13c-1.453.563-1.43 1.37-.247 1.737l5.443 1.689 12.643-7.892c.595-.393 1.136-.175.691.218l-10.227 9.16z" fill="#fff"/></svg><svg fill="none" viewBox="0 0 25 21" id="twitter" xmlns="http://www.w3.org/2000/svg"><path d="M24.813 3.168c-.892.39-1.843.649-2.835.775a4.883 4.883 0 002.164-2.713 9.848 9.848 0 01-3.12 1.188A4.936 4.936 0 0017.43.865a4.913 4.913 0 00-4.917 4.909c0 .39.032.763.114 1.12-4.091-.2-7.71-2.155-10.142-5.134a4.932 4.932 0 00-.674 2.48c0 1.7.878 3.207 2.186 4.08a4.868 4.868 0 01-2.223-.605v.054c0 2.385 1.705 4.366 3.942 4.822-.4.11-.837.162-1.29.162-.315 0-.633-.018-.932-.084.638 1.944 2.447 3.372 4.598 3.419a9.902 9.902 0 01-6.1 2.093c-.404 0-.791-.018-1.178-.067a13.877 13.877 0 007.548 2.202c9.054 0 14.004-7.481 14.004-13.966 0-.217-.007-.426-.018-.634a9.802 9.802 0 002.466-2.548z" fill="#fff"/></svg><svg fill="none" viewBox="0 0 25 15" id="vk" xmlns="http://www.w3.org/2000/svg"><path d="M20.813 8.88v-.615l3.22-4.016c.504-.63.78-1.412.78-2.218 0-.786-.64-1.423-1.427-1.423h-3.508a1.341 1.341 0 00-1.241.82 25.573 25.573 0 01-2.66 5.294 1.041 1.041 0 01-1.165.08V1.699A1.099 1.099 0 0013.719.608H9.313a.5.5 0 00-.354.852l.274.273c.372.37.58.871.58 1.395v3.79a.33.33 0 01-.173.093.762.762 0 01-.473-.27A43.519 43.519 0 015.759.882a.5.5 0 00-.446-.273h-3.2c-.718 0-1.3.58-1.3 1.297v.254c0 1.052.293 2.084.849 2.978 2.682 4.304 6.36 9.436 8.651 9.436h3.271a1.23 1.23 0 001.229-1.226v-.854a.913.913 0 011.561-.644l2.076 2.07c.42.42.99.656 1.584.654h3.568a1.207 1.207 0 00.854-2.058L20.813 8.88z" fill="#fff"/></svg></svg>