<svg width="36" height="34" viewBox="0 0 36 34" fill="none" xmlns="http://www.w3.org/2000/svg">
<path d="M35.6784 12.5003C35.6812 10.4147 34.9309 8.36238 33.4972 6.53407C32.0635 4.70576 29.9929 3.16075 27.4778 2.04258C24.9627 0.924409 22.0847 0.269346 19.1111 0.138245C16.1375 0.00714353 13.1648 0.404258 10.4692 1.2927C7.77353 2.18114 5.44239 3.53208 3.69231 5.22003C1.94224 6.90797 0.830005 8.87816 0.458933 10.9476C0.0878616 13.017 0.469991 15.1185 1.56982 17.0568C2.66966 18.9952 4.45151 20.7075 6.74986 22.0347V32.7503C6.74822 32.9423 6.81769 33.1313 6.95148 33.2989C7.08527 33.4665 7.27882 33.6069 7.51325 33.7066C7.7458 33.8089 8.01194 33.8678 8.28626 33.8777C8.56058 33.8875 8.83393 33.848 9.08021 33.7628L17.9999 30.6269L26.9195 33.7628C27.1476 33.8334 27.3934 33.8716 27.6427 33.8753C28.069 33.8753 28.4777 33.7568 28.7791 33.5458C29.0805 33.3349 29.2499 33.0487 29.2499 32.7503V22.0347C31.2604 20.8762 32.8796 19.4205 33.991 17.772C35.1025 16.1235 35.6788 14.3232 35.6784 12.5003ZM3.53557 12.5003C3.53557 10.4978 4.38389 8.54023 5.97324 6.87519C7.5626 5.21014 9.82161 3.91239 12.4646 3.14605C15.1076 2.37972 18.0159 2.17921 20.8217 2.56988C23.6275 2.96056 26.2048 3.92487 28.2277 5.34088C30.2505 6.75688 31.6281 8.56099 32.1862 10.525C32.7443 12.4891 32.4579 14.5249 31.3631 16.375C30.2684 18.2251 28.4144 19.8064 26.0358 20.919C23.6571 22.0315 20.8606 22.6253 17.9999 22.6253C14.1653 22.6216 10.4894 21.5537 7.77793 19.6557C5.0665 17.7577 3.54089 15.1845 3.53557 12.5003ZM26.0356 30.9363L18.7231 28.3628C18.4974 28.2868 18.2503 28.2473 17.9999 28.2473C17.7495 28.2473 17.5023 28.2868 17.2766 28.3628L9.96414 30.9363V23.5253C12.4529 24.4131 15.2066 24.8759 17.9999 24.8759C20.7932 24.8759 23.5468 24.4131 26.0356 23.5253V30.9363ZM17.9999 20.3753C20.2249 20.3753 22.4 19.9135 24.25 19.0482C26.1001 18.1828 27.542 16.9529 28.3935 15.514C29.245 14.075 29.4678 12.4916 29.0337 10.964C28.5996 9.4364 27.5282 8.03321 25.9548 6.93187C24.3815 5.83053 22.3769 5.08051 20.1946 4.77665C18.0123 4.47279 15.7503 4.62874 13.6947 5.22478C11.639 5.82082 9.88199 6.83018 8.64582 8.12522C7.40966 9.42025 6.74986 10.9428 6.74986 12.5003C6.74986 14.5889 7.93512 16.5919 10.0449 18.0688C12.1547 19.5456 15.0162 20.3753 17.9999 20.3753ZM17.9999 6.87533C19.5892 6.87533 21.1428 7.20523 22.4643 7.82332C23.7857 8.4414 24.8157 9.31991 25.4239 10.3477C26.0321 11.3756 26.1912 12.5066 25.8812 13.5977C25.5711 14.6889 24.8058 15.6911 23.682 16.4778C22.5582 17.2645 21.1263 17.8002 19.5675 18.0173C18.0088 18.2343 16.3931 18.1229 14.9247 17.6972C13.4564 17.2714 12.2014 16.5504 11.3184 15.6254C10.4354 14.7004 9.96414 13.6129 9.96414 12.5003C9.96945 11.0096 10.8178 9.58105 12.3236 8.52696C13.8294 7.47287 15.8703 6.87905 17.9999 6.87533Z" fill="#F9A068"/>
</svg>
