<svg width="34" height="29" viewBox="0 0 34 29" fill="none" xmlns="http://www.w3.org/2000/svg">
<path d="M3.66634 24.0001V22.9167C3.66634 22.3501 3.93301 21.8167 4.34967 21.5667C7.16634 19.8834 10.383 19.0001 13.6663 19.0001C13.7163 19.0001 13.7497 19.0001 13.7997 19.0167C13.9663 17.8501 14.2997 16.7334 14.783 15.7167C14.4163 15.6834 14.0497 15.6667 13.6663 15.6667C9.63301 15.6667 5.86634 16.7834 2.64967 18.7001C1.18301 19.5667 0.333008 21.2001 0.333008 22.9167V27.3334H15.7663C15.0663 26.3334 14.5163 25.2001 14.1497 24.0001H3.66634ZM13.6663 14.0001C17.3497 14.0001 20.333 11.0167 20.333 7.33341C20.333 3.65008 17.3497 0.666748 13.6663 0.666748C9.98301 0.666748 6.99967 3.65008 6.99967 7.33341C6.99967 11.0167 9.98301 14.0001 13.6663 14.0001ZM13.6663 4.00008C15.4997 4.00008 16.9997 5.50008 16.9997 7.33341C16.9997 9.16675 15.4997 10.6667 13.6663 10.6667C11.833 10.6667 10.333 9.16675 10.333 7.33341C10.333 5.50008 11.833 4.00008 13.6663 4.00008ZM31.583 20.6667C31.583 20.3001 31.533 19.9667 31.483 19.6167L33.383 17.9334L31.7163 15.0501L29.2997 15.8667C28.7663 15.4167 28.1663 15.0667 27.4997 14.8167L26.9997 12.3334H23.6663L23.1663 14.8167C22.4997 15.0667 21.8997 15.4167 21.3663 15.8667L18.9497 15.0501L17.283 17.9334L19.183 19.6167C19.133 19.9667 19.083 20.3001 19.083 20.6667C19.083 21.0334 19.133 21.3667 19.183 21.7167L17.283 23.4001L18.9497 26.2834L21.3663 25.4667C21.8997 25.9167 22.4997 26.2667 23.1663 26.5167L23.6663 29.0001H26.9997L27.4997 26.5167C28.1663 26.2667 28.7663 25.9167 29.2997 25.4667L31.7163 26.2834L33.383 23.4001L31.483 21.7167C31.533 21.3667 31.583 21.0334 31.583 20.6667ZM25.333 24.0001C23.4997 24.0001 21.9997 22.5001 21.9997 20.6667C21.9997 18.8334 23.4997 17.3334 25.333 17.3334C27.1663 17.3334 28.6663 18.8334 28.6663 20.6667C28.6663 22.5001 27.1663 24.0001 25.333 24.0001Z" fill="#F9A068"/>
</svg>
