<svg width="26" height="26" viewBox="0 0 26 26" fill="none" xmlns="http://www.w3.org/2000/svg">
<path d="M13 0C5.82032 0 0 5.82032 0 13C0 20.1797 5.82032 26 13 26C20.1797 26 26 20.1797 26 13C26 5.82032 20.1797 0 13 0ZM13 2.82471C18.6197 2.82471 23.1737 7.38175 23.1737 13C23.1737 18.6183 18.6197 23.1737 13 23.1737C7.38032 23.1737 2.82629 18.6183 2.82629 13C2.82631 7.38175 7.38032 2.82471 13 2.82471ZM17.9813 6.82691L10.4466 14.3632L8.0028 11.9193L5.60497 14.3156L8.04882 16.7594L10.4625 19.1731L12.8588 16.7753L20.395 9.24059L17.9813 6.82691Z" fill="#F9A068"/>
</svg>
