<svg width="32" height="32" viewBox="0 0 32 32" fill="none" xmlns="http://www.w3.org/2000/svg">
<path d="M30.125 24.5C30.125 24.17 30.08 23.87 30.035 23.555L31.295 22.46C31.565 22.22 31.625 21.83 31.445 21.515L30.56 19.985C30.4752 19.8343 30.3398 19.7186 30.1778 19.6582C30.0159 19.5978 29.8377 19.5966 29.675 19.655L28.085 20.195C27.605 19.79 27.065 19.475 26.465 19.25L26.135 17.615C26.0996 17.446 26.0074 17.2942 25.8736 17.185C25.7398 17.0758 25.5727 17.0158 25.4 17.015H23.63C23.27 17.015 22.97 17.27 22.895 17.615L22.565 19.25C21.965 19.475 21.425 19.79 20.945 20.195L19.355 19.655C19.1921 19.5991 19.0148 19.6014 18.8534 19.6616C18.692 19.7217 18.5565 19.8361 18.47 19.985L17.585 21.515C17.405 21.83 17.465 22.22 17.735 22.46L18.995 23.555C18.95 23.87 18.905 24.17 18.905 24.5C18.905 24.83 18.95 25.13 18.995 25.445L17.735 26.54C17.465 26.78 17.405 27.17 17.585 27.485L18.47 29.015C18.65 29.33 19.025 29.465 19.355 29.345L20.945 28.805C21.425 29.21 21.965 29.525 22.565 29.75L22.895 31.385C22.97 31.73 23.27 31.985 23.63 31.985H25.4C25.76 31.985 26.06 31.73 26.135 31.385L26.465 29.75C27.065 29.525 27.605 29.21 28.085 28.805L29.675 29.345C30.02 29.465 30.38 29.315 30.56 29.015L31.445 27.485C31.625 27.17 31.565 26.78 31.295 26.54L30.035 25.445C30.08 25.13 30.125 24.83 30.125 24.5ZM24.5 27.5C22.85 27.5 21.5 26.15 21.5 24.5C21.5 22.85 22.85 21.5 24.5 21.5C26.15 21.5 27.5 22.85 27.5 24.5C27.5 26.15 26.15 27.5 24.5 27.5ZM14 6.5C13.175 6.5 12.5 7.175 12.5 8V14C12.5 14.405 12.665 14.78 12.935 15.065L16.04 18.17L17.6 15.485L15.5 13.385V8C15.5 7.175 14.825 6.5 14 6.5ZM2.39 15.5C1.415 15.5 0.68 16.415 0.92 17.36C2.42 23.195 7.7 27.5 14 27.5H14.105L12.29 24.365C10.2782 24.0298 8.40735 23.1169 6.90526 21.7373C5.40317 20.3577 4.33469 18.5711 3.83 16.595C3.74736 16.2775 3.56049 15.997 3.29937 15.7985C3.03825 15.5999 2.718 15.4948 2.39 15.5ZM2 11C1.175 11 0.5 10.325 0.5 9.5V3.5C0.5 2.675 1.175 2 2 2C2.825 2 3.5 2.675 3.5 3.5V5.54C5.975 2.48 9.755 0.5 14 0.5C17.5804 0.5 21.0142 1.92232 23.5459 4.45406C26.0777 6.9858 27.5 10.4196 27.5 14H24.5C24.5 8.21 19.79 3.5 14 3.5C12.3087 3.50236 10.643 3.91264 9.14414 4.69603C7.64526 5.47941 6.35746 6.61279 5.39 8H8C8.825 8 9.5 8.675 9.5 9.5C9.5 10.325 8.825 11 8 11H2Z" fill="#F9A068"/>
</svg>
