<svg width="30" height="28" viewBox="0 0 30 28" fill="none" xmlns="http://www.w3.org/2000/svg">

<path d="M25.5 6.51611H4.5C2.84315 6.51611 1.5 7.98924 1.5 9.80644V22.9677C1.5 24.7849 2.84315 26.2581 4.5 26.2581H25.5C27.1569 26.2581 28.5 24.7849 28.5 22.9677V9.80644C28.5 7.98924 27.1569 6.51611 25.5 6.51611Z" 
stroke="#F9A068" stroke-width="3" stroke-linecap="round" stroke-linejoin="round"/>


<path d="M12 14.7419L12.3165 14.9162C13.1497 15.3732 14.0684 15.6111 15 15.6111C15.9316 15.6111 
16.8503 15.3732 17.6835 14.9162L18 14.7419M10.5 4.87089C10.5 3.99824 10.8161 3.16133 11.3787 
2.54428C11.9413 1.92722 12.7044 1.58057 13.5 1.58057H16.5C17.2956 1.58057 18.0587 1.92722 18.6213 
2.54428C19.1839 3.16133 19.5 3.99824 19.5 4.87089V6.51605H10.5V4.87089Z" 
stroke="#F9A068" stroke-width="3" stroke-linecap="round" stroke-linejoin="round"/>
</svg>
