<svg width="35" height="30" viewBox="0 0 35 30" fill="none" xmlns="http://www.w3.org/2000/svg">
<path d="M5.83826 19.8239L7.48335 16.3358C7.52785 16.2361 7.60028 16.1514 7.69188 16.092C7.78348 16.0326 7.89033 16.001 7.99951 16.001C8.1087 16.001 8.21555 16.0326 8.30715 16.092C8.39875 16.1514 8.47118 16.2361 8.51568 16.3358L10.1623 19.8239L13.8404 20.3876C14.3123 20.4588 14.4991 21.0668 14.1571 21.4152L11.4971 24.1274L12.1241 27.9607C12.2048 28.4531 11.7124 28.8283 11.2897 28.5956L7.99951 26.7858L4.70935 28.5956C4.2866 28.8283 3.79418 28.4531 3.87493 27.9623L4.50193 24.1274L1.84193 21.4152C1.49835 21.0668 1.68676 20.4588 2.1586 20.386L5.83826 19.8239V19.8239ZM24.8383 19.8239L26.4833 16.3358C26.5279 16.2361 26.6003 16.1514 26.6919 16.092C26.7835 16.0326 26.8903 16.001 26.9995 16.001C27.1087 16.001 27.2156 16.0326 27.3072 16.092C27.3988 16.1514 27.4712 16.2361 27.5157 16.3358L29.1623 19.8239L32.8404 20.3876C33.3123 20.4588 33.4991 21.0668 33.1571 21.4152L30.4971 24.1274L31.1241 27.9607C31.2048 28.4531 30.7124 28.8283 30.2897 28.5956L26.9995 26.7858L23.7093 28.5956C23.2866 28.8283 22.7942 28.4531 22.8749 27.9623L23.5019 24.1274L20.8419 21.4152C20.4999 21.0668 20.6868 20.4588 21.1586 20.386L24.8383 19.8239V19.8239ZM15.3383 5.57392L16.9833 2.08584C17.0279 1.98613 17.1003 1.90145 17.1919 1.84202C17.2835 1.7826 17.3903 1.75098 17.4995 1.75098C17.6087 1.75098 17.7155 1.7826 17.8071 1.84202C17.8987 1.90145 17.9712 1.98613 18.0157 2.08584L19.6623 5.57392L23.3404 6.13759C23.8123 6.20884 23.9991 6.81684 23.6571 7.16517L20.9971 9.87742L21.6241 13.7107C21.7048 14.2031 21.2124 14.5783 20.7897 14.3456L17.4995 12.5358L14.2093 14.3456C13.7866 14.5783 13.2942 14.2031 13.3749 13.7123L14.0019 9.87742L11.3419 7.16517C10.9983 6.81684 11.1868 6.20884 11.6586 6.136L15.3383 5.57392V5.57392Z" stroke="#F9A068" stroke-width="2.5" stroke-linecap="round" stroke-linejoin="round"/>
</svg>
