<svg width="25" height="25" viewBox="0 0 25 25" fill="none" xmlns="http://www.w3.org/2000/svg">
<path d="M17.6633 0.620361H7.96272C4.02034 0.620361 0.812988 3.81975 0.812988 7.75235V17.4288C0.812988 21.3614 4.02034 24.5608 7.96272 24.5608H17.6633C21.6056 24.5608 24.813 21.3614 24.813 17.4288V7.75235C24.8129 3.81975 21.6056 0.620361 17.6633 0.620361ZM22.3986 17.4288C22.3986 20.0375 20.2785 22.1524 17.6633 22.1524H7.96272C5.34749 22.1524 3.22739 20.0375 3.22739 17.4288V7.75235C3.22739 5.14356 5.34749 3.02877 7.96272 3.02877H17.6633C20.2785 3.02877 22.3986 5.14356 22.3986 7.75235V17.4288Z" fill="white"/>
<path d="M12.8127 6.39893C9.39004 6.39893 6.60547 9.17661 6.60547 12.5908C6.60547 16.005 9.39004 18.7827 12.8127 18.7827C16.2354 18.7827 19.02 16.005 19.02 12.5908C19.02 9.17657 16.2354 6.39893 12.8127 6.39893ZM12.8127 16.3743C10.718 16.3743 9.01987 14.6804 9.01987 12.5908C9.01987 10.5013 10.718 8.80736 12.8127 8.80736C14.9075 8.80736 16.6056 10.5013 16.6056 12.5908C16.6056 14.6804 14.9074 16.3743 12.8127 16.3743Z" fill="url(#paint0_linear_49_2)"/>
<path d="M19.0323 7.92847C19.8538 7.92847 20.5197 7.26422 20.5197 6.44482C20.5197 5.62543 19.8538 4.96118 19.0323 4.96118C18.2108 4.96118 17.5449 5.62543 17.5449 6.44482C17.5449 7.26422 18.2108 7.92847 19.0323 7.92847Z" fill="white"/>
<defs>
<linearGradient id="paint0_linear_49_2" x1="12.8127" y1="24.4915" x2="12.8127" y2="0.806446" gradientUnits="userSpaceOnUse">
<stop stop-color="white"/>
</linearGradient>
</defs>
</svg>
