<svg width="66" height="65" viewBox="0 0 66 65" fill="none" xmlns="http://www.w3.org/2000/svg">
<path d="M13.5 13.3125V19H8.21875C6.17161 19 4.20832 19.8132 2.76077 21.2608C1.31322 22.7083 0.5 24.6716 0.5 26.7188V56.7812C0.5 58.8284 1.31322 60.7917 2.76077 62.2392C4.20832 63.6868 6.17161 64.5 8.21875 64.5H44.7812C45.09 64.5 45.3923 64.4821 45.6912 64.4464C44.9662 63.9133 44.2677 63.3449 43.5982 62.7434C42.7971 62.024 42.0432 61.2538 41.3411 60.4375H8.21875C7.24905 60.4375 6.31907 60.0523 5.63339 59.3666C4.94771 58.6809 4.5625 57.7509 4.5625 56.7812V26.7188C4.5625 25.7491 4.94771 24.8191 5.63339 24.1334C6.31907 23.4477 7.24905 23.0625 8.21875 23.0625H44.7812C45.7509 23.0625 46.6809 23.4477 47.3666 24.1334C48.0523 24.8191 48.4375 25.7491 48.4375 26.7188V30.8365C48.7177 30.5924 48.9935 30.3431 49.2646 30.089L49.3345 30.024L49.3459 30.011C50.1896 29.1908 51.3234 28.7375 52.5 28.75V26.7188C52.5 24.6716 51.6868 22.7083 50.2392 21.2608C48.7917 19.8132 46.8284 19 44.7812 19H39.5V13.3125C39.5 9.86469 38.1304 6.55808 35.6924 4.12011C33.2544 1.68214 29.9478 0.3125 26.5 0.3125C23.0522 0.3125 19.7456 1.68214 17.3076 4.12011C14.8696 6.55808 13.5 9.86469 13.5 13.3125ZM26.5 4.375C28.8704 4.375 31.1437 5.31663 32.8198 6.99273C34.4959 8.66884 35.4375 10.9421 35.4375 13.3125V19H17.5625V13.3125C17.5625 10.9421 18.5041 8.66884 20.1802 6.99273C21.8563 5.31663 24.1296 4.375 26.5 4.375ZM31.375 41.75C31.375 43.0429 30.8614 44.2829 29.9471 45.1971C29.0329 46.1114 27.7929 46.625 26.5 46.625C25.2071 46.625 23.9671 46.1114 23.0529 45.1971C22.1386 44.2829 21.625 43.0429 21.625 41.75C21.625 40.4571 22.1386 39.2171 23.0529 38.3029C23.9671 37.3886 25.2071 36.875 26.5 36.875C27.7929 36.875 29.0329 37.3886 29.9471 38.3029C30.8614 39.2171 31.375 40.4571 31.375 41.75ZM39.5 38.11V47.4375C39.5 57.9724 49.7603 63.3593 52.0482 64.4285C52.1886 64.4955 52.3421 64.5302 52.4976 64.5302C52.653 64.5302 52.8066 64.4955 52.9469 64.4285C55.2365 63.3658 65.5 58.0163 65.5 47.7836V38.11C65.4963 37.7819 65.3656 37.4681 65.1353 37.2344C64.9049 37.0008 64.593 36.8655 64.265 36.8571C62.7018 36.8035 59.9961 36.6069 58.1859 35.9C56.5024 35.2435 54.5573 33.5112 53.4328 32.4144C53.1816 32.1735 52.8471 32.0391 52.4992 32.0391C52.1512 32.0391 51.8167 32.1735 51.5656 32.4144C50.4411 33.5112 48.4944 35.2419 46.8125 35.9C45.0039 36.6069 42.2983 36.8035 40.735 36.8571C40.407 36.8655 40.0951 37.0008 39.8647 37.2344C39.6344 37.4681 39.5037 37.7819 39.5 38.11Z" fill="#F9A068" fill-opacity="0.8"/>
</svg>
