<svg width="25" height="21" viewBox="0 0 25 21" fill="none" xmlns="http://www.w3.org/2000/svg">
<path d="M24.813 3.16752C23.9205 3.55805 22.9695 3.81691 21.978 3.9426C22.998 3.33511 23.7765 2.38048 24.1425 1.22984C23.1915 1.79543 22.1415 2.19494 21.0225 2.41789C20.1195 1.45877 18.8325 0.864746 17.4285 0.864746C14.7045 0.864746 12.5115 3.07027 12.5115 5.77405C12.5115 6.16308 12.5445 6.53715 12.6255 6.89326C8.53499 6.69426 4.91549 4.73862 2.48399 1.75952C2.05949 2.4942 1.81049 3.33511 1.81049 4.24036C1.81049 5.94013 2.68799 7.44689 3.99599 8.31922C3.20549 8.30426 2.42999 8.07533 1.77299 7.71472C1.77299 7.72969 1.77299 7.74914 1.77299 7.76859C1.77299 10.1537 3.47849 12.1347 5.71499 12.5911C5.31449 12.7003 4.87799 12.7527 4.42499 12.7527C4.10999 12.7527 3.79199 12.7347 3.49349 12.6689C4.13099 14.6126 5.93999 16.0415 8.09099 16.0879C6.41699 17.3942 4.29149 18.1812 1.99049 18.1812C1.58699 18.1812 1.19999 18.1633 0.812988 18.1139C2.99249 19.5159 5.57549 20.3164 8.36099 20.3164C17.415 20.3164 22.365 12.835 22.365 6.35011C22.365 6.13315 22.3575 5.92367 22.347 5.71569C23.3235 5.02441 24.144 4.16105 24.813 3.16752Z" fill="white"/>
</svg>
