<svg width="25" height="15" viewBox="0 0 25 15" fill="none" xmlns="http://www.w3.org/2000/svg">
<path d="M20.813 8.88039V8.26491L24.033 4.24889C24.5373 3.61919 24.8122 2.83733 24.813 2.0314C24.8124 1.24547 24.1738 0.608479 23.386 0.607918H19.878C19.3363 0.606094 18.8466 0.929619 18.637 1.42788C17.9586 3.28921 17.066 5.06572 15.977 6.72173C15.6418 6.98409 15.1799 7.0157 14.812 6.80154V1.69922C14.8087 1.09828 14.3214 0.611752 13.719 0.607918H9.31297C9.03683 0.607403 8.81258 0.83035 8.81207 1.10581C8.81183 1.2386 8.86471 1.36602 8.95897 1.45982L9.23296 1.73312C9.6051 2.10214 9.81393 2.60424 9.81294 3.12766V6.91825C9.76607 6.96599 9.70569 6.99835 9.63993 7.01102C9.4544 6.98245 9.28593 6.88655 9.16691 6.74169C7.88005 4.87948 6.74061 2.92005 5.75891 0.88127C5.67374 0.713593 5.50133 0.607965 5.3129 0.607965H2.11297C1.39504 0.607965 0.81299 1.18852 0.81299 1.90473V2.15909C0.812146 3.21117 1.10619 4.24253 1.66199 5.1367C4.34399 9.44099 8.02199 14.5732 10.313 14.5732H13.584C14.2623 14.5722 14.8119 14.0239 14.813 13.3473V12.4934C14.8128 11.9899 15.2218 11.5815 15.7266 11.5813C15.9695 11.5812 16.2024 11.6775 16.374 11.849L18.45 13.9199C18.8695 14.3397 19.4398 14.5749 20.034 14.5732H23.602C24.2697 14.5723 24.8102 14.0315 24.8092 13.3655C24.8087 13.0467 24.6817 12.741 24.456 12.5153L20.813 8.88039Z" fill="white"/>
</svg>
