<?xml version="1.0" encoding="utf-8"?><svg viewBox="0 0 214 60" xmlns="http://www.w3.org/2000/svg" xmlns:xlink="http://www.w3.org/1999/xlink"><style>:root>svg{display:none}:root>svg:target{display:block}</style><svg fill="none" viewBox="0 0 37 22" id="arrow" xmlns="http://www.w3.org/2000/svg"><path d="M3 3.375l15.374 15.374L33.75 3.375" stroke="#FDDD2D" stroke-width="6" stroke-linecap="round" stroke-linejoin="round"/></svg><svg fill="none" viewBox="0 0 60 60" id="check" xmlns="http://www.w3.org/2000/svg"><rect width="60" height="60" rx="10" fill="#FDDD2D"/><path d="M43.667 20.5L26.25 37.917 18.333 30" stroke="#000" stroke-width="6" stroke-linecap="round" stroke-linejoin="round"/></svg><svg fill="none" viewBox="0 0 214 27" id="logo" xmlns="http://www.w3.org/2000/svg"><path d="M191.882 26.942a.95.95 0 01-.698-.27.93.93 0 01-.272-.692V.962a.93.93 0 01.272-.693.95.95 0 01.698-.269h10.405c3.313 0 5.914.757 7.803 2.27 1.889 1.489 2.834 3.619 2.834 6.39 0 1.873-.453 3.438-1.359 4.695-.88 1.258-2.07 2.194-3.571 2.81l5.435 9.545a.959.959 0 01.116.424c0 .205-.091.397-.272.577a.793.793 0 01-.582.23h-4.697c-.492 0-.855-.115-1.087-.346a3.253 3.253 0 01-.505-.692l-4.581-8.66h-4.348v8.737a.934.934 0 01-.272.692.95.95 0 01-.699.27h-4.62zm5.591-14.857h4.736c1.32 0 2.303-.308 2.951-.923.647-.616.97-1.463.97-2.54 0-1.078-.323-1.938-.97-2.58-.622-.64-1.605-.962-2.951-.962h-4.736v7.005zM165.298 26.942a.95.95 0 01-.698-.27.93.93 0 01-.272-.692V.962A.93.93 0 01164.6.27a.95.95 0 01.698-.269h17.859a.95.95 0 01.698.27c.181.179.272.41.272.692v3.349a.934.934 0 01-.272.692.95.95 0 01-.698.27h-12.501v5.62h11.646a.95.95 0 01.699.269c.181.18.272.41.272.692v3.08a.934.934 0 01-.272.692.95.95 0 01-.699.27h-11.646v5.773h12.811a.95.95 0 01.699.27c.181.179.272.41.272.692v3.349a.934.934 0 01-.272.692.95.95 0 01-.699.27h-18.169zM150.997 26.942a.952.952 0 01-.699-.27.934.934 0 01-.271-.692V.962c0-.282.09-.513.271-.693a.952.952 0 01.699-.269h4.814c.259 0 .479.09.66.27.207.179.311.41.311.692V25.98a.876.876 0 01-.311.692.902.902 0 01-.66.27h-4.814zM117.098 26.942c-.259 0-.492-.09-.699-.27a.934.934 0 01-.272-.692V.962c0-.282.091-.513.272-.693.207-.18.44-.269.699-.269h3.921c.388 0 .686.115.893.346.207.206.336.36.388.462l7.027 12.586L136.315.808c.077-.102.207-.256.388-.462.207-.23.517-.346.932-.346h3.882c.284 0 .517.09.699.27.181.179.271.41.271.692V25.98c0 .282-.09.513-.271.692a.953.953 0 01-.699.27h-4.309a.902.902 0 01-.66-.27.93.93 0 01-.272-.692V11.008l-4.659 8.582a2.274 2.274 0 01-.505.616c-.207.18-.491.27-.854.27h-1.902c-.362 0-.647-.09-.854-.27a2.786 2.786 0 01-.466-.616l-4.658-8.582V25.98a.876.876 0 01-.311.692.902.902 0 01-.66.27h-4.309zM90.512 26.942a.95.95 0 01-.699-.27.933.933 0 01-.272-.692V.962c0-.282.09-.513.272-.693A.95.95 0 0190.512 0h17.858a.95.95 0 01.699.27c.181.179.271.41.271.692v3.349c0 .282-.09.513-.271.692a.95.95 0 01-.699.27h-12.5v5.62h11.646c.285 0 .517.089.699.269.181.18.271.41.271.692v3.08c0 .282-.09.513-.271.692a.951.951 0 01-.699.27H95.869v5.773h12.811a.95.95 0 01.699.27c.181.179.272.41.272.692v3.349a.934.934 0 01-.272.692.95.95 0 01-.699.27H90.512zM61.921 26.942a.95.95 0 01-.699-.27.934.934 0 01-.271-.692V.962c0-.282.09-.513.271-.693a.95.95 0 01.7-.269h10.404c3.312 0 5.913.757 7.803 2.27 1.89 1.489 2.834 3.619 2.834 6.39 0 1.873-.453 3.438-1.359 4.695-.88 1.258-2.07 2.194-3.572 2.81l5.435 9.545a.95.95 0 01.117.424c0 .205-.09.397-.272.577a.794.794 0 01-.582.23h-4.698c-.491 0-.854-.115-1.087-.346a3.27 3.27 0 01-.504-.692l-4.581-8.66h-4.348v8.737c0 .282-.091.513-.272.692a.95.95 0 01-.699.27h-4.62zm5.59-14.857h4.737c1.32 0 2.303-.308 2.95-.923.647-.616.97-1.463.97-2.54 0-1.078-.323-1.938-.97-2.58-.62-.64-1.604-.962-2.95-.962h-4.736v7.005zM33.896 26.942a.95.95 0 01-.699-.27.934.934 0 01-.272-.692V.962c0-.282.09-.513.272-.693A.95.95 0 0133.896 0H44.65c2.122 0 3.96.32 5.512.962 1.579.642 2.795 1.617 3.65 2.925.88 1.309 1.32 2.951 1.32 4.927 0 1.95-.44 3.566-1.32 4.85-.855 1.282-2.071 2.232-3.65 2.848-1.553.615-3.39.923-5.512.923h-4.93v8.545c0 .282-.091.513-.273.692a.95.95 0 01-.698.27h-4.853zm5.707-14.549h4.852c1.191 0 2.136-.295 2.834-.885.7-.616 1.049-1.54 1.049-2.771 0-1.052-.311-1.925-.932-2.617-.595-.693-1.579-1.04-2.95-1.04h-4.853v7.313zM23.505 11.722a2.095 2.095 0 011.076 1.826c0 .756-.41 1.45-1.076 1.826l-.026.013L3.438 26.662a2.207 2.207 0 01-2.154 0A2.089 2.089 0 01.208 24.84V2.24A2.118 2.118 0 011.288.414a2.186 2.186 0 012.154 0l20.067 11.308h-.004z" fill="#FDDD2D"/></svg><svg fill="none" viewBox="0 0 214 27" id="logo-black" xmlns="http://www.w3.org/2000/svg"><path d="M191.882 26.942a.95.95 0 01-.698-.27.93.93 0 01-.272-.692V.962a.93.93 0 01.272-.693.95.95 0 01.698-.269h10.405c3.313 0 5.914.757 7.803 2.27 1.889 1.489 2.834 3.619 2.834 6.39 0 1.873-.453 3.438-1.359 4.695-.88 1.258-2.07 2.194-3.571 2.81l5.435 9.545a.959.959 0 01.116.424c0 .205-.091.397-.272.577a.793.793 0 01-.582.23h-4.697c-.492 0-.855-.115-1.087-.346a3.253 3.253 0 01-.505-.692l-4.581-8.66h-4.348v8.737a.934.934 0 01-.272.692.95.95 0 01-.699.27h-4.62zm5.591-14.857h4.736c1.32 0 2.303-.308 2.951-.923.647-.616.97-1.463.97-2.54 0-1.078-.323-1.938-.97-2.58-.622-.64-1.605-.962-2.951-.962h-4.736v7.005zM165.298 26.942a.95.95 0 01-.698-.27.93.93 0 01-.272-.692V.962A.93.93 0 01164.6.27a.95.95 0 01.698-.269h17.859a.95.95 0 01.698.27c.181.179.272.41.272.692v3.349a.934.934 0 01-.272.692.95.95 0 01-.698.27h-12.501v5.62h11.646a.95.95 0 01.699.269c.181.18.272.41.272.692v3.08a.934.934 0 01-.272.692.95.95 0 01-.699.27h-11.646v5.773h12.811a.95.95 0 01.699.27c.181.179.272.41.272.692v3.349a.934.934 0 01-.272.692.95.95 0 01-.699.27h-18.169zM150.997 26.942a.952.952 0 01-.699-.27.934.934 0 01-.271-.692V.962c0-.282.09-.513.271-.693a.952.952 0 01.699-.269h4.814c.259 0 .479.09.66.27.207.179.311.41.311.692V25.98a.876.876 0 01-.311.692.902.902 0 01-.66.27h-4.814zM117.098 26.942c-.259 0-.492-.09-.699-.27a.934.934 0 01-.272-.692V.962c0-.282.091-.513.272-.693.207-.18.44-.269.699-.269h3.921c.388 0 .686.115.893.346.207.206.336.36.388.462l7.027 12.586L136.315.808c.077-.102.207-.256.388-.462.207-.23.517-.346.932-.346h3.882c.284 0 .517.09.699.27.181.179.271.41.271.692V25.98c0 .282-.09.513-.271.692a.953.953 0 01-.699.27h-4.309a.902.902 0 01-.66-.27.93.93 0 01-.272-.692V11.008l-4.659 8.582a2.274 2.274 0 01-.505.616c-.207.18-.491.27-.854.27h-1.902c-.362 0-.647-.09-.854-.27a2.786 2.786 0 01-.466-.616l-4.658-8.582V25.98a.876.876 0 01-.311.692.902.902 0 01-.66.27h-4.309zM90.512 26.942a.95.95 0 01-.699-.27.933.933 0 01-.272-.692V.962c0-.282.09-.513.272-.693A.95.95 0 0190.512 0h17.858a.95.95 0 01.699.27c.181.179.271.41.271.692v3.349c0 .282-.09.513-.271.692a.95.95 0 01-.699.27h-12.5v5.62h11.646c.285 0 .517.089.699.269.181.18.271.41.271.692v3.08c0 .282-.09.513-.271.692a.951.951 0 01-.699.27H95.869v5.773h12.811a.95.95 0 01.699.27c.181.179.272.41.272.692v3.349a.934.934 0 01-.272.692.95.95 0 01-.699.27H90.512zM61.921 26.942a.95.95 0 01-.699-.27.934.934 0 01-.271-.692V.962c0-.282.09-.513.271-.693a.95.95 0 01.7-.269h10.404c3.312 0 5.913.757 7.803 2.27 1.89 1.489 2.834 3.619 2.834 6.39 0 1.873-.453 3.438-1.359 4.695-.88 1.258-2.07 2.194-3.572 2.81l5.435 9.545a.95.95 0 01.117.424c0 .205-.09.397-.272.577a.794.794 0 01-.582.23h-4.698c-.491 0-.854-.115-1.087-.346a3.27 3.27 0 01-.504-.692l-4.581-8.66h-4.348v8.737c0 .282-.091.513-.272.692a.95.95 0 01-.699.27h-4.62zm5.59-14.857h4.737c1.32 0 2.303-.308 2.95-.923.647-.616.97-1.463.97-2.54 0-1.078-.323-1.938-.97-2.58-.62-.64-1.604-.962-2.95-.962h-4.736v7.005zM33.896 26.942a.95.95 0 01-.699-.27.934.934 0 01-.272-.692V.962c0-.282.09-.513.272-.693A.95.95 0 0133.896 0H44.65c2.122 0 3.96.32 5.512.962 1.579.642 2.795 1.617 3.65 2.925.88 1.309 1.32 2.951 1.32 4.927 0 1.95-.44 3.566-1.32 4.85-.855 1.282-2.071 2.232-3.65 2.848-1.553.615-3.39.923-5.512.923h-4.93v8.545c0 .282-.091.513-.273.692a.95.95 0 01-.698.27h-4.853zm5.707-14.549h4.852c1.191 0 2.136-.295 2.834-.885.7-.616 1.049-1.54 1.049-2.771 0-1.052-.311-1.925-.932-2.617-.595-.693-1.579-1.04-2.95-1.04h-4.853v7.313zM23.505 11.722a2.095 2.095 0 011.076 1.826c0 .756-.41 1.45-1.076 1.826l-.026.013L3.438 26.662a2.207 2.207 0 01-2.154 0A2.089 2.089 0 01.208 24.84V2.24A2.118 2.118 0 011.288.414a2.186 2.186 0 012.154 0l20.067 11.308h-.004z" fill="#000"/></svg><svg fill="none" viewBox="0 0 50 56" id="play" xmlns="http://www.w3.org/2000/svg"><path d="M46.933 23.979a4.356 4.356 0 012.164 3.778c0 1.564-.823 3-2.164 3.777l-.051.026L6.596 54.884a4.327 4.327 0 01-6.492-3.77V4.365A4.403 4.403 0 012.276.587a4.286 4.286 0 014.329 0L46.94 23.979h-.008z" fill="#FDDD2D"/></svg><svg fill="none" viewBox="0 0 50 56" id="play-black" xmlns="http://www.w3.org/2000/svg"><path d="M46.933 23.979a4.356 4.356 0 012.164 3.778c0 1.564-.823 3-2.164 3.777l-.051.026L6.596 54.884a4.327 4.327 0 01-6.492-3.77V4.365A4.403 4.403 0 012.276.587a4.286 4.286 0 014.329 0L46.94 23.979h-.008z" fill="#000"/></svg></svg>