<?xml version="1.0" encoding="utf-8"?><svg viewBox="0 0 20 18" xmlns="http://www.w3.org/2000/svg" xmlns:xlink="http://www.w3.org/1999/xlink"><style>:root>svg{display:none}:root>svg:target{display:block}</style><svg fill="none" viewBox="0 0 18 18" id="+" xmlns="http://www.w3.org/2000/svg"><path d="M9.8 5.8a.8.8 0 10-1.6 0h1.6zm-1.6 6.4a.8.8 0 001.6 0H8.2zm-2.4-4a.8.8 0 100 1.6V8.2zm6.4 1.6a.8.8 0 000-1.6v1.6zm4-.8A7.2 7.2 0 019 16.2v1.6A8.8 8.8 0 0017.8 9h-1.6zM9 16.2A7.2 7.2 0 011.8 9H.2A8.8 8.8 0 009 17.8v-1.6zM1.8 9A7.2 7.2 0 019 1.8V.2A8.8 8.8 0 00.2 9h1.6zM9 1.8A7.2 7.2 0 0116.2 9h1.6A8.8 8.8 0 009 .2v1.6zm-.8 4v6.4h1.6V5.8H8.2zm-2.4 4h6.4V8.2H5.8v1.6z" fill="#7F56D9"/></svg><svg viewBox="0 0 16 18" id="account" xmlns="http://www.w3.org/2000/svg"><path d="M14.2 17a.8.8 0 001.6 0h-1.6zm-2.7-5.333v-.8.8zm-7 0v-.8.8zM1 15.222H.2 1zM.2 17a.8.8 0 001.6 0H.2zm15.6 0v-1.778h-1.6V17h1.6zm0-1.778c0-1.15-.45-2.257-1.255-3.075l-1.14 1.122c.508.516.795 1.218.795 1.953h1.6zm-1.255-3.075a4.273 4.273 0 00-3.045-1.28v1.6c.712 0 1.397.287 1.905.802l1.14-1.122zm-3.045-1.28h-7v1.6h7v-1.6zm-7 0c-1.145 0-2.24.462-3.045 1.28l1.14 1.122a2.673 2.673 0 011.905-.802v-1.6zm-3.045 1.28A4.384 4.384 0 00.2 15.222h1.6c0-.735.287-1.437.795-1.953l-1.14-1.122zM.2 15.222V17h1.6v-1.778H.2zM10.7 4.556C10.7 6.089 9.48 7.31 8 7.31v1.6c2.387 0 4.3-1.962 4.3-4.355h-1.6zM8 7.31c-1.48 0-2.7-1.222-2.7-2.755H3.7C3.7 6.949 5.613 8.91 8 8.91v-1.6zM5.3 4.556C5.3 3.022 6.52 1.8 8 1.8V.2C5.613.2 3.7 2.162 3.7 4.556h1.6zM8 1.8c1.48 0 2.7 1.222 2.7 2.756h1.6C12.3 2.162 10.387.2 8 .2v1.6z"/></svg><svg viewBox="0 0 18 18" id="browse" xmlns="http://www.w3.org/2000/svg"><path d="M12.392 5.608l.759.253a.8.8 0 00-1.012-1.012l.253.759zm-1.696 5.088l.253.759a.8.8 0 00.506-.506l-.759-.253zm-5.088 1.696l-.759-.253a.8.8 0 001.012 1.012l-.253-.759zm1.696-5.088l-.253-.759a.8.8 0 00-.506.506l.759.253zM16.2 9A7.2 7.2 0 019 16.2v1.6A8.8 8.8 0 0017.8 9h-1.6zM9 16.2A7.2 7.2 0 011.8 9H.2A8.8 8.8 0 009 17.8v-1.6zM1.8 9A7.2 7.2 0 019 1.8V.2A8.8 8.8 0 00.2 9h1.6zM9 1.8A7.2 7.2 0 0116.2 9h1.6A8.8 8.8 0 009 .2v1.6zm2.633 3.555l-1.696 5.088 1.518.506 1.696-5.088-1.518-.506zm-1.19 4.582l-5.088 1.696.506 1.518 5.088-1.696-.506-1.518zm-4.076 2.708l1.696-5.088-1.518-.506-1.696 5.088 1.518.506zm1.19-4.582l5.088-1.696-.506-1.518-5.088 1.696.506 1.518z"/></svg><svg viewBox="0 0 20 18" id="cart" xmlns="http://www.w3.org/2000/svg"><path d="M1 .2a.8.8 0 100 1.6V.2zm3.273.8l.78-.174A.8.8 0 004.274.2V1zm2.192 9.84l.785-.158a.695.695 0 00-.004-.017l-.78.175zm1.637 1.303v-.8h-.015l.015.8zm7.953 0l.015-.8h-.015v.8zm1.636-1.304l-.78-.176a.525.525 0 00-.004.02l.784.156zM19 5.048l.78.176a.8.8 0 00-.78-.976v.8zm-13.91-.8a.8.8 0 100 1.6v-1.6zM7.565 16.19v.001l-.003.003a.02.02 0 01-.006.004.024.024 0 01-.01.002v1.6c.886 0 1.619-.713 1.619-1.61h-1.6zm-.019.01c-.005 0-.008 0-.01-.002a.02.02 0 01-.005-.004.011.011 0 01-.003-.003s0 .001 0 0h-1.6c0 .896.733 1.609 1.618 1.609v-1.6zm-.018-.01c0-.001 0 0 0 0l.003-.003a.02.02 0 01.006-.004.024.024 0 01.01-.002v-1.6c-.886 0-1.619.713-1.619 1.61h1.6zm.018-.009c.006 0 .008 0 .01.002a.02.02 0 01.006.004l.003.003s0-.001 0 0h1.6c0-.896-.733-1.609-1.619-1.609v1.6zm9.019.01c0 .001 0 0 0 0l-.003.003a.02.02 0 01-.006.004.024.024 0 01-.01.002v1.6c.886 0 1.619-.713 1.619-1.61h-1.6zm-.018.009c-.006 0-.008 0-.01-.002a.02.02 0 01-.006-.004l-.003-.003s0 .001 0 0h-1.6c0 .896.733 1.609 1.619 1.609v-1.6zm-.019-.01c0-.001 0 0 0 0l.003-.003a.02.02 0 01.006-.004.024.024 0 01.01-.002v-1.6c-.886 0-1.619.713-1.619 1.61h1.6zm.018-.009c.006 0 .008 0 .01.002a.02.02 0 01.006.004l.003.003s0-.001 0 0h1.6c0-.896-.733-1.609-1.619-1.609v1.6zM1 1.8h3.273V.2H1v1.6zm2.492-.626l2.193 9.84 1.561-.348L5.054.825l-1.562.348zm2.19 9.823c.111.559.418 1.06.864 1.414l.997-1.252a.816.816 0 01-.293-.477l-1.569.315zm.864 1.414a2.448 2.448 0 001.571.532l-.03-1.6a.847.847 0 01-.544-.184l-.997 1.252zm1.556.532h7.953v-1.6H8.102v1.6zm7.937 0c.57.01 1.126-.177 1.571-.532l-.996-1.252a.847.847 0 01-.544.184l-.03 1.6zm1.571-.532c.446-.355.753-.855.865-1.414l-1.568-.315a.816.816 0 01-.293.477l.996 1.252zm.861-1.395l1.31-5.792-1.561-.353-1.31 5.792 1.561.353zM19 4.248H5.09v1.6H19v-1.6z"/></svg><svg viewBox="0 0 18 12" id="filter" xmlns="http://www.w3.org/2000/svg"><path d="M1 .2a.8.8 0 100 1.6V.2zm16 1.6a.8.8 0 000-1.6v1.6zM3.667 5.2a.8.8 0 100 1.6V5.2zm10.666 1.6a.8.8 0 100-1.6v1.6zm-8 3.4a.8.8 0 000 1.6v-1.6zm5.334 1.6a.8.8 0 000-1.6v1.6zM1 1.8h16V.2H1v1.6zm2.667 5h10.666V5.2H3.667v1.6zm2.666 5h5.334v-1.6H6.333v1.6z"/></svg><svg fill="none" viewBox="0 0 12 12" id="half-star" xmlns="http://www.w3.org/2000/svg"><path d="M6 0l2.04 3.375 3.96.827-2.7 2.912L9.708 11 6 9.425 2.292 11 2.7 7.114 0 4.202l3.96-.827L6 0z" fill="#EAECF0"/><path d="M2.292 11L6 9.425V0L3.96 3.375 0 4.202l2.7 2.912L2.292 11z" fill="#FEC84B"/></svg><svg viewBox="0 0 16 18" id="header-account" xmlns="http://www.w3.org/2000/svg"><path d="M14.2 17a.8.8 0 001.6 0h-1.6zm-2.7-5.333v-.8.8zm-7 0v-.8.8zM1 15.222H.2 1zM.2 17a.8.8 0 001.6 0H.2zm15.6 0v-1.778h-1.6V17h1.6zm0-1.778c0-1.15-.45-2.257-1.255-3.075l-1.14 1.122c.508.516.795 1.218.795 1.953h1.6zm-1.255-3.075a4.273 4.273 0 00-3.045-1.28v1.6c.712 0 1.397.287 1.905.802l1.14-1.122zm-3.045-1.28h-7v1.6h7v-1.6zm-7 0c-1.145 0-2.24.462-3.045 1.28l1.14 1.122a2.673 2.673 0 011.905-.802v-1.6zm-3.045 1.28A4.384 4.384 0 00.2 15.222h1.6c0-.735.287-1.437.795-1.953l-1.14-1.122zM.2 15.222V17h1.6v-1.778H.2zM10.7 4.556C10.7 6.089 9.48 7.31 8 7.31v1.6c2.387 0 4.3-1.962 4.3-4.355h-1.6zM8 7.31c-1.48 0-2.7-1.222-2.7-2.755H3.7C3.7 6.949 5.613 8.91 8 8.91v-1.6zM5.3 4.556C5.3 3.022 6.52 1.8 8 1.8V.2C5.613.2 3.7 2.162 3.7 4.556h1.6zM8 1.8c1.48 0 2.7 1.222 2.7 2.756h1.6C12.3 2.162 10.387.2 8 .2v1.6z"/></svg><svg viewBox="0 0 20 18" id="header-cart" xmlns="http://www.w3.org/2000/svg"><path d="M1 .2a.8.8 0 100 1.6V.2zm3.273.8l.78-.174A.8.8 0 004.274.2V1zm2.192 9.84l.785-.158a.695.695 0 00-.004-.017l-.78.175zm1.637 1.303v-.8h-.015l.015.8zm7.953 0l.015-.8h-.015v.8zm1.636-1.304l-.78-.176a.525.525 0 00-.004.02l.784.156zM19 5.048l.78.176a.8.8 0 00-.78-.976v.8zm-13.91-.8a.8.8 0 100 1.6v-1.6zM7.565 16.19v.001l-.003.003a.02.02 0 01-.006.004.024.024 0 01-.01.002v1.6c.886 0 1.619-.713 1.619-1.61h-1.6zm-.019.01c-.005 0-.008 0-.01-.002a.02.02 0 01-.005-.004.011.011 0 01-.003-.003s0 .001 0 0h-1.6c0 .896.733 1.609 1.618 1.609v-1.6zm-.018-.01c0-.001 0 0 0 0l.003-.003a.02.02 0 01.006-.004.024.024 0 01.01-.002v-1.6c-.886 0-1.619.713-1.619 1.61h1.6zm.018-.009c.006 0 .008 0 .01.002a.02.02 0 01.006.004l.003.003s0-.001 0 0h1.6c0-.896-.733-1.609-1.619-1.609v1.6zm9.019.01c0 .001 0 0 0 0l-.003.003a.02.02 0 01-.006.004.024.024 0 01-.01.002v1.6c.886 0 1.619-.713 1.619-1.61h-1.6zm-.018.009c-.006 0-.008 0-.01-.002a.02.02 0 01-.006-.004l-.003-.003s0 .001 0 0h-1.6c0 .896.733 1.609 1.619 1.609v-1.6zm-.019-.01c0-.001 0 0 0 0l.003-.003a.02.02 0 01.006-.004.024.024 0 01.01-.002v-1.6c-.886 0-1.619.713-1.619 1.61h1.6zm.018-.009c.006 0 .008 0 .01.002a.02.02 0 01.006.004l.003.003s0-.001 0 0h1.6c0-.896-.733-1.609-1.619-1.609v1.6zM1 1.8h3.273V.2H1v1.6zm2.492-.626l2.193 9.84 1.561-.348L5.054.825l-1.562.348zm2.19 9.823c.111.559.418 1.06.864 1.414l.997-1.252a.816.816 0 01-.293-.477l-1.569.315zm.864 1.414a2.448 2.448 0 001.571.532l-.03-1.6a.847.847 0 01-.544-.184l-.997 1.252zm1.556.532h7.953v-1.6H8.102v1.6zm7.937 0c.57.01 1.126-.177 1.571-.532l-.996-1.252a.847.847 0 01-.544.184l-.03 1.6zm1.571-.532c.446-.355.753-.855.865-1.414l-1.568-.315a.816.816 0 01-.293.477l.996 1.252zm.861-1.395l1.31-5.792-1.561-.353-1.31 5.792 1.561.353zM19 4.248H5.09v1.6H19v-1.6z"/></svg><svg fill="none" viewBox="0 0 16 18" id="header-place" xmlns="http://www.w3.org/2000/svg"><path d="M14.5 7.545h.8-.8zM8 17l-.446.664a.8.8 0 00.892 0L8 17zM1.5 7.545H.7h.8zM8 1v.8V1zm5.7 6.545c0 2.226-1.44 4.396-3.033 6.089a21.22 21.22 0 01-3.052 2.66l-.048.033-.011.007-.002.002L8 17a112.879 112.879 0 00.447.663h.001l.005-.004.017-.011.06-.042.22-.157a22.849 22.849 0 003.083-2.72c1.657-1.76 3.467-4.319 3.467-7.184h-1.6zM8 17l.446-.664-.002-.002c-.002 0-.006-.003-.011-.007l-.048-.033a19.077 19.077 0 01-.9-.68 21.224 21.224 0 01-2.152-1.98C3.74 11.94 2.3 9.77 2.3 7.545H.7c0 2.865 1.81 5.423 3.467 7.185a22.838 22.838 0 003.302 2.876l.06.042.018.011.005.004h.001c0 .001.001.001.447-.663zM2.3 7.545c0-1.525.602-2.987 1.671-4.064L2.836 2.353A7.369 7.369 0 00.7 7.545h1.6zm1.671-4.064A5.677 5.677 0 018 1.8V.2a7.277 7.277 0 00-5.164 2.153l1.135 1.128zM8 1.8c1.51 0 2.96.604 4.028 1.68l1.136-1.127A7.277 7.277 0 008 .2v1.6zm4.028 1.68A5.769 5.769 0 0113.7 7.546h1.6a7.369 7.369 0 00-2.136-5.192l-1.136 1.128zM9.367 7.546c0 .769-.617 1.382-1.367 1.382v1.6a2.974 2.974 0 002.967-2.982h-1.6zM8 8.927c-.75 0-1.367-.613-1.367-1.382h-1.6A2.974 2.974 0 008 10.527v-1.6zM6.633 7.545c0-.768.617-1.381 1.367-1.381v-1.6a2.974 2.974 0 00-2.967 2.981h1.6zM8 6.164c.75 0 1.367.613 1.367 1.381h1.6A2.974 2.974 0 008 4.564v1.6z" fill="#101828"/></svg><svg viewBox="0 0 18 18" id="header-search" xmlns="http://www.w3.org/2000/svg"><path d="M16.434 17.566a.8.8 0 001.132-1.132l-1.132 1.132zM13.7 12.568a.8.8 0 00-1.131 1.131l1.131-1.131zm.723-4.457a6.311 6.311 0 01-6.31 6.311v1.6a7.911 7.911 0 007.91-7.91h-1.6zm-6.31 6.311A6.311 6.311 0 011.8 8.112H.2a7.911 7.911 0 007.911 7.91v-1.6zM1.8 8.112A6.311 6.311 0 018.111 1.8V.2A7.911 7.911 0 00.2 8.111h1.6zM8.111 1.8a6.311 6.311 0 016.311 6.311h1.6A7.911 7.911 0 008.112.2v1.6zm9.455 14.634l-3.867-3.866-1.131 1.131 3.866 3.867 1.132-1.132z"/></svg><svg viewBox="0 0 16 18" id="home" xmlns="http://www.w3.org/2000/svg"><path d="M1 6.6l-.5-.625a.8.8 0 00-.3.625H1zM8 1l.5-.625a.8.8 0 00-1 0L8 1zm7 5.6h.8a.8.8 0 00-.3-.625L15 6.6zM1 15.4H.2 1zM4.867 17a.8.8 0 001.6 0h-1.6zm.8-8v-.8a.8.8 0 00-.8.8h.8zm4.666 0h.8a.8.8 0 00-.8-.8V9zm-.8 8a.8.8 0 001.6 0h-1.6zM1.5 7.225l7-5.6-1-1.25-7 5.6 1 1.25zm6-5.6l7 5.6 1-1.25-7-5.6-1 1.25zM14.2 6.6v8.8h1.6V6.6h-1.6zm0 8.8c0 .22-.085.425-.23.574l1.148 1.115c.44-.452.682-1.06.682-1.689h-1.6zm-.23.574a.734.734 0 01-.526.226v1.6c.633 0 1.234-.259 1.674-.711l-1.147-1.115zm-.526.226H2.556v1.6h10.888v-1.6zm-10.888 0a.734.734 0 01-.527-.226L.882 17.089c.44.453 1.041.711 1.674.711v-1.6zm-.527-.226A.824.824 0 011.8 15.4H.2c0 .63.243 1.237.682 1.689l1.147-1.115zM1.8 15.4V6.6H.2v8.8h1.6zM6.467 17V9h-1.6v8h1.6zm-.8-7.2h4.666V8.2H5.667v1.6zM9.533 9v8h1.6V9h-1.6z"/></svg><svg viewBox="0 0 6 10" id="navigation-next" xmlns="http://www.w3.org/2000/svg"><path d="M5 5l.566.566a.8.8 0 000-1.132L5 5zM1.566.434A.8.8 0 00.434 1.566L1.566.434zm-1.132 8a.8.8 0 001.132 1.132L.434 8.434zm0-6.868l4 4 1.132-1.132-4-4L.434 1.566zm4 2.868l-4 4 1.132 1.132 4-4-1.132-1.132z"/></svg><svg viewBox="0 0 6 10" id="navigation-prev" xmlns="http://www.w3.org/2000/svg"><path d="M1 5l-.566-.566a.8.8 0 000 1.132L1 5zm3.434 4.566a.8.8 0 001.132-1.132L4.434 9.566zm1.132-8A.8.8 0 004.434.434l1.132 1.132zm0 6.868l-4-4L.434 5.566l4 4 1.132-1.132zm-4-2.868l4-4L4.434.434l-4 4 1.132 1.132z"/></svg><svg fill="none" viewBox="0 0 18 18" id="search" xmlns="http://www.w3.org/2000/svg"><path d="M16.434 17.566a.8.8 0 001.132-1.132l-1.132 1.132zM13.7 12.568a.8.8 0 00-1.131 1.131l1.131-1.131zm.723-4.457a6.311 6.311 0 01-6.31 6.311v1.6a7.911 7.911 0 007.91-7.91h-1.6zm-6.31 6.311A6.311 6.311 0 011.8 8.112H.2a7.911 7.911 0 007.911 7.91v-1.6zM1.8 8.112A6.311 6.311 0 018.111 1.8V.2A7.911 7.911 0 00.2 8.111h1.6zM8.111 1.8a6.311 6.311 0 016.311 6.311h1.6A7.911 7.911 0 008.112.2v1.6zm9.455 14.634l-3.867-3.866-1.131 1.131 3.866 3.867 1.132-1.132z" fill="#98A2B3"/></svg><svg viewBox="0 0 18 18" id="search-bot" xmlns="http://www.w3.org/2000/svg"><path d="M16.434 17.566a.8.8 0 001.132-1.132l-1.132 1.132zM13.7 12.568a.8.8 0 00-1.131 1.131l1.131-1.131zm.723-4.457a6.311 6.311 0 01-6.31 6.311v1.6a7.911 7.911 0 007.91-7.91h-1.6zm-6.31 6.311A6.311 6.311 0 011.8 8.112H.2a7.911 7.911 0 007.911 7.91v-1.6zM1.8 8.112A6.311 6.311 0 018.111 1.8V.2A7.911 7.911 0 00.2 8.111h1.6zM8.111 1.8a6.311 6.311 0 016.311 6.311h1.6A7.911 7.911 0 008.112.2v1.6zm9.455 14.634l-3.867-3.866-1.131 1.131 3.866 3.867 1.132-1.132z"/></svg><svg fill="none" viewBox="0 0 12 11" id="star" xmlns="http://www.w3.org/2000/svg"><path d="M6 0l2.04 3.375 3.96.827-2.7 2.912L9.708 11 6 9.425 2.292 11 2.7 7.114 0 4.202l3.96-.827L6 0z" fill="#FEC84B"/></svg><svg fill="none" viewBox="0 0 12 11" id="transp-star" xmlns="http://www.w3.org/2000/svg"><path d="M6 0l2.04 3.375 3.96.827-2.7 2.912L9.708 11 6 9.425 2.292 11 2.7 7.114 0 4.202l3.96-.827L6 0z" fill="#EAECF0"/></svg><svg fill="none" viewBox="0 0 10 10" id="x" xmlns="http://www.w3.org/2000/svg"><path d="M9.566 1.566A.8.8 0 008.434.434l1.132 1.132zM.434 8.434a.8.8 0 001.132 1.132L.434 8.434zm1.132-8A.8.8 0 00.434 1.566L1.566.434zm6.868 9.132a.8.8 0 001.132-1.132L8.434 9.566zm0-9.132l-8 8 1.132 1.132 8-8L8.434.434zm-8 1.132l8 8 1.132-1.132-8-8L.434 1.566z" fill="#7F56D9"/></svg></svg>