<?xml version="1.0" encoding="utf-8"?><svg viewBox="0 0 400 380" xmlns="http://www.w3.org/2000/svg" xmlns:xlink="http://www.w3.org/1999/xlink"><style>:root>svg{display:none}:root>svg:target{display:block}</style><svg fill="none" viewBox="0 0 11 14" id="arrow" xmlns="http://www.w3.org/2000/svg"><path d="M9 7l.6.8 1.067-.8L9.6 6.2 9 7zm-7.4 6.8l8-6-1.2-1.6-8 6 1.2 1.6zm8-7.6l-8-6L.4 1.8l8 6 1.2-1.6z" fill="#073BA1"/></svg><svg fill="none" viewBox="0 0 100 100" id="car" xmlns="http://www.w3.org/2000/svg"><g clip-path="url(#abclip0_390_3074)"><circle cx="50" cy="50" r="50" fill="#EBF2FF"/><path d="M71.93 43.388l-3.42-10.26A7.487 7.487 0 0061.397 28H38.603a7.487 7.487 0 00-7.113 5.127l-3.42 10.26A5 5 0 0025 48v12.5c0 1.845 1.01 3.44 2.5 4.308V70.5A2.5 2.5 0 0030 73h2.5a2.5 2.5 0 002.5-2.5v-5h30v5a2.5 2.5 0 002.5 2.5H70a2.5 2.5 0 002.5-2.5v-5.692A4.975 4.975 0 0075 60.5V48a5 5 0 00-3.07-4.612zM38.602 33h22.793c1.077 0 2.032.685 2.372 1.71L66.532 43H33.468l2.762-8.29A2.5 2.5 0 0138.603 33zM33.75 58a3.753 3.753 0 01-2.65-6.405A3.75 3.75 0 1133.75 58zm32.5 0a3.753 3.753 0 01-2.65-6.405A3.75 3.75 0 1166.25 58z" fill="#073BA1"/></g><defs><clipPath id="abclip0_390_3074"><path fill="#fff" d="M0 0h100v100H0z"/></clipPath></defs></svg><svg fill="none" viewBox="0 0 64 64" id="clock" xmlns="http://www.w3.org/2000/svg"><path fill-rule="evenodd" clip-rule="evenodd" d="M20.271 7.744a1.954 1.954 0 00-1.565-3.58A33.33 33.33 0 004.327 16.24a1.953 1.953 0 103.253 2.163 29.425 29.425 0 0112.691-10.66zm25.023-3.58a1.953 1.953 0 10-1.566 3.58 29.425 29.425 0 0112.692 10.66 1.953 1.953 0 103.253-2.164 33.33 33.33 0 00-14.38-12.076zm4.917 45.204a23.344 23.344 0 005.231-14.763c0-12.946-10.495-23.442-23.442-23.442-12.946 0-23.441 10.495-23.441 23.442 0 5.595 1.96 10.732 5.231 14.763L9.46 57.09a1.953 1.953 0 103.407 1.91l3.758-6.7A23.35 23.35 0 0032 58.046c5.883 0 11.26-2.167 15.376-5.747l3.758 6.702a1.954 1.954 0 003.407-1.911l-4.33-7.724zM41.1 27.926c.811.71.893 1.944.183 2.756l-7.475 8.543a4.558 4.558 0 01-6.278.558l-4.565-3.652a1.953 1.953 0 012.44-3.051l4.566 3.652a.651.651 0 00.897-.08l7.475-8.542a1.954 1.954 0 012.756-.184z" fill="#073BA1"/></svg><svg fill="none" viewBox="0 0 100 100" id="creditcard" xmlns="http://www.w3.org/2000/svg"><g clip-path="url(#adclip0_349_2427)"><circle cx="50" cy="50" r="50" fill="#EBF2FF"/><path d="M62.5 56.75c-.474 0-.928.171-1.263.476a1.554 1.554 0 00-.523 1.15c0 .43.188.843.523 1.148.335.305.79.476 1.263.476h3.571a1.88 1.88 0 001.263-.476c.335-.305.523-.718.523-1.149 0-.43-.188-.844-.523-1.149a1.879 1.879 0 00-1.263-.476H62.5zM30.357 34h7.747l-2.5 3.25h-5.247c-.473 0-.928.171-1.262.476a1.554 1.554 0 00-.524 1.149c0 .431.189.844.523 1.15.335.304.79.475 1.263.475h37.5c1.894 0 3.711.685 5.05 1.904C74.248 43.623 75 45.276 75 47v19.5c0 1.724-.752 3.377-2.092 4.597C71.568 72.316 69.75 73 67.858 73h-33.93c-2.367 0-4.638-.856-6.313-2.38C25.941 69.098 25 67.03 25 64.876v-26c0-1.293.564-2.533 1.57-3.447C27.573 34.514 28.935 34 30.356 34zm-1.786 30.875c0 1.293.565 2.533 1.57 3.448 1.004.914 2.367 1.427 3.788 1.427h33.928c.947 0 1.856-.342 2.525-.952.67-.61 1.047-1.436 1.047-2.298V47c0-.862-.377-1.688-1.047-2.298-.67-.61-1.578-.952-2.525-.952h-37.5a5.852 5.852 0 01-1.786-.276v21.401z" fill="#073BA1"/><path d="M50.007 23.086a5.186 5.186 0 011.59-1.364 5.707 5.707 0 012.055-.674 5.871 5.871 0 012.18.13c.71.178 1.371.488 1.943.91l11.678 8.63c1.044.77 1.73 1.87 1.925 3.08.195 1.21-.118 2.441-.875 3.452h-4.357l1.393-1.817c.26-.337.369-.75.306-1.157a1.596 1.596 0 00-.642-1.037L61.19 28.8l-6.414 8.45h-4.347l7.979-10.503-2.886-2.132c-.19-.141-.41-.245-.647-.304a1.958 1.958 0 00-.727-.044 1.902 1.902 0 00-.685.225c-.21.116-.39.271-.53.454L43.5 37.246h-4.357l10.864-14.16z" fill="#EC3D5A"/></g><defs><clipPath id="adclip0_349_2427"><path fill="#fff" d="M0 0h100v100H0z"/></clipPath></defs></svg><svg fill="none" viewBox="0 0 100 100" id="flat" xmlns="http://www.w3.org/2000/svg"><g clip-path="url(#aeclip0_594_4504)"><circle cx="50" cy="50" r="50" fill="#EBF2FF"/><path d="M66.501 22H39.183c-3.04 0-5.501 2.517-5.501 5.628v15.784l-12.87 12.997a2.82 2.82 0 00-.757 1.433 2.86 2.86 0 00.15 1.62c.206.514.556.953 1.006 1.263.45.309.98.474 1.523.475v14c0 .743.288 1.455.801 1.98.514.525 1.21.82 1.936.82h43.792c.726 0 1.422-.295 1.935-.82A2.833 2.833 0 0072 75.2V27.625C72 24.517 69.542 22 66.501 22zM44.416 58.71V72.4H28.208V56.81l8.175-8.258 8.033 8.409v1.75zm5.688-17.11H44.63V36h5.474v5.6zM61.052 64h-5.474v-5.6h5.474V64zm0-11.2h-5.474v-5.6h5.474v5.6zm0-11.2h-5.474V36h5.474v5.6z" fill="#073BA1"/></g><defs><clipPath id="aeclip0_594_4504"><path fill="#fff" d="M0 0h100v100H0z"/></clipPath></defs></svg><svg fill="none" viewBox="0 0 100 100" id="garage" xmlns="http://www.w3.org/2000/svg"><g clip-path="url(#afclip0_594_7937)"><circle cx="50" cy="50" r="50" fill="#EBF2FF"/><path d="M26.6 70.081v3.32a2.6 2.6 0 002.6 2.6h2.6a2.6 2.6 0 002.6-2.6v-2.6h31.2v2.6a2.6 2.6 0 002.6 2.6h2.6a2.6 2.6 0 002.6-2.6v-3.32a5.174 5.174 0 002.6-4.48v-7.8c0-2.16-1.318-4.009-3.193-4.797l-3.557-10.67a7.787 7.787 0 00-7.397-5.333H38.147a7.787 7.787 0 00-7.397 5.333l-3.557 10.67A5.202 5.202 0 0024 57.801v7.8c0 1.92 1.05 3.578 2.6 4.48zm6.5-4.48a3.903 3.903 0 01-2.756-6.66A3.901 3.901 0 1133.1 65.6zm33.8 0a3.902 3.902 0 11.003-7.803 3.902 3.902 0 01-.003 7.803zm-28.753-23.4H61.85a2.6 2.6 0 012.467 1.779l2.876 8.622H32.806l2.873-8.622a2.603 2.603 0 012.468-1.778z" fill="#073BA1"/><path d="M76 38.01v-5.483l-25.178-8.393a2.59 2.59 0 00-1.711.023L24 33.288v5.533l26.039-9.469L76 38.01z" fill="#073BA1"/></g><defs><clipPath id="afclip0_594_7937"><path fill="#fff" d="M0 0h100v100H0z"/></clipPath></defs></svg><svg fill="none" viewBox="0 0 64 64" id="gavel" xmlns="http://www.w3.org/2000/svg"><path d="M7.728 52.722l23.899-23.878-3.486-3.532-1.792 1.766a2.48 2.48 0 01-3.51 0l-1.768-1.766a2.478 2.478 0 010-3.507l14.09-14.078a2.479 2.479 0 013.51 0l1.768 1.766c.971.97.971 2.537 0 3.507l-1.767 1.717 3.535 3.556a2.481 2.481 0 013.51 0c.97.97.97 2.562 0 3.532l3.51 3.507 1.767-1.766a2.51 2.51 0 013.535 0l1.743 1.766c.97.97.97 2.562 0 3.532L42.207 42.897a2.51 2.51 0 01-3.535 0l-1.743-1.74a2.462 2.462 0 010-3.533l1.743-1.766-3.51-3.507-23.924 23.903a2.478 2.478 0 01-3.51 0 2.505 2.505 0 010-3.532zm44.063-3.184a4.972 4.972 0 014.979 4.974V57H31.875v-2.487a4.981 4.981 0 014.979-4.974h14.937z" fill="#073BA1"/></svg><svg fill="none" viewBox="0 0 100 100" id="gun" xmlns="http://www.w3.org/2000/svg"><g clip-path="url(#ahclip0_497_9500)"><circle cx="50" cy="50" r="50" fill="#EBF2FF"/><path d="M76.667 30.357H75v-.84A2.506 2.506 0 0072.5 27a2.506 2.506 0 00-2.5 2.518v.84H24.497c-2.483 0-4.497 2.027-4.497 4.531v9.407c0 2.5 2.014 4.525 4.497 4.525 2.215 0 3.813 2.135 3.205 4.28l-4.239 16.618c-.608 2.14.991 4.281 3.206 4.281H37.48a3.337 3.337 0 003.206-2.435l2.896-10.994h9.852a5.831 5.831 0 005.535-4.016l2.55-7.734h3.761c.884 0 1.731-.353 2.357-.983L70 45.464h6.667c1.84 0 3.333-1.503 3.333-3.357v-8.393c0-1.854-1.49-3.357-3.333-3.357zM54.219 54.97a.833.833 0 01-.792.567h-8.52l1.76-6.715h9.585L54.22 54.97zM70 40.43H26.667V37.07H70v3.358z" fill="#073BA1"/></g><defs><clipPath id="ahclip0_497_9500"><path fill="#fff" d="M0 0h100v100H0z"/></clipPath></defs></svg><svg fill="none" viewBox="0 0 100 100" id="house" xmlns="http://www.w3.org/2000/svg"><g clip-path="url(#aiclip0_594_6346)"><circle cx="50" cy="50" r="50" fill="#EBF2FF"/><path d="M78.982 49.951c0 1.758-1.51 3.135-3.222 3.135h-3.222l.07 15.635c0 .273-.02.527-.05.79v1.583c0 2.158-1.803 3.906-4.028 3.906h-1.611c-.111 0-.222-.088-.333-.01-.14-.078-.282.01-.423.01h-5.69c-2.225 0-4.027-1.748-4.027-3.906V62.5c0-1.728-1.44-3.125-3.222-3.125h-6.445c-1.783 0-3.223 1.397-3.223 3.125v8.594c0 2.158-1.802 3.906-4.027 3.906h-5.63c-.15 0-.302-.01-.453-.02-.12.01-.241.02-.362.02h-1.611c-2.225 0-4.028-1.748-4.028-3.906V60.156c0-.088.003-.185.009-.273v-6.797h-3.227c-1.815 0-3.227-1.377-3.227-3.135 0-.879.302-1.66 1.008-2.344l25.818-21.824c.705-.685 1.51-.783 2.215-.783.705 0 1.511.196 2.125.685l25.709 21.922c.805.684 1.218 1.465 1.107 2.344z" fill="#073BA1"/></g><defs><clipPath id="aiclip0_594_6346"><path fill="#fff" d="M0 0h100v100H0z"/></clipPath></defs></svg><svg fill="none" viewBox="0 0 100 100" id="house2" xmlns="http://www.w3.org/2000/svg"><g clip-path="url(#ajclip0_594_7954)"><circle cx="50" cy="50" r="50" fill="#EBF2FF"/><path d="M69.663 47.953c0 1.688-1.45 3.01-3.093 3.01h-3.094l.068 15.009c0 .262-.02.506-.049.76v1.518c0 2.072-1.73 3.75-3.866 3.75h-1.547c-.107 0-.213-.084-.32-.01-.135-.074-.27.01-.405.01h-5.462c-2.137 0-3.867-1.678-3.867-3.75V60c0-1.66-1.382-3-3.093-3h-6.187c-1.711 0-3.094 1.34-3.094 3v8.25c0 2.072-1.73 3.75-3.867 3.75h-5.403c-.146 0-.29-.01-.436-.019-.116.01-.232.019-.348.019h-1.546c-2.136 0-3.867-1.678-3.867-3.75v-10.5c0-.084.003-.178.009-.263v-6.525h-3.098c-1.743 0-3.098-1.321-3.098-3.009 0-.844.29-1.594.968-2.25l24.785-20.952c.677-.657 1.45-.751 2.127-.751.676 0 1.45.188 2.04.658L68.6 45.703c.773.656 1.17 1.406 1.063 2.25z" fill="#073BA1"/><path d="M64.88 72V56l3.168-3.2 3.168 3.2v16H64.88zm7.392 0V56l3.168-3.2 3.168 3.2v16h-6.336zm7.392 0V56l3.168-3.2L86 56v16h-6.336z" fill="#073BA1"/></g><defs><clipPath id="ajclip0_594_7954"><path fill="#fff" d="M0 0h100v100H0z"/></clipPath></defs></svg><svg fill="none" viewBox="0 0 400 380" id="illustration" xmlns="http://www.w3.org/2000/svg"><circle cx="200" cy="190" r="185" fill="#EBF2FF"/><path d="M55.506 328.682c-1.563.091-2.426-1.714-1.244-2.766l.117-.435a16.06 16.06 0 00-.046-.105c-1.58-3.504-6.936-3.48-8.503.03-1.39 3.115-3.161 6.235-3.597 9.528a11.818 11.818 0 00.24 4.362c-3.26-6.62-4.974-13.848-4.974-21.118 0-1.826.108-3.652.328-5.474.18-1.49.43-2.972.752-4.439 1.744-7.933 5.52-15.488 10.967-21.799 2.619-1.331 4.803-3.412 6.121-5.906.474-.9.846-1.867 1.021-2.853-.297.036-1.123-4.185-.898-4.444-.416-.586-1.159-.877-1.612-1.449-2.256-2.844-5.364-2.348-6.986 1.517-3.466 1.627-3.5 4.325-1.373 6.92 1.353 1.651 1.539 3.884 2.726 5.652-.122.145-.25.286-.372.431a51.406 51.406 0 00-5.81 8.56c.462-3.353-.22-7.392-1.38-9.995-1.323-2.967-3.801-5.465-5.984-8.03-2.621-3.08-7.997-1.736-8.46 2.169l-.012.113c.324.17.642.351.952.542 1.77 1.088 1.158 3.639-.939 3.94l-.047.007c.117 1.086.317 2.163.61 3.221-2.8 10.07 3.245 13.738 11.876 13.903.19.091.377.182.567.268a48.714 48.714 0 00-2.09 7.019 48.548 48.548 0 00-.968 6.366 46.615 46.615 0 00.039 8.091l-.015-.095c-.62-2.962-2.35-5.729-4.86-7.647-3.741-2.857-9.026-3.91-13.062-6.207-1.942-1.106-4.431.323-4.092 2.418l.016.1a15.894 15.894 0 012.706 1.328c1.77 1.088 1.158 3.639-.939 3.94l-.047.007-.098.014a21.428 21.428 0 004.265 6.21c1.75 8.791 9.27 9.625 17.313 7.065h.005A50.364 50.364 0 0041.534 340h13.63c.05-.141.093-.286.137-.427-1.26.073-2.53.004-3.771-.209 1.01-1.154 2.022-2.317 3.033-3.471.025-.023.044-.046.064-.068.513-.591 1.03-1.177 1.544-1.768a19.688 19.688 0 00-.665-5.374v-.001z" fill="#DDD"/><path d="M390 339c0 .555-.364 1-.818 1H10.818c-.454 0-.818-.445-.818-1 0-.555.364-1 .818-1h378.364c.454 0 .818.445.818 1z" fill="#DDD"/><path d="M265.157 44.966a63.863 63.863 0 0133.261-14.483 63.961 63.961 0 0135.805 5.952 63.65 63.65 0 0126.736 24.458 63.295 63.295 0 018.994 35.03 63.322 63.322 0 01-11.664 34.239 63.697 63.697 0 01-28.54 22.344 63.971 63.971 0 01-36.158 3.2 63.821 63.821 0 01-32.048-16.98l-78.183 65.71a5.887 5.887 0 01-8.264-.702 5.836 5.836 0 01.68-8.234l.009-.007 78.183-65.71a63.29 63.29 0 01-10.9-44.567 63.421 63.421 0 0122.089-40.25zm5.04 78.49a47.773 47.773 0 0023.26 15.027 47.942 47.942 0 0027.721-.377 47.763 47.763 0 0022.839-15.654 47.407 47.407 0 004.48-52.663 47.673 47.673 0 00-19.87-19.258 47.918 47.918 0 00-27.263-5.017 47.849 47.849 0 00-25.466 10.915 47.502 47.502 0 00-16.787 32.338 47.438 47.438 0 0011.086 34.689z" fill="#042668"/><path opacity=".3" d="M337.489 129.134a47.513 47.513 0 0016.581-30.396 47.423 47.423 0 00-8.478-33.546 47.493 47.493 0 0111.655 19.124 47.4 47.4 0 01-3.085 36.274 47.584 47.584 0 01-11.623 14.506 47.81 47.81 0 01-16.31 8.971 47.933 47.933 0 01-36.419-3.073 47.724 47.724 0 01-16.965-14.661 47.845 47.845 0 0031.773 13.968 47.882 47.882 0 0032.871-11.167z" fill="#000"/><path d="M107.54 206.892a6.557 6.557 0 01-1.377-5.384 6.567 6.567 0 013.261-4.508l14.25-58.1 10.396 3.306-15.388 57.703a6.577 6.577 0 01.378 4.675 6.605 6.605 0 01-2.835 3.746 6.652 6.652 0 01-4.616.925 6.635 6.635 0 01-4.069-2.363z" fill="#FFDEC2"/><path d="M114.906 169.729l7.597 6.528 10.629 9.127 4.695-23.924.491-2.488.387-1.975-10.77-18.686-8.979.513-.613.037-.013.135-.141 1.253-1.841 16.491-.043.398-1.399 12.591z" fill="#EC3D5A"/><path d="M164.564 332.125l7.523-.001 3.58-28.905-11.104.001.001 28.905z" fill="#FFDEC2"/><path d="M162.645 339.389l24.26-.001v-.306a9.394 9.394 0 00-2.766-6.65 9.462 9.462 0 00-6.677-2.755l-14.817.001v9.711z" fill="#2F2E41"/><path d="M86.013 332.736l7.524-.001 3.58-28.905-11.105.001.001 28.905z" fill="#FFDEC2"/><path d="M84.094 340l24.26-.001v-.305a9.39 9.39 0 00-2.766-6.651 9.464 9.464 0 00-6.677-2.754H84.094V340z" fill="#2F2E41"/><path d="M150.684 179.057l-.418 3.723-27.308-2.751-.455-3.771-2.062-17.195-.116-.978-2.136-17.836-.141-1.174.282-.079.626-.172 9.114-2.5h15.446l9.45 1.981a2.476 2.476 0 011.96 2.7l-.082.729-1.258 11.29-2.902 26.033z" fill="#EC3D5A"/><path d="M100.251 324.285L80 321.229l24.547-115.527s.614-12.837 18.411-25.673l27.308 2.75 3.989 13.754v9.169l29.457 116.138-22.706 3.057-31.292-99.929-29.463 99.317z" fill="#073BA1"/><path d="M137.659 128.591c-8.324 0-15.072-6.721-15.072-15.013 0-8.291 6.748-15.013 15.072-15.013 8.325 0 15.073 6.722 15.073 15.013 0 8.292-6.748 15.013-15.073 15.013z" fill="#FFDEC2"/><path d="M121.828 176.58l29.817 3.883-.557 4.243-29.817-3.884.557-4.242z" fill="#EC3D5A"/><path d="M191.639 181.742c-.285.184-.555.39-.808.616l-29.491-7.488-2.012-7.087-11.134 1.627 2.338 12.89a4.88 4.88 0 001.49 2.713 4.913 4.913 0 002.827 1.281l34.434 3.612a6.427 6.427 0 002.602 2.806 6.465 6.465 0 007.299-.595 6.414 6.414 0 002.109-3.191 6.392 6.392 0 00-.086-3.82 6.417 6.417 0 00-2.25-3.094 6.46 6.46 0 00-7.318-.27z" fill="#FFDEC2"/><path d="M146.277 142.131l5.217-3.973c1.41-.533 3.343.981 3.682 2.445l7.364 29.952-15.342 11.002-2.148-3.362 1.227-36.064z" fill="#EC3D5A"/><path d="M116.348 156.74c1.302.515 2.629.964 3.977 1.345.429.129.871.251 1.307.367a40.649 40.649 0 008.8 1.418 27.84 27.84 0 003.842-.104 21.675 21.675 0 004.044-.795l.135-.036c2.744-.776 5.26-2.2 7.334-4.151.463-.449.895-.929 1.294-1.436a12.936 12.936 0 002.799-10.104 8.732 8.732 0 00-.209-.96 15.3 15.3 0 00-.914-2.506 15.62 15.62 0 00-.547-1.119l-6.934-2.335H128.07l-9.114 2.5-.613.037-.013.135-.282.079.141 1.174-1.841 16.491z" fill="#000"/><path d="M149.209 101.149c2.819-.345 5.912-.101 8.109 1.691 2.197 1.793 2.906 5.518.826 7.444-1.841 1.705-4.721 1.304-7.188 1.789a9.73 9.73 0 00-5.406 3.325 9.664 9.664 0 00-2.193 5.939c.036 6.219 6.029 10.929 7.105 17.055.735 4.181-1.036 8.581-4.096 11.534-3.061 2.954-7.268 4.55-11.507 4.982-4.239.432-8.526-.228-12.646-1.313-4.137-1.089-8.209-2.635-11.681-5.127-3.471-2.492-6.316-6.006-7.431-10.121-1.114-4.115-.314-8.833 2.558-11.993 3.289-3.618 8.76-4.862 11.604-8.836 3.189-4.455 2.009-10.799 4.59-15.628 1.723-3.225 4.986-5.424 8.464-6.582 3.478-1.16 7.192-1.388 10.857-1.5 1.927-.059 3.913-.079 5.708.621 1.795.7 3.373 2.294 3.466 4.212.093 1.918-1.139 2.508-1.139 2.508z" fill="#2F2E41"/><path opacity=".3" d="M286.75 49.791a47.618 47.618 0 00-14.735 11.523 49.112 49.112 0 00-9.322 16.442 50.038 50.038 0 00-2.491 18.857 49.871 49.871 0 004.72 18.402 49.489 49.489 0 006.299 9.981 47.719 47.719 0 0013.728 11.497c9.356 5.212 20.146 7.039 30.635 5.189 10.488-1.85 20.067-7.271 27.198-15.391 7.13-8.12 11.397-18.469 12.115-29.382.719-10.913-2.153-21.757-8.154-30.79-6.426-9.674-16.024-16.646-27.04-19.644-11.017-2.998-22.715-1.821-32.956 3.316h.003z" fill="#fff"/><path opacity=".3" d="M333.925 53.07l-48.976 83.408a46.615 46.615 0 0017.205 5.597l44.589-75.956a47.656 47.656 0 00-12.818-13.05zM317.612 45.96l-46.391 79.036a47.386 47.386 0 006.433 6.492l48.555-82.705a45.994 45.994 0 00-8.597-2.823z" fill="#fff"/><path fill-rule="evenodd" clip-rule="evenodd" d="M302.886 185.664c-19.401-6.643-33.713-.018-42.584 18.994l19.08 7.889c3.013-6.611 8.831-10.078 16.11-7.935 7.145 2.103 12.964 6.418 12.996 11.911.034 5.933-7.163 9.835-10.45 11.363-6.087 2.837-14.282 3.354-19.856 6.826-5.462 3.402-8.707 9.507-12.192 17.181l16.816 6.952c2.293-4.879 4.596-9.509 8.139-11.666 5.761-3.503 12.235-3.584 18.485-5.647 5.972-1.973 12.494-4.63 16.207-11.382 11.118-20.203-2.02-37.391-22.751-44.486z" fill="#073BA1"/><path d="M263.042 283.259c5.864 2.424 12.552-.292 14.94-6.067 2.388-5.774-.43-12.421-6.294-14.845-5.863-2.424-12.552.292-14.94 6.066-2.387 5.775.431 12.421 6.294 14.846z" fill="#073BA1"/><path fill-rule="evenodd" clip-rule="evenodd" d="M170.158 40.84c-14.257 4.787-19.633 15.027-16.317 30.052l14.626-3.919c-1.195-5.192.645-9.806 5.838-11.805 5.098-1.963 10.41-2.047 12.879 1.136 2.666 3.439.217 8.92-1.014 11.277-2.278 4.366-6.818 8.323-8.514 12.83-1.662 4.417-.828 9.418.567 15.44l12.89-3.454c-.842-3.864-1.567-7.586-.467-10.422 1.791-4.608 5.524-7.544 8.242-11.533 2.596-3.812 5.207-8.268 4.357-13.854-2.54-16.72-17.855-20.866-33.087-15.748z" fill="#073BA1"/><path d="M190.498 115.424c4.494-1.204 7.177-5.769 5.99-10.195-1.186-4.427-5.791-7.039-10.285-5.835-4.495 1.205-7.177 5.769-5.991 10.196 1.186 4.426 5.791 7.038 10.286 5.834z" fill="#073BA1"/><path fill-rule="evenodd" clip-rule="evenodd" d="M328.711 55.425c-14.241-4.832-24.724.056-31.19 14.018l14.009 5.745c2.196-4.854 6.456-7.409 11.798-5.852 5.244 1.527 9.521 4.68 9.556 8.707.038 4.351-5.233 7.228-7.64 8.356-4.458 2.093-10.467 2.49-14.547 5.047-3.999 2.507-6.366 6.99-8.906 12.626l12.347 5.063c1.672-3.583 3.351-6.983 5.944-8.573 4.218-2.58 8.966-2.653 13.545-4.18 4.375-1.46 9.153-3.421 11.862-8.38 8.112-14.84-1.559-27.418-16.778-32.577z" fill="#EC3D5A"/><path d="M299.695 127.08c4.305 1.766 9.205-.24 10.944-4.48 1.738-4.24-.342-9.108-4.647-10.874-4.305-1.765-9.205.24-10.944 4.48-1.739 4.24.342 9.109 4.647 10.874z" fill="#EC3D5A"/></svg><svg fill="none" viewBox="0 0 100 100" id="landplot" xmlns="http://www.w3.org/2000/svg"><g clip-path="url(#alclip0_390_3041)"><circle cx="50" cy="50" r="50" fill="#EBF2FF"/><path d="M25 72V35.333L32.5 28l7.5 7.333V72H25zm17.5 0V35.333L50 28l7.5 7.333V72h-15zM60 72V35.333L67.5 28l7.5 7.333V72H60z" fill="#073BA1"/><path d="M15 52.444h70" stroke="#073BA1" stroke-width="6"/></g><defs><clipPath id="alclip0_390_3041"><path fill="#fff" d="M0 0h100v100H0z"/></clipPath></defs></svg><svg fill="none" viewBox="0 0 64 64" id="map" xmlns="http://www.w3.org/2000/svg"><path d="M47.867 24.204a13.28 13.28 0 01-9.583-4.426 11.698 11.698 0 11-2.862-5.333 13.191 13.191 0 01.551-8.605A20.889 20.889 0 006 24.631c0 8.302 4.658 15.254 8.071 20.32l.622.925A177.1 177.1 0 0025.61 60.098l1.351 1.582 1.351-1.582c3.876-4.554 7.52-9.3 10.916-14.222l.622-.943c3.395-5.066 8.053-12 8.053-20.302a3.45 3.45 0 01-.035-.427z" fill="#073BA1"/><path d="M26.942 28.969a6.631 6.631 0 100-13.263 6.631 6.631 0 000 13.263zM48.276 19.778a8.889 8.889 0 100-17.778 8.889 8.889 0 000 17.778z" fill="#073BA1"/></svg><svg fill="none" viewBox="0 0 70 40" id="mastercard" xmlns="http://www.w3.org/2000/svg"><g filter="url(#anfilter0_d_90_109)"><g clip-path="url(#anclip0_90_109)"><rect x="5" y="4" width="60" height="30" rx="4" fill="#fff"/><rect x="5" y="4" width="60" height="30" rx="5" fill="#fff"/><path d="M26.075 29.952v-1.46c0-.559-.336-.925-.914-.925-.288 0-.602.097-.818.414-.168-.266-.41-.414-.77-.414a.772.772 0 00-.673.34v-.291h-.505v2.336h.505v-1.29c0-.414.216-.61.552-.61.336 0 .504.218.504.61v1.29h.505v-1.29c0-.414.24-.61.552-.61.336 0 .504.218.504.61v1.29h.558zm7.482-2.336h-.818v-.706h-.505v.706h-.457v.462h.457v1.071c0 .536.216.85.793.85.216 0 .457-.073.625-.17l-.146-.439a.8.8 0 01-.434.122c-.24 0-.336-.147-.336-.388v-1.046h.818v-.462h.003zm4.282-.051a.682.682 0 00-.603.34v-.292h-.504v2.336h.504v-1.316c0-.388.168-.61.482-.61.095 0 .216.026.314.05l.146-.489c-.101-.02-.244-.02-.34-.02zm-6.47.243c-.242-.17-.578-.243-.94-.243-.577 0-.96.292-.96.754 0 .388.288.61.792.68l.241.026c.264.048.41.122.41.244 0 .17-.194.292-.53.292a1.32 1.32 0 01-.77-.244l-.242.388c.264.196.625.292.987.292.672 0 1.059-.317 1.059-.754 0-.414-.314-.632-.793-.706l-.241-.025c-.216-.026-.384-.074-.384-.219 0-.17.168-.266.434-.266.289 0 .578.122.723.195l.213-.414zm13.42-.243a.682.682 0 00-.603.34v-.292h-.505v2.336h.505v-1.316c0-.388.168-.61.482-.61.095 0 .215.026.314.05l.145-.483c-.098-.025-.24-.025-.339-.025zm-6.446 1.219c0 .706.482 1.216 1.227 1.216.337 0 .578-.074.819-.267l-.241-.413a.957.957 0 01-.603.218c-.409 0-.698-.292-.698-.754 0-.44.29-.732.698-.754a.98.98 0 01.603.218l.24-.414c-.24-.196-.481-.267-.818-.267-.745-.002-1.227.51-1.227 1.217zm4.666 0v-1.168h-.505v.292a.868.868 0 00-.723-.34c-.65 0-1.154.51-1.154 1.216S41.13 30 41.78 30c.337 0 .578-.122.723-.34v.292h.505v-1.168zm-1.852 0c0-.414.263-.754.697-.754.41 0 .698.317.698.754 0 .414-.289.754-.698.754-.431-.026-.697-.343-.697-.754zm-6.036-1.22c-.673 0-1.155.488-1.155 1.217 0 .731.482 1.216 1.18 1.216.336 0 .672-.096.938-.317l-.24-.366a1.137 1.137 0 01-.673.244c-.314 0-.625-.148-.698-.559h1.707v-.195c.022-.752-.412-1.24-1.06-1.24zm0 .44c.313 0 .53.196.577.558h-1.202c.047-.314.263-.558.624-.558zm12.531.78V26.69h-.504v1.217a.868.868 0 00-.723-.34c-.65 0-1.155.51-1.155 1.216S45.775 30 46.425 30c.336 0 .577-.122.723-.34v.292h.504v-1.168zm-1.852 0c0-.414.263-.754.698-.754.409 0 .697.317.697.754 0 .414-.288.754-.697.754-.435-.026-.698-.343-.698-.754zm-16.886 0v-1.168h-.505v.292a.868.868 0 00-.723-.34c-.65 0-1.154.51-1.154 1.216S27.036 30 27.686 30c.336 0 .577-.122.723-.34v.292h.505v-1.168zm-1.875 0c0-.414.263-.754.698-.754.409 0 .697.317.697.754 0 .414-.288.754-.697.754-.435-.026-.698-.343-.698-.754z" fill="#000"/><path d="M38.778 9.874H31.2v13.773h7.578V9.874z" fill="#FF5A00"/><path d="M31.705 16.76c0-2.798 1.3-5.281 3.295-6.886A8.55 8.55 0 0029.659 8C24.873 8 21 11.918 21 16.76c0 4.843 3.873 8.76 8.659 8.76A8.55 8.55 0 0035 23.648c-1.998-1.582-3.295-4.088-3.295-6.887z" fill="#EB001B"/><path d="M49 16.76c0 4.843-3.873 8.76-8.659 8.76A8.55 8.55 0 0135 23.648a8.75 8.75 0 003.295-6.887c0-2.798-1.3-5.281-3.295-6.886A8.536 8.536 0 0140.338 8C45.128 8 49 11.944 49 16.76z" fill="#F79E1B"/></g><rect x="4.5" y="3.5" width="61" height="31" rx="4.5" stroke="#E8EEF3"/></g><defs><clipPath id="anclip0_90_109"><rect x="5" y="4" width="60" height="30" rx="4" fill="#fff"/></clipPath><filter id="anfilter0_d_90_109" x="0" y="0" width="70" height="40" filterUnits="userSpaceOnUse" color-interpolation-filters="sRGB"><feFlood flood-opacity="0" result="BackgroundImageFix"/><feColorMatrix in="SourceAlpha" values="0 0 0 0 0 0 0 0 0 0 0 0 0 0 0 0 0 0 127 0" result="hardAlpha"/><feOffset dy="1"/><feGaussianBlur stdDeviation="2"/><feComposite in2="hardAlpha" operator="out"/><feColorMatrix values="0 0 0 0 0.027451 0 0 0 0 0.231373 0 0 0 0 0.631373 0 0 0 0.1 0"/><feBlend in2="BackgroundImageFix" result="effect1_dropShadow_90_109"/><feBlend in="SourceGraphic" in2="effect1_dropShadow_90_109" result="shape"/></filter></defs></svg><svg fill="none" viewBox="0 0 70 40" id="mir" xmlns="http://www.w3.org/2000/svg"><g filter="url(#aofilter0_d_90_112)"><g clip-path="url(#aoclip0_90_112)"><rect x="5" y="4" width="60" height="30" rx="4" fill="#fff"/><rect x="5" y="4" width="60" height="30" rx="5" fill="#fff"/><path fill-rule="evenodd" clip-rule="evenodd" d="M19.467 13.518c.37-.002 1.468-.1 1.933 1.459.313 1.05.812 2.77 1.497 5.16h.28c.734-2.52 1.238-4.24 1.513-5.16.47-1.575 1.645-1.459 2.115-1.459h3.626v11.2h-3.696v-6.6h-.248l-2.06 6.6h-2.78l-2.06-6.605h-.249v6.605h-3.696v-11.2h3.825zm16.271 0v6.606h.295l2.506-5.432c.487-1.08 1.524-1.174 1.524-1.174h3.576v11.2h-3.773v-6.605h-.295l-2.457 5.432c-.486 1.076-1.572 1.173-1.572 1.173h-3.577v-11.2h3.773zm20.943 5.323c-.527 1.48-2.18 2.541-4.01 2.541h-3.956v3.336h-3.588v-5.877H56.68z" fill="#0F754E"/><path fill-rule="evenodd" clip-rule="evenodd" d="M52.845 13.518h-7.906c.188 2.494 2.35 4.628 4.59 4.628h7.4c.428-2.072-1.042-4.628-4.084-4.628z" fill="url(#aopaint0_linear_90_112)"/></g><rect x="4.5" y="3.5" width="61" height="31" rx="4.5" stroke="#E8EEF3"/></g><defs><linearGradient id="aopaint0_linear_90_112" x1="57.002" y1="16.429" x2="44.939" y2="16.429" gradientUnits="userSpaceOnUse"><stop stop-color="#1F5CD7"/><stop offset="1" stop-color="#02AEFF"/></linearGradient><clipPath id="aoclip0_90_112"><rect x="5" y="4" width="60" height="30" rx="4" fill="#fff"/></clipPath><filter id="aofilter0_d_90_112" x="0" y="0" width="70" height="40" filterUnits="userSpaceOnUse" color-interpolation-filters="sRGB"><feFlood flood-opacity="0" result="BackgroundImageFix"/><feColorMatrix in="SourceAlpha" values="0 0 0 0 0 0 0 0 0 0 0 0 0 0 0 0 0 0 127 0" result="hardAlpha"/><feOffset dy="1"/><feGaussianBlur stdDeviation="2"/><feComposite in2="hardAlpha" operator="out"/><feColorMatrix values="0 0 0 0 0.027451 0 0 0 0 0.231373 0 0 0 0 0.631373 0 0 0 0.1 0"/><feBlend in2="BackgroundImageFix" result="effect1_dropShadow_90_112"/><feBlend in="SourceGraphic" in2="effect1_dropShadow_90_112" result="shape"/></filter></defs></svg><svg fill="none" viewBox="0 0 64 64" id="notary" xmlns="http://www.w3.org/2000/svg"><path d="M28.64 45.44c0 4.545 1.803 8.667 4.735 11.69-2.172.41-4.509.63-6.975.63C13.43 57.76 4 52.01 4 43.682V42.08a6.72 6.72 0 016.72-6.72H32a16.724 16.724 0 00-3.36 10.08zM26.4 4a13.44 13.44 0 110 26.88A13.44 13.44 0 0126.4 4zm16.462 32.3a8.96 8.96 0 0110.418 4.241V38.72a1.12 1.12 0 012.24 0v4.48a1.12 1.12 0 01-1.12 1.12h-4.48a1.12 1.12 0 010-2.24h1.628a6.715 6.715 0 00-10.859-1.951 1.12 1.12 0 01-1.584-1.584 8.958 8.958 0 013.757-2.246v.002zm5.156 18.28A8.96 8.96 0 0137.6 50.338v1.823a1.12 1.12 0 11-2.24 0v-4.48a1.12 1.12 0 011.12-1.12h4.48a1.12 1.12 0 010 2.24h-1.629a6.716 6.716 0 0010.86 1.951 1.12 1.12 0 011.584 1.584 8.96 8.96 0 01-3.757 2.247v-.005z" fill="#073BA1"/></svg><svg fill="none" viewBox="0 0 100 100" id="passcode" xmlns="http://www.w3.org/2000/svg"><g clip-path="url(#aqclip0_349_2433)"><circle cx="50" cy="50" r="50" fill="#EBF2FF"/><circle cx="12.5" cy="15.5" r="2.5" fill="#EC3D5A"/><path d="M70.75 63.8v-4.9c0-2.706-2.35-4.9-5.25-4.9s-5.25 2.194-5.25 4.9v4.9M59.8 75h11.4c1.68 0 2.52 0 3.162-.305a2.908 2.908 0 001.311-1.224C76 72.872 76 72.088 76 70.52v-2.24c0-1.568 0-2.352-.327-2.951a2.908 2.908 0 00-1.311-1.224C73.72 63.8 72.88 63.8 71.2 63.8H59.8c-1.68 0-2.52 0-3.162.305a2.908 2.908 0 00-1.311 1.224C55 65.928 55 66.712 55 68.28v2.24c0 1.568 0 2.352.327 2.951.288.527.747.955 1.311 1.224C57.28 75 58.12 75 59.8 75z" stroke="#EC3D5A" stroke-width="3.5" stroke-linecap="round" stroke-linejoin="round"/><path d="M79 47.875V40c0-3.15 0-4.725-.654-5.929a5.826 5.826 0 00-2.622-2.458C74.44 31 72.76 31 69.4 31H28.6c-3.36 0-5.04 0-6.324.613a5.826 5.826 0 00-2.622 2.458C19 35.275 19 36.85 19 40v10.125c0 3.15 0 4.725.654 5.929a5.826 5.826 0 002.622 2.458c1.284.613 2.964.613 6.324.613H46m3-14.063h.015m14.985 0h.015m-30.015 0h.015m15.735 0c0 .389-.336.704-.75.704s-.75-.315-.75-.703c0-.389.336-.704.75-.704s.75.315.75.703zm15 0c0 .389-.336.704-.75.704s-.75-.315-.75-.703c0-.389.336-.704.75-.704s.75.315.75.703zm-30 0c0 .389-.336.704-.75.704s-.75-.315-.75-.703c0-.389.336-.704.75-.704s.75.315.75.703z" stroke="#073BA1" stroke-width="3.5" stroke-linecap="round" stroke-linejoin="round"/></g><defs><clipPath id="aqclip0_349_2433"><path fill="#fff" d="M0 0h100v100H0z"/></clipPath></defs></svg><svg fill="none" viewBox="0 0 40 40" id="phone" xmlns="http://www.w3.org/2000/svg"><g clip-path="url(#arclip0_356_1432)"><rect width="40" height="40" rx="8" fill="#EBF2FF"/><path d="M18.313 21.68a11.94 11.94 0 004.346 2.872l2.214-1.8a.388.388 0 01.447 0l4.11 2.706c.157.095.289.227.387.384a1.217 1.217 0 01-.192 1.523l-1.927 1.943a2.338 2.338 0 01-.987.594 2.301 2.301 0 01-1.145.047 20.47 20.47 0 01-10.071-5.397 20.388 20.388 0 01-5.445-10.093 2.312 2.312 0 01.05-1.151c.113-.373.318-.71.596-.978l1.997-1.967a1.173 1.173 0 01.962-.357c.176.019.346.078.497.173.15.095.278.223.373.376l2.737 4.144a.383.383 0 010 .45l-1.803 2.213a11.86 11.86 0 002.854 4.317z" fill="#073BA1"/></g><defs><clipPath id="arclip0_356_1432"><path fill="#fff" d="M0 0h40v40H0z"/></clipPath></defs></svg><svg fill="none" viewBox="0 0 320 340" id="pict-phone-2" xmlns="http://www.w3.org/2000/svg"><g clip-path="url(#asclip0_633_10275)"><ellipse cx="146.372" cy="154.18" rx="146.372" ry="145" fill="#EBF2FF"/><path d="M232.3 300.053c.192.294.464.527.779.667.316.139.659.179.985.113.325-.066.616-.234.833-.481a1.58 1.58 0 00.383-.903l.286-.349a4.354 4.354 0 012.575.218 4.835 4.835 0 012.109 1.649c.539.742.86 1.618.92 2.516a4.387 4.387 0 01-.58 2.524c-2.434 4.239-4.647 9.056-9.387 10.838 18.931-2.918 34.529-17.687 39.009-36.589-.574-3.929.389-8.134 3.003-10.92.565 1.743 2.91 2.744 3.545.675.203-.845.4-1.692.603-2.538 9.224 1.561 5.379 14.03-6.11 13.269a51.15 51.15 0 01-3.751 10.274 20.277 20.277 0 018.959-4.712c3.189-.656 6.666-.099 10.026.178 4.09.334 6.083 5.616 3.054 8.221-2.032-1.554-4.902.107-3.643 2.648-6.446 3.709-14.987 3.453-21.77-.462a48.434 48.434 0 01-15.774 14.991c7.671-3.94 15.053 2.837 21.793 6.442a2.81 2.81 0 011.171.961c.298.424.474.92.507 1.427a2.543 2.543 0 01-.321 1.429 2.346 2.346 0 01-1.046.967 15.702 15.702 0 00-2.653-1.425 2.21 2.21 0 00-1.347-.115 2.037 2.037 0 00-1.116.698c-.285.35-.452.788-.477 1.256-.025.467.092.94.336 1.354-8.503 1.834-18.055-2.315-23.36-9.8a50.63 50.63 0 01-10.669 2.945l-7.91-11.082c.086-.122.179-.243.269-.361a16.543 16.543 0 002.359 2.945c1.063-4.86 1.095-8.053 6.409-9.468h.001z" fill="#F1F6FB"/><path d="M270.153 63.115l-82.79-47.52c-12.877-7.392-29.587-2.583-37.324 10.74L36.361 222.08c-7.737 13.323-3.57 30.115 9.306 37.506l82.79 47.521c12.876 7.391 29.587 2.582 37.324-10.741l113.678-195.744c7.737-13.323 3.571-30.115-9.306-37.506z" fill="#042668"/><path d="M277.274 99.37L163.598 295.111c-3.373 5.793-8.829 10.072-15.171 11.897-6.342 1.825-13.053 1.048-18.659-2.161l-82.79-47.521c-5.598-3.222-9.63-8.611-11.211-14.984-1.581-6.373-.582-13.209 2.778-19.01L152.22 27.59c3.373-5.793 8.829-10.071 15.171-11.896 6.342-1.825 13.053-1.048 18.659 2.161l10.826 6.214-2.247 3.87c-1.017 1.751-1.32 3.817-.842 5.743a7.187 7.187 0 003.39 4.526l48.37 27.763c1.693.972 3.721 1.208 5.637.657a7.823 7.823 0 004.582-3.597l2.247-3.87 10.826 6.214c5.599 3.223 9.631 8.612 11.212 14.984 1.581 6.373.582 13.21-2.778 19.01zM134.708 51.366a1.79 1.79 0 01-.843-1.126 1.927 1.927 0 01.209-1.429l1.908-3.286a1.946 1.946 0 011.14-.895 1.806 1.806 0 011.402.164c.422.242.725.647.844 1.126.119.479.043.993-.21 1.428l-1.908 3.286a1.952 1.952 0 01-1.14.894 1.809 1.809 0 01-1.402-.162zM124.922 68.217a1.786 1.786 0 01-.842-1.126 1.93 1.93 0 01.208-1.429l5.253-9.045a1.946 1.946 0 011.14-.895 1.81 1.81 0 011.403.163c.421.242.724.647.843 1.126.119.479.043.993-.21 1.429l-5.253 9.045a1.946 1.946 0 01-1.14.894 1.809 1.809 0 01-1.402-.162zM117.055 81.763a1.793 1.793 0 01-.842-1.126 1.926 1.926 0 01.209-1.429l5.253-9.045a1.946 1.946 0 011.14-.895 1.807 1.807 0 011.402.163c.421.242.724.647.843 1.126.119.479.044.993-.209 1.428l-5.253 9.046a1.952 1.952 0 01-1.14.894 1.811 1.811 0 01-1.403-.162zM251.563 149.111a1.79 1.79 0 01-.843-1.126 1.937 1.937 0 01.209-1.429l12.818-22.071a1.945 1.945 0 011.14-.895 1.81 1.81 0 011.402.163c.421.242.725.647.844 1.126.118.479.043.993-.21 1.429l-12.818 22.071a1.943 1.943 0 01-1.14.894 1.81 1.81 0 01-1.402-.162z" fill="#073BA1"/><path d="M227.793 48.849l-12.307-7.064a1.118 1.118 0 01-.527-.704c-.075-.3-.027-.62.131-.893.158-.272.414-.474.712-.56a1.13 1.13 0 01.877.103l12.306 7.064c.264.15.453.404.527.703.075.3.028.621-.131.893a1.215 1.215 0 01-.712.56c-.298.085-.613.049-.876-.102zM234.264 52.289c.439.251 1.008.088 1.271-.366.264-.454.122-1.026-.317-1.277-.438-.252-1.007-.088-1.271.365-.263.454-.121 1.026.317 1.278z" fill="#fff"/><path d="M186.525 31.035l-10.719-6.152a2.232 2.232 0 01-1.054-1.407 2.404 2.404 0 01.262-1.787 2.43 2.43 0 011.424-1.118 2.259 2.259 0 011.753.204l10.719 6.153c.527.302.906.808 1.054 1.407a2.404 2.404 0 01-.262 1.786 2.43 2.43 0 01-1.424 1.118 2.259 2.259 0 01-1.753-.204z" fill="#073BA1"/><path d="M256.912 71.163c.986.567 2.267.198 2.859-.823.593-1.02.274-2.307-.713-2.874-.986-.566-2.267-.197-2.859.823-.593 1.021-.274 2.308.713 2.874zM262.108 74.146c.987.566 2.267.198 2.86-.823.593-1.02.274-2.307-.713-2.874-.986-.566-2.267-.198-2.86.823s-.273 2.308.713 2.874zM267.305 77.129c.987.566 2.267.198 2.86-.823.593-1.02.274-2.307-.713-2.874-.987-.566-2.267-.198-2.86.823s-.274 2.308.713 2.874z" fill="#5776D2"/><rect width="131.056" height="231.196" rx="5" transform="matrix(.86715 .49804 -.50241 .86463 159.369 28.578)" fill="#EBF2FF"/><path d="M225.095 137.472l-80.429-46.223a5.552 5.552 0 01-2.61-3.492 5.981 5.981 0 01.65-4.428l6.52-11.215a6.043 6.043 0 013.536-2.77 5.61 5.61 0 014.346.506l80.429 46.223a5.551 5.551 0 012.61 3.491 5.985 5.985 0 01-.649 4.428l-6.521 11.216a6.041 6.041 0 01-3.536 2.769 5.607 5.607 0 01-4.346-.505z" fill="#B2C6FA"/><path d="M201.989 107.357l-23.698-13.62a1.198 1.198 0 01-.563-.751 1.289 1.289 0 01.141-.955 1.3 1.3 0 01.761-.597c.319-.091.656-.052.937.11l23.698 13.619c.281.162.483.432.562.752.08.32.029.663-.14.954a1.297 1.297 0 01-.762.597 1.206 1.206 0 01-.936-.109zM221.274 126.489l-46.755-26.87a1.191 1.191 0 01-.563-.753c-.08-.32-.029-.663.14-.954a1.3 1.3 0 01.762-.597c.318-.091.655-.052.936.11l46.755 26.87c.281.161.484.432.563.752a1.3 1.3 0 01-.902 1.551 1.206 1.206 0 01-.936-.109zM160.309 95.776c3.926 2.256 9.022.793 11.384-3.27 2.361-4.06 1.093-9.182-2.832-11.438-3.926-2.256-9.022-.792-11.384 3.27-2.361 4.061-1.093 9.183 2.832 11.439z" fill="#C9EAFF"/><path d="M205.325 171.495l-80.43-46.223a5.555 5.555 0 01-2.61-3.491 5.981 5.981 0 01.65-4.428l6.521-11.216a6.036 6.036 0 013.535-2.769 5.607 5.607 0 014.346.505l80.429 46.223a5.547 5.547 0 012.61 3.492 5.98 5.98 0 01-.649 4.428l-6.521 11.215a6.04 6.04 0 01-3.535 2.77 5.61 5.61 0 01-4.346-.506z" fill="#B2C6FA"/><path d="M182.218 141.38l-23.698-13.619a1.194 1.194 0 01-.562-.752c-.08-.32-.029-.663.14-.954.169-.291.443-.506.762-.597.318-.092.655-.052.936.109l23.698 13.619c.281.162.483.432.563.752a1.305 1.305 0 01-.902 1.552 1.208 1.208 0 01-.937-.11zM201.503 160.512l-46.755-26.87a1.195 1.195 0 01-.563-.752 1.3 1.3 0 01.902-1.551c.318-.092.655-.052.936.109l46.755 26.87c.282.162.484.432.563.752a1.302 1.302 0 01-.902 1.552 1.206 1.206 0 01-.936-.11zM140.538 129.8c3.926 2.256 9.023.792 11.384-3.27 2.362-4.061 1.094-9.183-2.832-11.439-3.925-2.256-9.022-.792-11.383 3.27-2.362 4.061-1.094 9.183 2.831 11.439z" fill="#C9EAFF"/><path d="M185.554 205.52l-80.429-46.223a5.547 5.547 0 01-2.61-3.492 5.98 5.98 0 01.649-4.428l6.521-11.216a6.04 6.04 0 013.535-2.769 5.61 5.61 0 014.346.506l80.429 46.223a5.548 5.548 0 012.61 3.491 5.98 5.98 0 01-.649 4.428l-6.521 11.216a6.04 6.04 0 01-3.535 2.769 5.606 5.606 0 01-4.346-.505z" fill="#B2C6FA"/><path d="M162.448 175.405l-23.698-13.62a1.193 1.193 0 01-.563-.752 1.3 1.3 0 01.902-1.551c.318-.091.655-.052.936.11l23.698 13.619c.281.161.484.432.563.752.079.32.029.663-.141.954a1.297 1.297 0 01-.761.597 1.206 1.206 0 01-.936-.109zM181.732 194.537l-46.755-26.871a1.193 1.193 0 01-.563-.752 1.289 1.289 0 01.141-.954c.169-.291.443-.506.761-.597a1.21 1.21 0 01.937.11l46.755 26.87c.281.161.483.432.563.752.079.32.028.663-.141.954a1.297 1.297 0 01-.761.597 1.212 1.212 0 01-.937-.109zM120.768 163.824c3.925 2.256 9.022.792 11.383-3.269 2.362-4.062 1.094-9.183-2.832-11.439-3.925-2.256-9.022-.793-11.383 3.269-2.362 4.062-1.094 9.183 2.832 11.439z" fill="#C9EAFF"/><path d="M165.783 239.544l-80.43-46.222a5.552 5.552 0 01-2.61-3.492 5.982 5.982 0 01.65-4.428l6.521-11.216a6.039 6.039 0 013.535-2.769 5.611 5.611 0 014.346.506l80.429 46.222a5.55 5.55 0 012.61 3.492 5.98 5.98 0 01-.649 4.428l-6.521 11.216a6.04 6.04 0 01-3.535 2.769 5.602 5.602 0 01-4.346-.506z" fill="#B2C6FA"/><path d="M142.677 209.429l-23.698-13.619a1.193 1.193 0 01-.563-.752 1.288 1.288 0 01.14-.954c.169-.291.443-.506.762-.597.318-.091.655-.052.936.11l23.698 13.619c.281.161.484.432.563.752.079.32.029.663-.141.954a1.297 1.297 0 01-.761.597 1.206 1.206 0 01-.936-.11zM161.961 228.561l-46.755-26.87a1.193 1.193 0 01-.563-.752 1.289 1.289 0 01.141-.954c.169-.291.443-.506.761-.597.318-.092.655-.052.937.109l46.755 26.871c.281.161.483.432.563.752a1.301 1.301 0 01-.902 1.551 1.208 1.208 0 01-.937-.11zM100.997 197.849c3.925 2.256 9.022.792 11.383-3.269 2.362-4.062 1.094-9.184-2.832-11.44-3.925-2.256-9.022-.792-11.383 3.27-2.362 4.062-1.094 9.183 2.832 11.439z" fill="#C9EAFF"/><rect width="103.908" height="18.457" rx="9.228" transform="matrix(.86715 .49804 -.50241 .86463 69.708 208.965)" fill="#C9EAFF"/><path d="M86.316 273.661c-1.073-4.392 1.6-8.961 5.969-10.204 4.37-1.244 8.782 1.308 9.856 5.7 1.073 4.393-1.599 8.962-5.97 10.205-4.37 1.244-8.782-1.308-9.855-5.701z" fill="#042668"/><path d="M89.535 272.45c-.624-2.553.93-5.209 3.47-5.931 2.539-.723 5.103.76 5.727 3.313.624 2.553-.93 5.208-3.469 5.931-2.54.723-5.104-.761-5.728-3.313z" fill="#DEFFFF"/><rect width="39.317" height="5.828" rx="2.914" transform="matrix(.86715 .49804 -.50241 .86463 46.78 237.245)" fill="#5B96DA"/><rect width="39.317" height="5.828" rx="2.914" transform="matrix(.86715 .49804 -.50241 .86463 113.354 275.458)" fill="#5B96DA"/></g><defs><clipPath id="asclip0_633_10275"><path fill="#fff" d="M0 0h320v340H0z"/></clipPath></defs></svg><svg fill="none" viewBox="0 0 340 320" id="pict_phone" xmlns="http://www.w3.org/2000/svg"><g clip-path="url(#atclip0_492_5903)"><circle cx="170" cy="160" r="150" fill="#EBF2FF"/><path d="M266.424 287.468a1.7 1.7 0 00.733.628c.297.132.62.169.926.107.306-.062.58-.221.785-.453.205-.233.33-.53.36-.85l.269-.329a4.106 4.106 0 012.423.206 4.536 4.536 0 011.983 1.552 4.56 4.56 0 01.867 2.368 4.133 4.133 0 01-.547 2.375c-2.289 3.99-4.371 8.523-8.831 10.201 17.811-2.747 32.486-16.647 36.7-34.437-.539-3.698.366-7.656 2.826-10.277.532 1.64 2.738 2.582 3.335.635.191-.796.376-1.593.567-2.389 8.678 1.469 5.061 13.205-5.748 12.488a48.178 48.178 0 01-3.529 9.67 19.067 19.067 0 018.429-4.434c3-.618 6.271-.094 9.432.167 3.848.314 5.724 5.285 2.874 7.737-1.912-1.463-4.612.101-3.428 2.492-6.065 3.492-14.1 3.25-20.481-.434a45.584 45.584 0 01-14.841 14.109c7.218-3.708 14.162 2.67 20.504 6.063a2.64 2.64 0 011.101.904c.28.399.446.866.477 1.343.031.478-.074.945-.302 1.345-.228.401-.57.717-.984.91a14.865 14.865 0 00-2.496-1.341 2.076 2.076 0 00-1.268-.108 1.923 1.923 0 00-1.05.657 2.041 2.041 0 00-.448 1.182c-.024.439.087.885.316 1.274-8 1.727-16.987-2.179-21.978-9.223a47.581 47.581 0 01-10.037 2.771l-7.442-10.43c.081-.114.169-.228.253-.339a15.533 15.533 0 002.22 2.771c.999-4.573 1.029-7.579 6.03-8.911z" fill="#F1F6FB"/><path d="M235.926 30.44l-88.629-15.627c-13.785-2.43-26.996 7.151-29.509 21.401L80.87 245.584c-2.512 14.25 6.625 27.773 20.41 30.203l88.629 15.628c13.784 2.43 26.996-7.151 29.509-21.402l36.917-209.369c2.513-14.25-6.625-27.773-20.409-30.203z" fill="#042668"/><path d="M253.998 60.234l-36.917 209.368c-1.101 6.199-4.534 11.723-9.549 15.359-5.014 3.637-11.198 5.089-17.197 4.039l-88.628-15.628c-5.997-1.064-11.312-4.545-14.78-9.677s-4.805-11.497-3.719-17.698l36.917-209.368c1.101-6.2 4.534-11.723 9.549-15.36 5.014-3.636 11.199-5.088 17.197-4.038l11.59 2.044-.73 4.138a7.3 7.3 0 001.121 5.349 6.827 6.827 0 004.467 2.921l51.781 9.13a6.826 6.826 0 005.197-1.217 7.299 7.299 0 002.883-4.642l.73-4.139 11.589 2.044c5.997 1.064 11.312 4.544 14.78 9.676 3.468 5.133 4.805 11.498 3.719 17.7zM112.365 63.242c-.45-.08-.85-.342-1.111-.728a1.819 1.819 0 01-.279-1.33l.62-3.514c.082-.467.34-.882.717-1.155a1.699 1.699 0 011.293-.303c.45.08.85.34 1.111.726.261.386.361.865.279 1.331l-.62 3.515c-.083.466-.341.88-.718 1.154a1.698 1.698 0 01-1.292.303zM109.187 81.265a1.7 1.7 0 01-1.111-.727 1.818 1.818 0 01-.279-1.33l1.706-9.675c.082-.466.34-.882.717-1.155a1.699 1.699 0 011.293-.303c.451.08.85.341 1.111.727.261.386.361.864.279 1.33l-1.706 9.675a1.818 1.818 0 01-.718 1.155 1.698 1.698 0 01-1.292.303zM106.632 95.753c-.45-.08-.85-.341-1.11-.727a1.82 1.82 0 01-.28-1.33l1.706-9.675c.082-.466.34-.881.717-1.155a1.698 1.698 0 011.293-.303c.451.08.851.341 1.111.727.261.386.361.864.279 1.33l-1.706 9.676c-.082.466-.34.88-.717 1.154a1.702 1.702 0 01-1.293.303zM247.424 112.425a1.7 1.7 0 01-1.111-.727 1.819 1.819 0 01-.279-1.33l4.162-23.608c.083-.466.34-.881.717-1.154a1.698 1.698 0 011.293-.303c.451.08.851.34 1.111.726.261.386.361.865.279 1.33l-4.162 23.609a1.82 1.82 0 01-.718 1.154 1.7 1.7 0 01-1.292.303z" fill="#073BA1"/><path d="M193.842 31.332l-13.175-2.323a1.062 1.062 0 01-.695-.455 1.136 1.136 0 01-.174-.831c.051-.291.213-.551.448-.722.236-.17.526-.239.808-.19l13.175 2.324c.282.05.532.213.694.454a1.14 1.14 0 01-.273 1.553c-.236.171-.527.24-.808.19zM200.68 32.31c.47.083.92-.243 1.005-.728.086-.486-.225-.946-.695-1.029-.469-.083-.919.244-1.005.729-.085.485.226.946.695 1.029z" fill="#fff"/><path d="M151.571 28.737l-11.474-2.023a2.124 2.124 0 01-1.39-.909 2.272 2.272 0 01-.348-1.663 2.27 2.27 0 01.896-1.444 2.123 2.123 0 011.616-.378l11.475 2.023c.564.1 1.063.426 1.389.909.326.482.451 1.08.349 1.663a2.268 2.268 0 01-.897 1.443 2.122 2.122 0 01-1.616.379z" fill="#073BA1"/><path d="M226.833 41.782c1.057.186 2.069-.548 2.261-1.64.193-1.092-.507-2.128-1.563-2.315-1.057-.186-2.069.548-2.262 1.64-.192 1.092.508 2.128 1.564 2.315zM232.397 42.762c1.056.186 2.068-.548 2.261-1.64.192-1.092-.508-2.128-1.564-2.314-1.056-.186-2.069.548-2.261 1.64-.193 1.092.507 2.128 1.564 2.314zM237.96 43.743c1.056.187 2.068-.547 2.261-1.64.192-1.091-.508-2.127-1.564-2.314-1.056-.186-2.069.548-2.261 1.64-.193 1.092.508 2.128 1.564 2.314z" fill="#5776D2"/><rect width="123.556" height="217.141" rx="5" transform="rotate(10.015 -137.612 740.975) skewX(.001)" fill="#EBF2FF"/><path d="M220.244 110.571l-86.12-15.232a5.27 5.27 0 01-3.442-2.256 5.634 5.634 0 01-.864-4.123l2.122-12a5.632 5.632 0 012.226-3.576 5.268 5.268 0 014.006-.938l86.12 15.232a5.27 5.27 0 013.442 2.256 5.634 5.634 0 01.864 4.123l-2.122 11.999a5.634 5.634 0 01-2.226 3.577 5.268 5.268 0 01-4.006.938z" fill="#B2C6FA"/><path d="M190.034 91.305l-25.375-4.488a1.13 1.13 0 01-.741-.485 1.213 1.213 0 01-.186-.889c.055-.311.227-.589.479-.771.252-.182.562-.255.863-.202l25.375 4.488c.301.054.568.228.742.486.174.258.241.578.186.889a1.212 1.212 0 01-.48.77 1.132 1.132 0 01-.863.202zM213.298 102.076l-50.064-8.855a1.135 1.135 0 01-.742-.486 1.212 1.212 0 01-.185-.888c.055-.311.227-.589.479-.771.252-.183.562-.255.863-.202l50.064 8.855c.301.053.568.228.742.486.173.257.24.577.185.888a1.208 1.208 0 01-.479.771 1.132 1.132 0 01-.863.202zM149.424 94.355c4.204.743 8.234-2.177 9.002-6.522.769-4.345-2.016-8.47-6.219-9.214-4.203-.743-8.234 2.177-9.002 6.522-.768 4.345 2.016 8.47 6.219 9.214z" fill="#C9EAFF"/><path d="M213.817 146.967l-86.12-15.233a5.27 5.27 0 01-3.442-2.256 5.633 5.633 0 01-.864-4.123l2.122-11.999a5.629 5.629 0 012.226-3.576 5.268 5.268 0 014.006-.939l86.12 15.233a5.269 5.269 0 013.442 2.256 5.632 5.632 0 01.864 4.123l-2.122 11.999a5.631 5.631 0 01-2.226 3.576 5.268 5.268 0 01-4.006.939z" fill="#B2C6FA"/><path d="M183.607 127.701l-25.375-4.488a1.133 1.133 0 01-.742-.486 1.211 1.211 0 01-.185-.888c.055-.312.227-.589.479-.771.252-.183.562-.255.863-.202l25.375 4.488c.301.053.568.228.742.486.174.257.24.577.185.888a1.21 1.21 0 01-.479.771 1.132 1.132 0 01-.863.202zM206.87 138.472l-50.063-8.855a1.137 1.137 0 01-.742-.486 1.213 1.213 0 01-.186-.889c.055-.311.228-.588.48-.771a1.13 1.13 0 01.863-.201l50.063 8.855c.301.053.568.228.742.485.174.258.241.578.186.889a1.213 1.213 0 01-.479.771 1.139 1.139 0 01-.864.202zM142.997 130.75c4.203.744 8.234-2.176 9.002-6.521.768-4.346-2.016-8.471-6.219-9.214-4.204-.744-8.234 2.176-9.002 6.521-.769 4.346 2.016 8.471 6.219 9.214z" fill="#C9EAFF"/><path d="M207.39 183.363l-86.12-15.232a5.27 5.27 0 01-3.442-2.256 5.634 5.634 0 01-.864-4.123l2.122-11.999a5.634 5.634 0 012.226-3.577 5.268 5.268 0 014.006-.938l86.12 15.232a5.273 5.273 0 013.442 2.256 5.634 5.634 0 01.864 4.123l-2.122 11.999a5.634 5.634 0 01-2.226 3.577 5.268 5.268 0 01-4.006.938z" fill="#B2C6FA"/><path d="M177.18 164.097l-25.375-4.488a1.135 1.135 0 01-.742-.485 1.214 1.214 0 01-.185-.889 1.21 1.21 0 01.479-.771c.252-.182.562-.255.863-.202l25.375 4.488c.301.054.568.228.742.486.174.258.24.577.185.889a1.213 1.213 0 01-.479.771 1.131 1.131 0 01-.863.201zM200.443 174.868l-50.063-8.855a1.133 1.133 0 01-.742-.486 1.21 1.21 0 01-.186-.888c.055-.311.228-.589.48-.771a1.13 1.13 0 01.863-.202l50.063 8.855c.301.053.568.228.742.486.174.257.241.577.186.888a1.208 1.208 0 01-.479.771 1.134 1.134 0 01-.864.202zM136.57 167.147c4.203.743 8.234-2.177 9.002-6.522.768-4.345-2.016-8.47-6.219-9.214-4.204-.743-8.234 2.176-9.002 6.522-.769 4.345 2.016 8.47 6.219 9.214z" fill="#C9EAFF"/><path d="M200.963 219.76l-86.121-15.232a5.27 5.27 0 01-3.441-2.256 5.634 5.634 0 01-.864-4.123l2.122-11.999a5.636 5.636 0 012.225-3.577 5.271 5.271 0 014.007-.938l86.12 15.232a5.273 5.273 0 013.442 2.256 5.634 5.634 0 01.864 4.123l-2.122 11.999a5.638 5.638 0 01-2.226 3.577 5.268 5.268 0 01-4.006.938z" fill="#B2C6FA"/><path d="M170.753 200.494l-25.375-4.488a1.135 1.135 0 01-.742-.485 1.214 1.214 0 01-.186-.889c.055-.311.228-.589.48-.771.251-.182.562-.255.863-.202l25.375 4.488c.301.054.568.228.741.486.174.258.241.577.186.889a1.213 1.213 0 01-.479.771 1.131 1.131 0 01-.863.201zM194.016 211.265l-50.063-8.855a1.133 1.133 0 01-.742-.486 1.21 1.21 0 01-.186-.888c.055-.311.228-.589.479-.771.252-.183.563-.255.864-.202l50.063 8.855c.301.053.568.228.742.486.174.257.241.577.186.888a1.212 1.212 0 01-.479.771 1.134 1.134 0 01-.864.202zM130.143 203.544c4.203.743 8.233-2.177 9.002-6.522.768-4.345-2.016-8.471-6.219-9.214-4.204-.743-8.234 2.176-9.002 6.522-.769 4.345 2.016 8.47 6.219 9.214z" fill="#C9EAFF"/><rect width="97.962" height="17.335" rx="8.667" transform="rotate(10.015 -1221.467 717.065) skewX(.001)" fill="#C9EAFF"/><path d="M141.79 275.274c-2.376-3.542-1.497-8.435 1.962-10.928 3.459-2.494 8.189-1.644 10.565 1.899 2.376 3.542 1.497 8.435-1.962 10.928a7.412 7.412 0 01-10.565-1.899z" fill="#042668"/><path d="M144.242 273.176c-1.381-2.059-.87-4.903 1.14-6.352a4.31 4.31 0 016.141 1.104c1.38 2.059.87 4.903-1.141 6.352a4.308 4.308 0 01-6.14-1.104z" fill="#DEFFFF"/><rect width="37.067" height="5.474" rx="2.737" transform="rotate(10.015 -1411.448 669.972) skewX(.001)" fill="#5B96DA"/><rect width="37.067" height="5.474" rx="2.737" transform="rotate(10.015 -1447.531 1082.942) skewX(.001)" fill="#5B96DA"/></g><defs><clipPath id="atclip0_492_5903"><path fill="#fff" d="M0 0h340v320H0z"/></clipPath></defs></svg><svg fill="none" viewBox="0 0 64 64" id="process" xmlns="http://www.w3.org/2000/svg"><path d="M23 22.667H11A2.667 2.667 0 018.333 20V8a2.667 2.667 0 015.334 0v9.334H23a2.666 2.666 0 110 5.333z" fill="#073BA1"/><path d="M56 34.667A2.667 2.667 0 0153.333 32a21.32 21.32 0 00-39.786-10.664 2.666 2.666 0 11-4.616-2.672A26.653 26.653 0 0158.667 32 2.667 2.667 0 0156 34.667zm-3 24A2.667 2.667 0 0150.333 56v-9.333H41a2.667 2.667 0 110-5.334h12A2.666 2.666 0 0155.667 44v12A2.667 2.667 0 0153 58.667z" fill="#073BA1"/><path d="M32 58.667A26.698 26.698 0 015.333 32a2.667 2.667 0 115.334 0 21.32 21.32 0 0039.786 10.664 2.666 2.666 0 114.616 2.672A26.752 26.752 0 0132 58.666z" fill="#073BA1"/></svg><svg fill="none" viewBox="0 0 40 40" id="quote" xmlns="http://www.w3.org/2000/svg"><path d="M10.833 16.667c-.371 0-.728.056-1.083.108.115-.387.233-.78.423-1.133.19-.514.487-.959.782-1.407.247-.485.682-.813 1.002-1.228.335-.404.791-.672 1.153-1.007.355-.35.82-.525 1.19-.772.387-.221.723-.466 1.083-.583l.899-.37.79-.328-.809-3.23-.995.24c-.318.08-.706.173-1.148.285-.452.083-.933.311-1.47.52-.53.236-1.143.396-1.713.776-.574.364-1.235.667-1.819 1.154-.565.501-1.246.936-1.75 1.575-.55.596-1.093 1.223-1.515 1.936-.488.68-.82 1.427-1.17 2.165a18.467 18.467 0 00-.78 2.227 20.119 20.119 0 00-.64 4.062 20.76 20.76 0 00.047 2.911c.025.34.072.67.105.899l.042.28.043-.01a7.5 7.5 0 107.333-9.07zm18.334 0c-.372 0-.729.056-1.084.108.115-.387.234-.78.424-1.133.19-.514.486-.959.781-1.407.247-.485.682-.813 1.002-1.228.335-.404.792-.672 1.153-1.007.355-.35.82-.525 1.19-.772.387-.221.724-.466 1.084-.583l.898-.37.79-.328-.808-3.23-.995.24c-.319.08-.707.173-1.149.285-.451.083-.933.311-1.47.52-.528.238-1.143.396-1.713.778-.573.363-1.235.667-1.818 1.153-.565.502-1.247.937-1.75 1.574-.55.596-1.094 1.223-1.515 1.936-.489.68-.82 1.427-1.17 2.165a18.457 18.457 0 00-.78 2.227 20.117 20.117 0 00-.64 4.062 20.756 20.756 0 00.046 2.911c.025.34.072.67.105.899l.042.28.043-.01a7.501 7.501 0 107.334-9.07z" fill="#073BA1"/></svg><svg fill="none" viewBox="0 0 40 40" id="rhomb" xmlns="http://www.w3.org/2000/svg"><g clip-path="url(#awclip0_342_2985)"><path d="M17.858 12.186a3 3 0 014.284 0l2.808 2.864 2.864 2.808a3 3 0 010 4.284L24.95 24.95l-2.808 2.864a3 3 0 01-4.284 0L15.05 24.95l-2.864-2.808a3 3 0 010-4.284l2.864-2.808 2.808-2.864z" fill="#EC3D5A"/><path d="M29.542 10.45h0l.007.008 6.458 6.328a4.5 4.5 0 010 6.428l-6.457 6.328h0l-.008.007-6.328 6.458a4.5 4.5 0 01-6.428 0l-6.328-6.457h0l-.008-.008-6.457-6.328a4.5 4.5 0 010-6.428l6.457-6.328h0l.008-.008 6.328-6.457a4.5 4.5 0 016.428 0l6.328 6.457z" stroke="#EC3D5A"/></g><defs><clipPath id="awclip0_342_2985"><path fill="#fff" d="M0 0h40v40H0z"/></clipPath></defs></svg><svg fill="none" viewBox="0 0 100 100" id="service" xmlns="http://www.w3.org/2000/svg"><g clip-path="url(#axclip0_349_2403)"><circle cx="50" cy="50" r="50" fill="#EBF2FF"/><path d="M79 63v-4h-4.202a9.921 9.921 0 00-1.464-3.506l2.98-2.98-2.828-2.828-2.98 2.98A9.921 9.921 0 0067 51.202V47h-4v4.202a9.921 9.921 0 00-3.506 1.464l-2.98-2.98-2.828 2.828 2.98 2.98A9.921 9.921 0 0055.202 59H51v4h4.202a9.923 9.923 0 001.464 3.506l-2.98 2.98 2.828 2.828 2.98-2.98A9.921 9.921 0 0063 70.798V75h4v-4.202a9.921 9.921 0 003.506-1.464l2.98 2.98 2.828-2.828-2.98-2.98A9.921 9.921 0 0074.798 63H79zm-14 4c-3.308 0-6-2.692-6-6s2.692-6 6-6 6 2.692 6 6-2.692 6-6 6z" fill="#EC3D5A"/><path d="M32 71.071a1 1 0 01-1-1V24.93a1 1 0 011-1h30a1 1 0 011 1v14.678a2 2 0 104 0V23.93C67 21.762 65.206 20 63 20H31c-2.206 0-4 1.762-4 3.929V71.07C27 73.238 28.794 75 31 75h14.036a1.964 1.964 0 100-3.929H32z" fill="#073BA1"/><rect x="43" y="28" width="8" height="4" rx="2" fill="#073BA1"/></g><defs><clipPath id="axclip0_349_2403"><path fill="#fff" d="M0 0h100v100H0z"/></clipPath></defs></svg><svg fill="none" viewBox="0 0 64 64" id="signature" xmlns="http://www.w3.org/2000/svg"><path d="M39.167 44.669c3.403 0 4.73 1.546 5.736 4.973l.177.629c.476 1.742.76 2.265 1.335 2.506.674.284 1.12.244 1.828-.127l.383-.218c.138-.084.286-.183.458-.297l1.725-1.196c1.602-1.074 3.043-1.785 4.794-2.23a1.92 1.92 0 011.462.238c.437.272.752.708.877 1.215a2.024 2.024 0 01-.213 1.494c-.26.45-.684.778-1.179.912-1.054.273-2.06.711-2.981 1.3l-.776.503-1.248.87c-.486.348-.992.664-1.517.947-1.673.876-3.304 1.024-5.099.266-1.94-.812-2.72-2.067-3.452-4.563l-.406-1.44c-.47-1.562-.793-1.804-1.904-1.804-.806 0-1.639.412-2.78 1.388l-.48.427-2.396 2.32C29.85 56.296 26.724 58 22.252 58c-4.386 0-8.179-.674-11.363-2.04l7.667-2.132c1.162.127 2.396.193 3.696.193 3.078 0 5.287-1.1 8.031-3.615l.671-.634 1.384-1.353a31.292 31.292 0 011.54-1.432c1.78-1.52 3.395-2.318 5.289-2.318zM50.301 8.78a9.588 9.588 0 012.725 6.71c0 2.518-.98 4.931-2.725 6.711l-.749.77c2.994 3.713 2.888 7.655.102 10.503l-5.206 5.305a1.933 1.933 0 01-1.38.582c-.518 0-1.014-.21-1.38-.584a2.01 2.01 0 01-.57-1.408c0-.528.206-1.034.572-1.407l5.2-5.3c1.263-1.291 1.405-2.89-.103-4.877L24.37 48.647a5.829 5.829 0 01-2.602 1.539l-13.306 3.7a1.914 1.914 0 01-1.013.002 1.942 1.942 0 01-.878-.516 1.999 1.999 0 01-.506-.896 2.027 2.027 0 01.004-1.033l3.626-13.57a5.996 5.996 0 011.509-2.65L37.138 8.781a9.298 9.298 0 013.02-2.058 9.153 9.153 0 017.126 0 9.299 9.299 0 013.02 2.058H50.3z" fill="#073BA1"/></svg><svg fill="none" viewBox="0 0 100 100" id="stocks" xmlns="http://www.w3.org/2000/svg"><g clip-path="url(#azclip0_390_3150)"><circle cx="50" cy="50" r="50" fill="#EBF2FF"/><path d="M49.5 22v13.894c0 1.579.616 3.093 1.713 4.21a5.798 5.798 0 004.137 1.744H69v29.773c0 1.579-.616 3.093-1.713 4.21a5.798 5.798 0 01-4.137 1.744h-27.3a5.798 5.798 0 01-4.137-1.744A6.009 6.009 0 0130 71.621V27.955c0-1.58.616-3.094 1.713-4.211A5.798 5.798 0 0135.85 22H49.5zm3.9.992v12.902c0 .526.205 1.031.571 1.403.366.373.862.582 1.379.582h12.675L53.4 22.992z" fill="#073BA1"/><path fill-rule="evenodd" clip-rule="evenodd" d="M60.571 47.397H36.416v2.049h24.155v-2.049zm0 5.464H36.416v2.049h24.155v-2.05zm-24.155 5.463h24.155v2.05H36.416v-2.05zm24.155 5.464H36.416v2.049h24.155v-2.049z" fill="#fff"/></g><defs><clipPath id="azclip0_390_3150"><path fill="#fff" d="M0 0h100v100H0z"/></clipPath></defs></svg><svg fill="none" viewBox="0 0 100 100" id="success" xmlns="http://www.w3.org/2000/svg"><g clip-path="url(#baclip0_349_2440)"><circle cx="50" cy="50" r="50" fill="#EBF2FF"/><path d="M78 47.44v2.576a28 28 0 11-16.604-25.592" stroke="#073BA1" stroke-width="3.5" stroke-linecap="round" stroke-linejoin="round"/><path d="M78 27.6L50 55.628l-8.4-8.4" stroke="#EC3D5A" stroke-width="3.5" stroke-linecap="round" stroke-linejoin="round"/></g><defs><clipPath id="baclip0_349_2440"><path fill="#fff" d="M0 0h100v100H0z"/></clipPath></defs></svg><svg fill="none" viewBox="0 0 24 24" id="time" xmlns="http://www.w3.org/2000/svg"><path d="M21.817 9.697h-5.846c-.1 0-.183.083-.183.184v1.105c0 .101.082.184.183.184h5.846c.1 0 .183-.083.183-.184V9.881a.184.184 0 00-.183-.184zm-3.06 3.13h-2.786c-.1 0-.183.084-.183.185v1.105c0 .101.082.184.183.184h2.786c.1 0 .183-.083.183-.184v-1.105a.184.184 0 00-.183-.184zm-7.62-5.19h-.99a.256.256 0 00-.255.258v5.709c0 .082.038.158.105.207l3.4 2.5c.114.082.274.06.356-.056l.587-.808v-.002a.259.259 0 00-.057-.359l-2.893-2.109V7.895a.254.254 0 00-.254-.258z" fill="#073BA1"/><path d="M18.735 15.726h-1.32a.375.375 0 00-.317.177c-.29.463-.628.891-1.017 1.283a7.242 7.242 0 01-2.313 1.572 7.188 7.188 0 01-2.832.575 7.17 7.17 0 01-2.832-.575 7.242 7.242 0 01-2.313-1.572A7.328 7.328 0 013.661 12a7.336 7.336 0 014.443-6.76 7.178 7.178 0 012.832-.575 7.17 7.17 0 012.832.576 7.24 7.24 0 012.313 1.572c.389.391.727.82 1.017 1.282.068.11.19.177.317.177h1.32a.21.21 0 00.187-.306c-1.489-2.986-4.508-4.926-7.878-4.965C6.108 2.939 2.009 7.01 2 11.98 1.99 16.96 5.994 21 10.934 21c3.414 0 6.484-1.948 7.988-4.968a.211.211 0 00-.187-.306z" fill="#042668"/></svg><svg fill="none" viewBox="0 0 70 40" id="visa" xmlns="http://www.w3.org/2000/svg"><g filter="url(#bcfilter0_d_90_104)"><g clip-path="url(#bcclip0_90_104)"><rect x="5" y="4" width="60" height="30" rx="4" fill="#fff"/><rect x="5" y="4" width="60" height="30" rx="5" fill="#fff"/><path d="M32.067 25.798h-3.565l2.23-13.552h3.564l-2.23 13.552zM44.988 12.577A8.916 8.916 0 0041.79 12c-3.52 0-5.999 1.845-6.014 4.484-.03 1.946 1.775 3.027 3.124 3.676 1.379.663 1.847 1.096 1.847 1.688-.014.907-1.114 1.326-2.14 1.326-1.423 0-2.185-.216-3.344-.72l-.47-.218-.498 3.043c.836.374 2.376.706 3.975.721 3.74 0 6.175-1.817 6.203-4.628.015-1.543-.938-2.725-2.991-3.691-1.247-.62-2.01-1.038-2.01-1.673.014-.577.645-1.167 2.052-1.167a6.146 6.146 0 012.656.519l.322.144.485-2.927zM49.725 20.997l1.423-3.792c-.015.029.293-.793.469-1.297l.249 1.167s.675 3.244.821 3.922h-2.962zm4.4-8.751h-2.758c-.85 0-1.496.245-1.862 1.124L44.21 25.798h3.74l.748-2.033h4.577c.102.476.425 2.033.425 2.033H57l-2.876-13.552zM25.525 12.246l-3.49 9.241-.382-1.874c-.645-2.163-2.669-4.513-4.928-5.68l3.198 11.85h3.769l5.602-13.537h-3.769z" fill="#00579F"/><path d="M18.793 12.246H13.06l-.059.273c4.473 1.125 7.436 3.836 8.653 7.094l-1.246-6.228c-.206-.866-.836-1.11-1.614-1.14z" fill="#FAA61A"/></g><rect x="4.5" y="3.5" width="61" height="31" rx="4.5" stroke="#E8EEF3"/></g><defs><clipPath id="bcclip0_90_104"><rect x="5" y="4" width="60" height="30" rx="4" fill="#fff"/></clipPath><filter id="bcfilter0_d_90_104" x="0" y="0" width="70" height="40" filterUnits="userSpaceOnUse" color-interpolation-filters="sRGB"><feFlood flood-opacity="0" result="BackgroundImageFix"/><feColorMatrix in="SourceAlpha" values="0 0 0 0 0 0 0 0 0 0 0 0 0 0 0 0 0 0 127 0" result="hardAlpha"/><feOffset dy="1"/><feGaussianBlur stdDeviation="2"/><feComposite in2="hardAlpha" operator="out"/><feColorMatrix values="0 0 0 0 0.027451 0 0 0 0 0.231373 0 0 0 0 0.631373 0 0 0 0.1 0"/><feBlend in2="BackgroundImageFix" result="effect1_dropShadow_90_104"/><feBlend in="SourceGraphic" in2="effect1_dropShadow_90_104" result="shape"/></filter></defs></svg><svg fill="none" viewBox="0 0 100 100" id="warehouse" xmlns="http://www.w3.org/2000/svg"><g clip-path="url(#bdclip0_594_7968)"><circle cx="50" cy="50" r="50" fill="#EBF2FF"/><path d="M64.95 57.874H35.083a.655.655 0 00-.65.657l-.009 3.937c0 .361.293.657.65.657H64.95c.358 0 .65-.296.65-.657v-3.937a.655.655 0 00-.65-.657zm0 7.876H35.058a.655.655 0 00-.65.656l-.008 3.938c0 .36.293.656.65.656h29.9c.358 0 .65-.295.65-.656v-3.938a.655.655 0 00-.65-.656zm0-15.751H35.099a.655.655 0 00-.65.656l-.008 3.938c0 .36.292.656.65.656H64.95c.358 0 .65-.295.65-.656v-3.938a.655.655 0 00-.65-.656zm8.653-11.403l-22.108-9.294a3.879 3.879 0 00-2.998 0l-22.1 9.294A3.948 3.948 0 0024 42.23v28.114c0 .36.293.656.65.656h6.5c.358 0 .65-.295.65-.656V49.999c0-1.444 1.186-2.625 2.649-2.625H65.55c1.463 0 2.649 1.181 2.649 2.625v20.345c0 .36.293.656.65.656h6.5c.358 0 .65-.295.65-.656V42.23c0-1.591-.95-3.019-2.397-3.634z" fill="#073BA1"/></g><defs><clipPath id="bdclip0_594_7968"><path fill="#fff" d="M0 0h100v100H0z"/></clipPath></defs></svg></svg>