<svg width="32" height="32" fill="none" xmlns="http://www.w3.org/2000/svg"><path d="M12 17.333a5.623 5.623 0 00-2.16 1.907 1.37 1.37 0 000 1.52A5.623 5.623 0 0012 22.667m8.28-5.334a5.623 5.623 0 012.16 1.907 1.37 1.37 0 010 1.52 5.623 5.623 0 01-2.16 1.907" stroke="#FEDC5A" stroke-width="2" stroke-linecap="round" stroke-linejoin="round"/><path d="M12 29.333h8c6.667 0 9.333-2.666 9.333-9.333v-8c0-6.667-2.666-9.333-9.333-9.333h-8c-6.667 0-9.333 2.666-9.333 9.333v8c0 6.667 2.666 9.333 9.333 9.333zM2.973 10.68l25.627-.013" stroke="#FEDC5A" stroke-width="2" stroke-linecap="round" stroke-linejoin="round"/></svg>