<svg width="200" height="220" viewBox="0 0 200 220" fill="none" xmlns="http://www.w3.org/2000/svg">
<path d="M172.172 47.8278C159.381 35.0369 143.084 26.3261 125.343 22.7971C107.601 19.2681 89.2117 21.0793 72.4995 28.0017C55.7873 34.9241 41.5031 46.6468 31.4533 61.6874C21.4035 76.728 16.0394 94.411 16.0394 112.5C16.0394 130.589 21.4035 148.272 31.4533 163.313C41.5031 178.353 55.7873 190.076 72.4995 196.999C89.2117 203.921 107.601 205.732 125.343 202.203C143.084 198.674 159.381 189.963 172.172 177.172L139.295 144.296C133.007 150.584 124.995 154.867 116.272 156.602C107.55 158.337 98.5087 157.446 90.2923 154.043C82.0759 150.64 75.0532 144.876 70.1123 137.482C65.1714 130.087 62.5342 121.393 62.5342 112.5C62.5342 103.607 65.1714 94.9131 70.1123 87.5186C75.0532 80.124 82.0759 74.3607 90.2923 70.9573C98.5087 67.554 107.55 66.6635 116.272 68.3985C124.995 70.1335 133.007 74.4161 139.295 80.7046L172.172 47.8278Z" fill="url(#paint0_linear_1_662)"/>
<path d="M127.697 185.849C139.992 182.554 151.294 176.302 160.619 167.637C169.944 158.973 177.007 148.158 181.193 136.137C185.38 124.117 186.562 111.254 184.637 98.6717C182.712 86.0892 177.738 74.1686 170.149 63.9492L164.884 67.8595C171.835 77.2199 176.391 88.1386 178.154 99.6636C179.917 111.189 178.834 122.97 175 133.98C171.165 144.991 164.695 154.896 156.154 162.833C147.614 170.769 137.261 176.496 125.999 179.514L127.697 185.849Z" fill="url(#paint1_linear_1_662)"/>
<circle cx="57.5" cy="193.5" r="11.5" fill="#612B1C"/>
<path d="M47.0017 201.794C48.3051 200.514 49.2999 199.531 49.9859 198.845C51.3122 197.495 52.1012 196.409 52.3527 195.586C52.4899 195.151 52.6386 194.294 52.7986 193.013C53.1417 190.338 53.9763 189 55.3026 189C56.6518 189 57.3264 189.697 57.3264 191.092C57.3264 192.716 56.183 194.74 53.8963 197.164C50.6948 200.571 48.6024 202.275 47.6191 202.275C47.1846 202.275 46.9788 202.115 47.0017 201.794ZM54.9253 201.794C55.6114 201.154 56.6061 200.194 57.9096 198.913C59.1901 197.633 59.9791 196.523 60.2764 195.586C60.4364 195.06 60.5965 194.191 60.7566 192.979C61.0996 190.326 61.9228 189 63.2263 189C64.6441 189 65.353 189.697 65.353 191.092C65.353 192.693 64.1982 194.717 61.8885 197.164C58.6871 200.571 56.6061 202.275 55.6457 202.275C55.1883 202.275 54.9482 202.115 54.9253 201.794Z" fill="#FFF06A"/>
<defs>
<linearGradient id="paint0_linear_1_662" x1="42.8276" y1="47.8278" x2="172.172" y2="177.172" gradientUnits="userSpaceOnUse">
<stop stop-color="#FFC500"/>
<stop offset="1" stop-color="#FF9346"/>
</linearGradient>
<linearGradient id="paint1_linear_1_662" x1="182.875" y1="90.276" x2="32.1238" y2="130.67" gradientUnits="userSpaceOnUse">
<stop stop-color="#FFC500"/>
<stop offset="1" stop-color="#FF9346"/>
</linearGradient>
</defs>
</svg>
