<?xml version="1.0" encoding="utf-8"?><svg viewBox="0 0 120 120" xmlns="http://www.w3.org/2000/svg" xmlns:xlink="http://www.w3.org/1999/xlink"><style>:root>svg{display:none}:root>svg:target{display:block}</style><svg fill="none" viewBox="0 0 19 18" id="backet" xmlns="http://www.w3.org/2000/svg"><path d="M.8.216c-.44 0-.8.386-.8.857 0 .472.36.858.8.858h1.775l2.1 9.004c.178.763.816 1.287 1.55 1.287H15.4c.722 0 1.334-.513 1.525-1.26L19 2.789H5.6L6 4.504h10.925L15.4 10.507H6.225l-2.1-9.005a1.715 1.715 0 00-.567-.93 1.519 1.519 0 00-.982-.356H.8zm13.6 12.006c-1.316 0-2.4 1.162-2.4 2.572 0 1.41 1.084 2.573 2.4 2.573 1.316 0 2.4-1.162 2.4-2.573 0-1.41-1.084-2.572-2.4-2.572zm-7.2 0c-1.316 0-2.4 1.162-2.4 2.572 0 1.41 1.084 2.573 2.4 2.573 1.316 0 2.4-1.162 2.4-2.573 0-1.41-1.084-2.572-2.4-2.572zm0 1.715c.45 0 .8.375.8.857 0 .483-.35.858-.8.858-.45 0-.8-.376-.8-.858 0-.483.35-.857.8-.857zm7.2 0c.45 0 .8.375.8.857 0 .483-.35.858-.8.858-.45 0-.8-.376-.8-.858 0-.483.35-.857.8-.857z" fill="#fff"/></svg><svg fill="none" viewBox="0 0 30 33" id="calendar" xmlns="http://www.w3.org/2000/svg"><path d="M20.625 13.302c0-.267.099-.522.275-.71a.907.907 0 01.663-.295h1.875c.248 0 .487.106.662.294.176.189.275.444.275.71v2.01c0 .267-.099.523-.275.711a.907.907 0 01-.663.295h-1.875a.907.907 0 01-.662-.295 1.043 1.043 0 01-.275-.71v-2.01zm-5.625 0c0-.267.099-.522.275-.71a.907.907 0 01.662-.295h1.876c.248 0 .487.106.662.294.176.189.275.444.275.71v2.01c0 .267-.099.523-.275.711a.907.907 0 01-.663.295h-1.875a.907.907 0 01-.662-.295 1.043 1.043 0 01-.275-.71v-2.01zm-9.375 6.03c0-.267.099-.523.275-.711a.907.907 0 01.662-.294h1.875c.25 0 .488.105.663.294.176.188.275.444.275.71v2.01c0 .267-.099.522-.275.711a.907.907 0 01-.662.294H6.562a.907.907 0 01-.662-.294 1.043 1.043 0 01-.275-.71v-2.01zm5.625 0c0-.267.099-.523.275-.711a.907.907 0 01.662-.294h1.876c.248 0 .487.105.662.294.176.188.275.444.275.71v2.01c0 .267-.099.522-.275.711a.907.907 0 01-.662.294h-1.876a.907.907 0 01-.662-.294 1.043 1.043 0 01-.275-.71v-2.01z" fill="#2186FA"/><path d="M6.563.237c.248 0 .487.106.662.295.176.188.275.444.275.71v1.005h15V1.242c0-.266.099-.522.275-.71a.907.907 0 01.663-.295c.248 0 .487.106.662.295.176.188.275.444.275.71v1.005h1.875c.995 0 1.948.424 2.652 1.178A4.171 4.171 0 0130 6.267v22.109a4.17 4.17 0 01-1.098 2.842 3.627 3.627 0 01-2.652 1.178H3.75a3.627 3.627 0 01-2.652-1.178A4.171 4.171 0 010 28.376V6.267c0-1.066.395-2.089 1.098-2.842A3.627 3.627 0 013.75 2.247h1.875V1.242c0-.266.099-.522.275-.71a.907.907 0 01.662-.295zm-4.688 8.04v20.099c0 .533.198 1.044.55 1.421.35.377.828.589 1.325.589h22.5c.497 0 .974-.212 1.326-.589.351-.377.549-.888.549-1.421v-20.1H1.875z" fill="#2186FA"/></svg><svg fill="none" viewBox="0 0 120 120" id="card" xmlns="http://www.w3.org/2000/svg"><circle cx="60" cy="60" r="55" fill="#fff" stroke="#E5F1FF" stroke-width="10"/><path fill-rule="evenodd" clip-rule="evenodd" d="M43.5 37.5A1.5 1.5 0 0042 39v46.5a1.5 1.5 0 001.5 1.5h33a1.5 1.5 0 001.5-1.5V39a1.5 1.5 0 00-1.5-1.5h-8.374v-3H76.5A4.5 4.5 0 0181 39v46.5a4.5 4.5 0 01-4.5 4.5h-33a4.5 4.5 0 01-4.5-4.5V39a4.5 4.5 0 014.5-4.5h8.374v3H43.5z" fill="#2186FA"/><path fill-rule="evenodd" clip-rule="evenodd" d="M49.5 34.5A4.5 4.5 0 0154 30h12a4.5 4.5 0 014.5 4.5v3A4.5 4.5 0 0166 42H54a4.5 4.5 0 01-4.5-4.5v-3zM54 33a1.5 1.5 0 00-1.5 1.5v3A1.5 1.5 0 0054 39h12a1.5 1.5 0 001.5-1.5v-3A1.5 1.5 0 0066 33H54zm-7.5 22.5A1.5 1.5 0 0148 54h10.5a1.5 1.5 0 110 3H48a1.5 1.5 0 01-1.5-1.5zm0-7.5a1.5 1.5 0 011.5-1.5h23.25a1.5 1.5 0 110 3H48a1.5 1.5 0 01-1.5-1.5zm3 19.5v3h3v-3h-3zm-1.5-3a1.5 1.5 0 00-1.5 1.5v6a1.5 1.5 0 001.5 1.5h6a1.5 1.5 0 001.5-1.5v-6a1.5 1.5 0 00-1.5-1.5h-6zm18 3a1.5 1.5 0 10.137-2.997A1.5 1.5 0 0066 67.5zm0 3a4.5 4.5 0 100-9 4.5 4.5 0 000 9zm-6 6.42c.026-.03.054-.06.083-.088.245-.24.72-.558 1.464-.875C63.047 75.32 64.897 75 66 75c1.103 0 2.954.32 4.454.957.744.315 1.218.635 1.464.875.028.027.056.056.082.087V79.5H60v-2.58zM66 72c-3.005 0-9 1.599-9 4.773V82.5h18v-5.727C75 73.599 69.004 72 66 72z" fill="#2186FA"/></svg><svg fill="none" viewBox="0 0 120 120" id="care" xmlns="http://www.w3.org/2000/svg"><circle cx="60" cy="60" r="55" fill="#fff" stroke="#E5F1FF" stroke-width="10"/><path d="M76.65 77.725c-.693.702-1.382 1.4-2.028 2.287v1.655H65v-1.655c.163-1.288.995-3.61 1.02-4.255.033-.907 1.31-2.562 1.31-2.562l3.913-4.713s1.107-1.117 1.742-2.357c.633-1.24 1.983.32 2.162 1.435.178 1.117-.162 1.703-.162 1.703l-2.237 4.245s2.592-3.391 3.397-4.754c.408-.69.522-2.154.65-3.787.123-1.593.26-3.349.693-4.713.879-2.767 3.42-2.074 3.862-.839.44 1.237.34 9.404.18 10.764-.125 1.066-.797 2.11-1.557 3.284-.21.327-.426.662-.64 1.012-.85 1.392-1.771 2.325-2.683 3.25zM66.667 90A1.667 1.667 0 0165 88.334V85a1.667 1.667 0 011.667-1.666h6.666A1.667 1.667 0 0175 85v3.334A1.667 1.667 0 0173.333 90h-6.666zM41.595 77.725c.695.702 1.385 1.4 2.033 2.287v1.655h9.705v-1.655c-.163-1.288-.45-3.61-.475-4.255-.035-.907-1.315-2.562-1.315-2.562l-3.925-4.713s-1.111-1.117-1.748-2.357c-.635-1.24-1.988.32-2.168 1.435-.18 1.117.161 1.703.161 1.703l2.244 4.245s-2.6-3.391-3.409-4.754c-.408-.69-.523-2.154-.65-3.787-.125-1.593-.261-3.349-.696-4.713-.882-2.767-3.434-2.074-3.875-.839-.442 1.237-.94 9.404-.78 10.764.126 1.066.8 2.11 1.563 3.284.21.327.428.662.642 1.012.853 1.392 1.778 2.325 2.693 3.25zM51.667 90a1.666 1.666 0 001.666-1.666V85a1.667 1.667 0 00-1.666-1.666H45A1.667 1.667 0 0043.333 85v3.334A1.667 1.667 0 0045 90h6.667zM45 48.678c0-5.366 3.363-10.344 7.968-10.344 3.197 0 5.567 2.233 7.032 5.4 1.463-3.167 3.835-5.4 7.032-5.4 4.605 0 7.968 4.978 7.968 10.344 0 11.489-15 19.656-15 19.656S45 60.66 45 48.678z" fill="#2186FA"/></svg><svg fill="none" viewBox="0 0 120 120" id="center" xmlns="http://www.w3.org/2000/svg"><circle cx="60" cy="60" r="55" fill="#fff" stroke="#E5F1FF" stroke-width="10"/><path fill-rule="evenodd" clip-rule="evenodd" d="M59.219 36.274a1.25 1.25 0 011.562 0L79.188 51H82.5v7.5h-45V51h3.313l18.404-14.725h.002zm2.031 5.975v2.5h2.5v2.5h-2.5v2.5h-2.5v-2.5h-2.5v-2.5h2.5v-2.5h2.5zM60 61a5 5 0 00-5 5v10h-7.5v-5H45V61h-5v10h-2.5v5H35v7.5h50V76h-2.5v-5H80V61h-5v10h-2.5v5H65V66a5 5 0 00-5-5zm0 2.5a2.5 2.5 0 012.5 2.5v10h-5V66a2.5 2.5 0 012.5-2.5z" fill="#2186FA"/></svg><svg fill="none" viewBox="0 0 40 42" id="doc" xmlns="http://www.w3.org/2000/svg"><path fill-rule="evenodd" clip-rule="evenodd" d="M30.927 9.698c0 3.845-.956 8.861-2.426 8.1a8.89 8.89 0 01-17.345-1.711c-1.46-2.552-3.373-7.667 1.546-11.654.09-.028.143-.268.223-.622.304-1.336.978-4.308 5.233-3.74 3.28.437 12.769 2.131 12.769 9.628v-.001zm-4.23 2.424s-.501 1.47-.03 3.106a6.667 6.667 0 01-13.33.219c.162-.611.162-1.646.16-2.796 0-2.074-.002-4.522.947-5.52 6.655 4.432 12.254 4.991 12.254 4.991z" fill="#2186FA"/><path d="M7.778 34.353a3.33 3.33 0 011.592-2.842c-.036-.138-.07-.277-.102-.416-.169-.76-.3-1.526-.395-2.298a21.813 21.813 0 01-.172-2.23C4.011 28.41 0 31.618 0 34.988v6.033h40v-6.033c0-3.227-3.678-6.306-8.109-8.178v.031a17.95 17.95 0 01-.091 2.203 20.136 20.136 0 01-.284 1.977h.706a1.11 1.11 0 01.994.614l1.11 2.223c.078.154.118.324.118.496v2.223a1.111 1.111 0 01-1.11 1.11H31.11v-2.221h1.111v-.85l-.686-1.373h-3.072l-.686 1.374v.849h1.11v2.222h-2.221a1.111 1.111 0 01-1.111-1.111v-2.223c0-.172.04-.342.117-.496l1.111-2.223a1.111 1.111 0 01.994-.614h1.46c.025-.096.05-.201.074-.318.111-.523.21-1.186.277-1.872.067-.687.098-1.368.081-1.928a5.765 5.765 0 00-.054-.693c-.025-.158-.05-.23-.054-.246 0-.003-.002-.004 0-.002h.004a24.115 24.115 0 00-1.788-.482c-.56-.128-1.137.641-1.39 1.122H13.334a10.568 10.568 0 01-.095-.186c-.236-.47-.526-1.048-1.016-.936-.428.097-.855.208-1.283.33-.014.195-.02.39-.018.585.005.615.063 1.367.158 2.127.094.758.222 1.496.355 2.078.038.168.076.319.112.449a3.333 3.333 0 11-3.768 3.305z" fill="#2186FA"/><path d="M12.222 34.353a1.12 1.12 0 01-1.11 1.128A1.12 1.12 0 0110 34.353a1.12 1.12 0 011.111-1.127 1.12 1.12 0 011.111 1.127z" fill="#2186FA"/></svg><svg fill="none" viewBox="0 0 15 15" id="dot" xmlns="http://www.w3.org/2000/svg"><path d="M3.214 7.5L7.5 3.214 11.786 7.5 7.5 11.786 3.214 7.5z" fill="#2186FA"/><path d="M14.673 6.71L8.29.327a1.117 1.117 0 00-1.579 0L.326 6.711a1.117 1.117 0 000 1.578l6.385 6.385a1.117 1.117 0 001.578 0l6.385-6.385a1.117 1.117 0 000-1.578h-.001zM7.5 13.949L1.053 7.5 7.5 1.052 13.948 7.5 7.5 13.948z" fill="#2186FA"/></svg><svg fill="none" viewBox="0 0 24 18" id="eye" xmlns="http://www.w3.org/2000/svg"><path d="M15.273 8.72a4.045 4.045 0 01-1.065 2.756 3.517 3.517 0 01-2.572 1.142c-.964 0-1.889-.411-2.57-1.142A4.045 4.045 0 018 8.72c0-1.034.383-2.026 1.065-2.757a3.517 3.517 0 012.571-1.141c.965 0 1.89.41 2.572 1.141a4.045 4.045 0 011.065 2.757z" fill="#2186FA"/><path d="M0 8.72S4.364.144 11.636.144c7.273 0 11.637 8.576 11.637 8.576s-4.364 8.575-11.637 8.575C4.364 17.295 0 8.72 0 8.72zm11.636 5.457c1.35 0 2.645-.575 3.6-1.599.955-1.023 1.491-2.411 1.491-3.858 0-1.448-.536-2.836-1.49-3.86-.956-1.023-2.25-1.598-3.6-1.598s-2.646.575-3.6 1.599C7.082 5.884 6.545 7.272 6.545 8.72c0 1.447.537 2.835 1.492 3.858.954 1.024 2.25 1.599 3.6 1.599z" fill="#2186FA"/></svg><svg fill="none" viewBox="0 0 36 51" id="five" xmlns="http://www.w3.org/2000/svg"><path d="M10.92 27.817l-9.16-2.153L4.768.234h29.087V9.19H14.167l-1.128 9.878c.547-.319 1.47-.695 2.769-1.128 1.321-.455 2.78-.683 4.375-.683 2.46 0 4.637.376 6.528 1.128 1.914.729 3.532 1.811 4.854 3.247 1.321 1.413 2.312 3.156 2.973 5.23.684 2.073 1.026 4.443 1.026 7.109 0 2.142-.354 4.215-1.06 6.22a15.514 15.514 0 01-3.179 5.367c-1.413 1.572-3.201 2.825-5.366 3.76-2.165.91-4.728 1.367-7.69 1.367-2.21 0-4.364-.342-6.46-1.026-2.097-.683-3.988-1.663-5.674-2.94a14.748 14.748 0 01-3.965-4.682C1.213 40.19.746 38.128.769 35.85h11.587c.068 1.207.353 2.255.854 3.144a5.542 5.542 0 002.017 2.085c.865.479 1.857.718 2.973.718 1.14 0 2.085-.228 2.837-.684a4.868 4.868 0 001.777-1.88c.433-.797.741-1.709.923-2.734.183-1.048.274-2.153.274-3.315 0-1.23-.137-2.336-.41-3.316-.251-.98-.661-1.811-1.23-2.495-.57-.706-1.311-1.242-2.223-1.606-.888-.365-1.96-.547-3.212-.547-1.664 0-2.974.285-3.931.854-.957.57-1.652 1.15-2.085 1.743z" fill="url(#ipaint0_linear_1_401)"/><defs><linearGradient id="ipaint0_linear_1_401" x1="18.5" y1="-15" x2="18.5" y2="67" gradientUnits="userSpaceOnUse"><stop stop-color="#2186FA"/><stop offset="1" stop-color="#E2F0FF" stop-opacity="0"/></linearGradient></defs></svg><svg fill="none" viewBox="0 0 37 50" id="four" xmlns="http://www.w3.org/2000/svg"><path d="M36.52 30.552v8.886H.7l-.683-7.04L20.012.233h9.091l-9.877 16.167-8.203 14.15H36.52zM31.496.234V50H19.978V.234h11.518z" fill="url(#jpaint0_linear_1_403)"/><defs><linearGradient id="jpaint0_linear_1_403" x1="18.5" y1="-15" x2="18.5" y2="67" gradientUnits="userSpaceOnUse"><stop stop-color="#2186FA"/><stop offset="1" stop-color="#E2F0FF" stop-opacity="0"/></linearGradient></defs></svg><svg fill="none" viewBox="0 0 30 33" id="location" xmlns="http://www.w3.org/2000/svg"><path d="M15 .237c-1.836 0-3.597.782-4.895 2.174-1.299 1.392-2.028 3.28-2.028 5.247 0 4.1 6.022 14.277 6.022 19.79H15.9c0-5.494 6.022-16.025 6.022-19.79 0-1.968-.73-3.855-2.028-5.247S16.836.237 15 .237zm0 3.71c.918 0 1.799.392 2.448 1.088a3.85 3.85 0 011.014 2.623 3.85 3.85 0 01-1.014 2.624A3.348 3.348 0 0115 11.37c-.918 0-1.799-.39-2.448-1.087a3.85 3.85 0 01-1.013-2.624 3.85 3.85 0 011.013-2.623A3.348 3.348 0 0115 3.948zM7.897 21.612a1.144 1.144 0 00-.073.04c-2.129.4-3.933.95-5.3 1.7-.684.375-1.273.82-1.73 1.353-.458.534-.794 1.228-.794 2.01 0 1.172.725 2.088 1.587 2.744.861.656 1.95 1.157 3.281 1.585 2.66.855 6.215 1.353 10.132 1.353s7.472-.498 10.132-1.354c1.33-.428 2.42-.927 3.281-1.584.862-.655 1.587-1.572 1.587-2.744 0-.785-.335-1.514-.794-2.049-.46-.534-1.043-.939-1.73-1.315-1.374-.75-3.196-1.3-5.337-1.7a1.078 1.078 0 00-.874.196 1.202 1.202 0 00-.317.35 1.323 1.323 0 00.034 1.389c.09.134.203.247.333.333.131.086.276.143.428.168 1.988.371 3.64.897 4.687 1.469.524.284.892.59 1.082.81.19.222.18.31.18.349 0 .058-.073.325-.612.734-.54.41-1.458.858-2.633 1.237-2.35.756-5.718 1.237-9.447 1.237-3.73 0-7.096-.481-9.448-1.237-1.174-.378-2.093-.827-2.63-1.237-.54-.41-.614-.676-.614-.735 0-.037-.008-.127.18-.347.189-.22.562-.527 1.082-.811 1.038-.57 2.675-1.096 4.651-1.47.154-.02.302-.073.437-.155.134-.082.252-.192.347-.324.094-.132.163-.282.203-.443a1.336 1.336 0 00-.126-.957 1.222 1.222 0 00-.309-.366 1.132 1.132 0 00-.416-.209 1.089 1.089 0 00-.46-.02z" fill="#2186FA"/></svg><svg fill="none" viewBox="0 0 24 50" id="one" xmlns="http://www.w3.org/2000/svg"><path d="M23.574.234V50H12.056V13.223L.708 16.538v-8.75L22.515.234h1.06z" fill="url(#lpaint0_linear_1_409)"/><defs><linearGradient id="lpaint0_linear_1_409" x1="15.5" y1="-15" x2="15.5" y2="67" gradientUnits="userSpaceOnUse"><stop stop-color="#2186FA"/><stop offset="1" stop-color="#E2F0FF" stop-opacity="0"/></linearGradient></defs></svg><svg fill="none" viewBox="0 0 25 28" id="phone" xmlns="http://www.w3.org/2000/svg"><path d="M23.433 27.036C10.103 27.056-.014 16.082 0 1.917 0 .991.7.237 1.563.237h4.125c.773 0 1.43.61 1.545 1.43a21.926 21.926 0 001.586 5.69l.16.372c.109.25.132.533.066.8-.065.266-.216.5-.425.66-1.278.979-1.765 2.947-.77 4.481a19.209 19.209 0 004.619 4.953c1.433 1.065 3.269.543 4.18-.826.149-.225.367-.387.616-.457.25-.07.514-.046.747.07l.346.171a18.397 18.397 0 005.308 1.702c.765.122 1.334.827 1.334 1.658v4.42c0 .22-.04.438-.12.641a1.687 1.687 0 01-.338.544 1.56 1.56 0 01-.508.363 1.47 1.47 0 01-.598.127h-.003z" fill="#2186FA"/></svg><svg fill="none" viewBox="0 0 35 36" id="price" xmlns="http://www.w3.org/2000/svg"><circle cx="17.5" cy="17.5" r="16.25" stroke="#2186FA" stroke-width="2.5"/><path d="M18.73 20.167H10.6v-2.138h8.078c.723 0 1.307-.11 1.75-.333.445-.229.77-.548.978-.956.208-.408.312-.884.312-1.428a3.05 3.05 0 00-.312-1.365 2.473 2.473 0 00-.967-1.031c-.436-.272-1.006-.408-1.708-.408h-3.244V26H12.79V10.36h5.94c1.203 0 2.228.21 3.073.633.845.423 1.493 1.006 1.944 1.751.451.738.677 1.586.677 2.546 0 1.024-.23 1.901-.688 2.632-.45.723-1.103 1.278-1.955 1.665-.845.387-1.862.58-3.05.58zm.258 1.15v2.137h-8.39v-2.138h8.39z" fill="#2186FA"/></svg><svg fill="none" viewBox="0 0 64 52" id="quotes-white" xmlns="http://www.w3.org/2000/svg"><path d="M35.115 12.047c0 3.206.873 5.98 2.661 8.233 2.705 3.38 7.983 3.813 11.036 3.12 1.266 7.15-4.841 16.25-12.737 20.15L42.138 52c11.909-5.633 23.643-18.547 21.637-34.883C62.51 6.803 56.49 0 47.984 0c-3.708 0-6.805 1.083-9.248 3.25-2.443 2.167-3.62 5.113-3.62 8.797zM0 12.047c0 3.206.872 5.98 2.66 8.233 2.75 3.38 7.984 3.813 11.037 3.12C14.962 30.55 8.855 39.65.96 43.55L7.023 52c11.909-5.633 23.6-18.547 21.593-34.883C27.35 6.803 21.375 0 12.868 0 9.161 0 6.063 1.083 3.621 3.25 1.178 5.417 0 8.363 0 12.047z" fill="#fff"/></svg><svg viewBox="0 0 37 32" id="service" xmlns="http://www.w3.org/2000/svg"><path d="M31.872 29.407l-.062-.243c.61-.156.973-.362 1.337-.744.354-.37.58-.83.71-1.472l.245.05-.245-.05c.043-.213.07-.549.082-1.794.013-1.238.01-3.352.002-7.104l-.019-8.365-.142-.4c-.177-.5-.415-.88-.73-1.175-.316-.296-.722-.518-1.253-.68-.068-.02-.16-.04-.462-.057a42.14 42.14 0 00-1.679-.038c-1.75-.018-4.984-.022-11.11-.027-3.554-.003-6.822 0-9.225.007-1.201.004-2.186.009-2.882.014a104.712 104.712 0 00-1.044.014 3.363 3.363 0 00-.064.003h-.007c-.686.104-1.2.306-1.593.614-.392.306-.682.734-.893 1.325l-.235-.084.235.084-.143.4-.02 8.365a724.99 724.99 0 00.003 7.093c.012 1.249.04 1.59.082 1.8l29.112 2.463zm0 0l-.062-.243c-.225.058-.379.093-2.11.11m2.172.133l-2.172-.133m0 0c-1.721.017-4.979.018-11.385.017m11.385-.017l-11.385.017m0 0c-5.654 0-8.924-.004-10.828-.018m10.828.018l-10.828-.018m0 0a80.292 80.292 0 01-1.95-.03m1.95.03l-1.95-.03m0 0c-.401-.015-.557-.032-.621-.047m.62.046l-.62-.046m0 0c-.608-.144-1.082-.404-1.434-.772m1.434.772l-1.434-.772m0 0c-.353-.368-.597-.857-.722-1.48l.722 1.48zm9.665-27.6c-.294.09-.588.283-.837.517-.25.235-.469.527-.602.832-.146.334-.165.617-.195 1.915l-.029 1.262-3.148.025c-1.866.016-2.824.024-3.435.087-.637.065-.917.192-1.415.422-1.447.67-2.36 1.897-2.64 3.527-.05.29-.076.733-.087 2.015-.012 1.29-.01 3.445-.002 7.173l.02 8.537v.037l.01.036.156.507c.265.862.623 1.474 1.22 2.076.615.62 1.342 1.024 2.312 1.296l.54.153.034.009h26.519l.034-.01.54-.151c1.823-.513 2.996-1.627 3.532-3.373l.156-.508.01-.035v-.037l.02-8.51c.008-2.869.007-5.036-.002-6.526-.004-.744-.01-1.32-.018-1.731a8.891 8.891 0 00-.033-.764c-.179-1.186-.672-2.17-1.437-2.889-.766-.72-1.788-1.161-3.004-1.29-.356-.037-1.967-.067-3.57-.067l-2.676-.001-.002-.887c-.001-.956-.028-1.58-.138-2.034-.116-.48-.322-.771-.646-1.07a6.514 6.514 0 01-.081-.077c-.11-.106-.224-.214-.367-.293-.188-.104-.418-.16-.773-.192C22.49.746 21.374.748 19.184.75l-.864.002c-1.353.001-2.604.009-3.53.02-.462.006-.844.012-1.118.02a15.93 15.93 0 00-.429.016h-.002a.476.476 0 00-.094.016zm9.784 1.833l.047.005a.248.248 0 01.085.055c.011.013.033.044.053.14.044.21.059.586.072 1.348l.021 1.152h-9.724V2.853l.125-.125.124-.125h4.532c1.576 0 2.746.006 3.536.018.395.006.692.013.897.022.103.005.18.01.232.014zm.061.008zm-2.56 13.291l-.15-.15-.02-1.66-.01-.774a1.25 1.25 0 00-1.25-1.234H17.55c-.69 0-1.25.56-1.25 1.25v2.428l-.134.15-.124.14-1.654.018-.776.01a1.25 1.25 0 00-1.236 1.25v1.462c0 .69.56 1.25 1.25 1.25h.71c.914 0 1.365.005 1.617.045.12.02.167.043.19.059.02.014.04.033.074.085.004.022.008.054.012.098.01.095.018.229.028.395.018.331.033.78.043 1.277l.015.782a1.25 1.25 0 001.25 1.226h1.488a1.25 1.25 0 001.25-1.226l.014-.782c.01-.497.026-.946.044-1.277a9.723 9.723 0 01.04-.493.298.298 0 01.073-.085.454.454 0 01.19-.059c.252-.04.703-.045 1.617-.045h.71c.69 0 1.25-.56 1.25-1.25V17.385a1.25 1.25 0 00-1.235-1.25l-.77-.01-1.655-.02-.15-.149zm-.052 4.36z"/>// fill="#2186FA" stroke="#2186FA"</svg><svg viewBox="0 0 33 32" id="shopping" xmlns="http://www.w3.org/2000/svg"><path d="M1.008.882a.955.955 0 01.32-.184C1.451.658 1.575.65 1.7.65l-.692.232zm0 0a.954.954 0 00-.357.789m.357-.789l-.357.789m7.472 22.405c.075-.038.132-.07.173-.097l-.015-.093-.108-.648c-.092-.551-.225-1.327-.385-2.254A2858.524 2858.524 0 005.013 5.182a106.73 106.73 0 00-.156-.84l-.011-.051.002.006c-.158-.506-.614-1-1.115-1.206l-.01-.003a24.078 24.078 0 00-1.255-.282l5.655 21.27zm0 0a3.838 3.838 0 00-2.106 3.432c-.002 1.08.354 1.92 1.134 2.692 1.447 1.43 3.64 1.538 5.228.26 1.435-1.155 1.826-3.243.921-4.813l-5.177-1.571zm18.135 7.11c-.325.11-.74.161-1.14.163a4.03 4.03 0 01-1.162-.15l.103-.334 2.2.32zm0 0c1.239-.422 2.129-1.31 2.555-2.55.098-.288.137-.728.137-1.13 0-.401-.039-.841-.137-1.128a3.97 3.97 0 00-.968-1.57m-1.587 6.378l1.587-6.379m0 0c-.468-.467-.928-.751-1.582-.983m1.582.983l-1.582-.983m0 0l-.394-.14-.056-.02m.45.16l-.45-.16m0 0h-.06m.06 0h-.06m0 0l-7.863-.03-7.57-.029-.294-1.681a163.183 163.183 0 01-.309-1.83m16.037 3.57l-16.037-3.57m0 0l7.994.002 8.382.002h.058l.055-.018.497-.17c.98-.333 1.773-.997 2.242-1.887.05-.095.123-.282.212-.53.093-.26.212-.61.36-1.054.294-.887.7-2.152 1.22-3.804.426-1.352.814-2.595 1.095-3.507a146.157 146.157 0 00.425-1.407 3.606 3.606 0 00.04-.156c.001-.006.005-.031.005-.062a.942.942 0 00-.131-.459 1.055 1.055 0 00-.32-.35.593.593 0 00-.235-.087 2.775 2.775 0 00-.312-.03c-.273-.016-.74-.027-1.556-.035a1678.44 1678.44 0 00-10.483-.029c-3.364-.004-6.421-.013-8.638-.023a601.058 601.058 0 01-3.292-.025 41.61 41.61 0 00-.488-2.599m2.87 16.228L1.7.65c.127 0 .338.03.565.066.236.038.517.09.797.147.549.111 1.139.249 1.385.342 1.143.43 2.097 1.487 2.4 2.661m0 0l-.338.088.339-.088zM26.894 27.81c.172-.864-.389-1.784-1.27-2.044l.1-.336-.1.336c-1.16-.342-2.306.452-2.38 1.61-.053.824.415 1.543 1.2 1.836.124.046.206.067.297.078l2.153-1.48zm0 0c-.08.406-.203.642-.491.946m.491-.946l-.491.946m0 0c-.337.355-.685.513-1.235.538l1.235-.538zm-14.352-.85l-.343-.072c.174-.832-.325-1.727-1.126-2.018-.746-.27-1.484-.107-2.016.433-1.08 1.094-.349 2.971 1.195 3.048.628.032 1.102-.156 1.481-.563l.809-.829zm0 0l-.343-.072c-.079.38-.203.62-.466.9l.809-.829zM.651 1.67c.016.295.172.568.428.755L.651 1.67zM26.54 17.74a6.223 6.223 0 00-.131.088c-.088.06-.123.085-.21.112-.13.042-.364.078-.91.1-.96.04-2.765.036-6.401.029l-1.48-.003-8.05-.015-.81-4.636-.85-4.844h11.1c3.939 0 6.819.005 8.713.015a204.184 204.184 0 012.346.024l-.295.95a920.723 920.723 0 01-2.321 7.292 6.313 6.313 0 01-.036.106 2.072 2.072 0 01-.665.782zm-9.354-3.392l.024.025c.002.01.007.032.012.075.018.16.024.455.033 1.097l.011.786a.85.85 0 00.85.838h.089c.47 0 .85-.38.85-.85v-.722-.207c0-.35 0-.6.016-.792.02-.232.06-.284.073-.296.013-.013.065-.054.3-.077.192-.02.444-.023.797-.028l.209-.003.793-.012a.85.85 0 00.837-.85v-.011a.85.85 0 00-.837-.85l-.793-.012a17.728 17.728 0 01-1.065-.034 1.007 1.007 0 01-.166-.025.069.069 0 01-.026-.01.578.578 0 01-.077-.064 28.555 28.555 0 01-.06-1.247l-.02-.796a.85.85 0 00-.849-.83h-.07a.85.85 0 00-.85.839l-.011.783c-.01.658-.015.963-.034 1.126a.558.558 0 01-.013.078.958.958 0 01-.023.025.295.295 0 01-.087.068.67.67 0 01-.19.051c-.213.034-.557.045-1.183.045h-.634a.85.85 0 00-.85.85v.016c0 .469.38.85.85.85h.634c.626 0 .97.011 1.184.045a.668.668 0 01.189.051c.029.015.054.033.087.068zM1.08 2.426a.892.892 0 00.231.109c.08.027.177.055.289.083.223.057.52.121.87.188l-1.39-.38z"/>//fill="#2186FA" stroke="#2186FA"</svg><svg fill="none" viewBox="0 0 37 52" id="three" xmlns="http://www.w3.org/2000/svg"><path d="M12.57 21.298h5.605c1.435 0 2.609-.25 3.52-.752a4.955 4.955 0 002.085-2.188c.456-.957.684-2.085.684-3.383a5.971 5.971 0 00-.65-2.769c-.41-.843-1.048-1.515-1.914-2.016-.865-.525-1.97-.787-3.315-.787-.912 0-1.8.194-2.666.581a5.562 5.562 0 00-2.153 1.573c-.547.683-.82 1.515-.82 2.495H1.392c0-2.826.774-5.241 2.324-7.246C5.289 4.778 7.35 3.228 9.903 2.157c2.575-1.094 5.344-1.64 8.306-1.64 3.532 0 6.63.546 9.297 1.64 2.666 1.071 4.74 2.666 6.22 4.785 1.505 2.097 2.256 4.694 2.256 7.793 0 1.71-.398 3.316-1.196 4.82-.797 1.504-1.914 2.825-3.35 3.965-1.435 1.139-3.121 2.039-5.058 2.7-1.914.638-4.01.957-6.29.957H12.57v-5.88zm0 8.579v-5.742h7.519c2.484 0 4.75.285 6.802.854 2.05.547 3.816 1.367 5.297 2.461a11.094 11.094 0 013.418 4.068c.798 1.595 1.197 3.429 1.197 5.502 0 2.325-.467 4.398-1.402 6.221-.934 1.823-2.244 3.361-3.93 4.614-1.686 1.254-3.657 2.21-5.913 2.872-2.256.638-4.706.957-7.349.957-2.074 0-4.147-.274-6.22-.82a18.928 18.928 0 01-5.675-2.598 13.77 13.77 0 01-4.135-4.512C1.153 41.908.64 39.709.64 37.157h11.552c0 1.048.285 2.005.855 2.871.592.843 1.378 1.516 2.358 2.017.98.501 2.04.752 3.179.752 1.413 0 2.609-.262 3.589-.786 1.002-.547 1.766-1.276 2.29-2.188.524-.911.786-1.925.786-3.042 0-1.686-.285-3.03-.855-4.033-.546-1.003-1.355-1.732-2.426-2.187-1.048-.456-2.313-.684-3.794-.684h-5.606z" fill="url(#rpaint0_linear_1_405)"/><defs><linearGradient id="rpaint0_linear_1_405" x1="19.5" y1="-14" x2="19.5" y2="68" gradientUnits="userSpaceOnUse"><stop stop-color="#2186FA"/><stop offset="1" stop-color="#E2F0FF" stop-opacity="0"/></linearGradient></defs></svg><svg fill="none" viewBox="0 0 60 60" id="triangle" xmlns="http://www.w3.org/2000/svg"><path d="M60 30a30 30 0 11-60 0 30 30 0 0160 0zM25.462 19.099a1.876 1.876 0 00-2.962 1.526v18.75a1.874 1.874 0 002.962 1.526l13.125-9.375a1.874 1.874 0 000-3.052l-13.125-9.375z" fill="url(#spaint0_linear_1_440)"/><defs><linearGradient id="spaint0_linear_1_440" x1="30" y1="0" x2="30" y2="60" gradientUnits="userSpaceOnUse"><stop stop-color="#2186FA"/><stop offset="1" stop-color="#2186FA" stop-opacity=".4"/></linearGradient></defs></svg><svg fill="none" viewBox="0 0 36 51" id="two" xmlns="http://www.w3.org/2000/svg"><path d="M35.803 42.113V51H1.076v-7.52l15.996-16.816c1.413-1.618 2.552-3.065 3.418-4.34.866-1.3 1.493-2.473 1.88-3.521.41-1.048.615-1.994.615-2.837 0-1.436-.216-2.632-.65-3.589-.41-.98-1.024-1.72-1.845-2.222-.797-.501-1.788-.752-2.973-.752-1.185 0-2.222.342-3.11 1.026-.89.683-1.584 1.617-2.086 2.802-.478 1.185-.717 2.518-.717 4H.05c0-3.054.74-5.845 2.221-8.375 1.504-2.529 3.59-4.545 6.255-6.05C11.193 1.28 14.281.517 17.79.517c3.669 0 6.745.57 9.229 1.71 2.483 1.139 4.352 2.79 5.605 4.956 1.276 2.142 1.914 4.728 1.914 7.758 0 1.732-.273 3.396-.82 4.99-.547 1.596-1.333 3.18-2.359 4.752-1.025 1.55-2.278 3.144-3.76 4.785a112.044 112.044 0 01-4.99 5.23l-6.425 7.416h19.619z" fill="url(#tpaint0_linear_1_407)"/><defs><linearGradient id="tpaint0_linear_1_407" x1="18.5" y1="-14" x2="18.5" y2="68" gradientUnits="userSpaceOnUse"><stop stop-color="#2186FA"/><stop offset="1" stop-color="#E2F0FF" stop-opacity="0"/></linearGradient></defs></svg><svg fill="none" viewBox="0 0 25 27" id="whatsapp" xmlns="http://www.w3.org/2000/svg"><path d="M12.55 0C5.69 0 .1 5.993.1 13.345c0 2.357.578 4.646 1.659 6.667L0 26.933l6.595-1.858a11.8 11.8 0 005.955 1.63c6.86 0 12.45-5.993 12.45-13.346 0-3.569-1.294-6.922-3.643-9.44A12.321 12.321 0 0017.32 1.01 11.617 11.617 0 0012.551 0zm.013 2.249c2.764 0 5.352 1.158 7.311 3.259a11.162 11.162 0 012.244 3.602c.52 1.347.786 2.791.784 4.249 0 6.114-4.648 11.083-10.352 11.083-1.859 0-3.68-.525-5.264-1.549l-.376-.229-3.92 1.105 1.043-4.094-.252-.431a11.618 11.618 0 01-1.583-5.899C2.211 7.232 6.847 2.25 12.563 2.25zM8.14 7.178c-.201 0-.54.08-.83.417-.276.337-1.092 1.158-1.092 2.788 0 1.643 1.118 3.218 1.256 3.447.176.23 2.21 3.596 5.34 5.023.74.364 1.318.566 1.77.714.742.256 1.42.215 1.96.135.603-.095 1.834-.808 2.098-1.59.264-.78.264-1.44.189-1.588-.088-.135-.29-.216-.603-.364-.314-.188-1.847-.996-2.123-1.104-.29-.108-.465-.162-.704.161-.201.337-.804 1.091-.98 1.307-.188.229-.364.255-.666.094-.326-.175-1.331-.525-2.512-1.656-.93-.89-1.546-1.98-1.734-2.317-.15-.323-.013-.525.138-.673.138-.148.34-.39.465-.593.163-.188.214-.336.314-.552.1-.229.05-.417-.025-.579-.075-.148-.704-1.818-.967-2.478-.252-.646-.503-.565-.704-.579-.176 0-.377-.013-.59-.013z" fill="#fff"/></svg></svg>