<?xml version="1.0" encoding="utf-8"?><svg viewBox="0 0 79 62" xmlns="http://www.w3.org/2000/svg" xmlns:xlink="http://www.w3.org/1999/xlink"><style>:root>svg{display:none}:root>svg:target{display:block}</style><svg fill="none" viewBox="0 0 62 57" id="1" xmlns="http://www.w3.org/2000/svg"><path d="M52.563 43.843c-.175.568-.548 1.009-.874 1.496-.245.36-.548.8-.478 1.252.011.081.14.116.198.046.315-.394.49-.939.78-1.368.28-.429.56-.846.7-1.344.046-.197-.268-.279-.327-.081zM34.642 53.43c-.268.499-.513 1.009-.525 1.589.012.232.373.266.385 0v-.035c.012-.012.012-.012.012-.023a.105.105 0 000-.116v-.012c.046-.44.198-.834.396-1.252.093-.174-.175-.324-.268-.15zm-1.177-.185c-.07.185-1.177 1.96-.49 1.901.129-.011.164-.093.175-.185.024-.163.035-.302.105-.476.152-.394.373-.765.513-1.17.058-.186-.233-.255-.303-.07zM52.13 43.31c.14-.15-.081-.382-.233-.232a5.69 5.69 0 00-.955 1.287c-.198.348-.548.87-.431 1.287.023.081.128.104.186.046.303-.266.396-.788.583-1.147.233-.44.512-.87.85-1.24zM30.657 53.546a6.52 6.52 0 00-.501 1.38c0 .011-.012.023-.012.046-.046.255.326.371.396.105.117-.464.222-.916.42-1.357.105-.208-.198-.382-.303-.174zm-3.24.36c-.186.336-.745 1.008-.314 1.333.081.07.233-.023.221-.128-.046-.382.198-.73.35-1.055.093-.173-.152-.324-.256-.15zm-10.812-8.683c-.315.591-.595 1.206-.898 1.808-.256.522-.57 1.044-.722 1.589-.023.092.105.185.175.104.384-.429.606-1.009.839-1.53.28-.615.547-1.23.827-1.844.07-.15-.14-.278-.221-.127zm8.867 8.764c-.292.29-.7.87-.525 1.31.035.081.117.15.21.116.117-.035.28-.209.152-.336-.012-.012-.024-.024-.035-.024.011-.313.198-.637.407-.87.117-.127-.081-.324-.21-.196zm6.723-.66c-.256.59-.524 1.17-.77 1.761-.07.163.117.278.257.255.163-.023.245-.139.28-.29a.128.128 0 00-.035-.115c.186-.499.361-.998.547-1.496.059-.162-.21-.278-.28-.116zm-2.692.567c-.116.22-.28.418-.373.65-.07.173-.163.533.117.59.233.047.163-.255.198-.382.058-.255.245-.464.361-.684.082-.197-.198-.36-.303-.174zm-1.13-.035c-.291.29-.431.754-.431 1.16 0 .174.28.278.361.092.047-.092.047-.092.058-.208 0-.023-.011-.035-.011-.058.023-.267.081-.557.256-.754.128-.15-.093-.382-.233-.232zm-3.938.499a2.18 2.18 0 00-.431.649c-.082.174-.21.464-.082.638.058.08.221.092.245-.035.07-.394.163-.765.43-1.078.117-.116-.046-.29-.162-.174zm36.808-7.106c-1.212.533-2.528.73-3.833.927-.28-1.09-.84-2.145-1.457-3.049-.513-.753-1.06-1.495-1.748-2.11a4.623 4.623 0 00-1.107-.742c.397-.208.735-.498.98-.904.547-.916.186-2.005-.7-2.562-1.177-.718-2.691-.533-3.996-.486-.175.011-.338.011-.513.011.116-1.066.256-2.446 1.351-2.666.513-.105 1.06-.081 1.573-.15a5.601 5.601 0 001.608-.488c1.9-.904 3.065-2.84 3.95-4.66a39.614 39.614 0 002.762-7.72c.746-2.98 1.491-5.947 1.678-9.031.105-1.774.128-3.49 0-5.263-.128-1.727.046-3.466-.233-5.182-.059-.348-.56-.533-.84-.336-.955.66-1.724 1.495-2.458 2.388-.78.95-1.514 1.924-2.155 2.99-1.317 2.18-2.366 4.499-3.263 6.875-.652 1.74-1.223 3.501-1.794 5.275 0-.985-.035-1.96-.035-2.945-.024-2.202-.058-4.416-.291-6.607-.35-3.409-1.06-7.454-4.428-9.205C44.628.72 42.682.511 40.806.372 38.685.222 36.564.21 34.432.21 30.062.198 25.693.036 21.324.012A509.954 509.954 0 0010.312.07c-.652.012-1.34 0-2.004.058-1.899-.336-3.787.406-5.36 1.67C1.224 3.178-.605 5.693.198 8l-.046.046c-.186.197-.047.499.221.522.42.034.851.104 1.27.104.56 0 1.119-.104 1.678-.162 1.189-.15 2.366-.267 3.566-.267 1.153 0 2.319.035 3.495.162.478.047.968.058 1.445.128v.035c.024.104.163.104.21.023 0-.012.012-.012.012-.023.314.058 1.002.15 1.211.382l.059.058c.023.116.046.232.058.348.49 2.99.501 6.086.466 9.1-.058 6.515-.746 12.972-1.107 19.475-.163 2.98-.221 6.052.152 9.02.314 2.584 1.025 5.448 2.936 7.36.081.082.163.163.256.232.723 1.055 1.958 1.728 3.146 2.11 1.597.522 3.333.325 4.976.162 3.728-.37 7.492-.336 11.232-.29 2.389.035 4.789.07 7.178.082 1.212.313 2.493.36 3.752.301 1.421-.07 2.854-.15 4.253-.475.454-.023.908-.058 1.363-.081 1.596-.105 3.356 0 4.894-.533 1.584-.545 2.97-1.693 3.891-3.06 1.014-1.508 1.154-3.316 1.236-5.078.011-.418-.432-.568-.758-.43zm-11.442-7.57c.862-.047 2.319-.267 3.006.405.664.638-.652 1.16-1.118 1.218-1.026.139-2.11-.081-3.135-.105-2.365-.058-4.73.21-7.096.128-.454-.012-1.992.011-1.83-.742.082-.394.269-.638.514-.811 2.097.034 4.194-.174 6.303-.082 1.119.035 2.237.035 3.356-.011zm6.455-10.144c-.839 1.75-1.946 3.768-3.915 4.429-1.084.36-2.365.093-3.332.765-1.13.788-1.247 2.295-1.364 3.593-.174 0-.338-.011-.512-.011.466-.881.675-1.82.839-2.806.093-.544.198-1.09.303-1.622.477-.244.862-.65 1.305-.963.396-.278.803-.51 1.2-.776.827-.568 1.584-1.23 2.447-1.75.862-.522 1.77-.963 2.645-1.473.233-.14.559-.267.85-.417-.14.36-.303.695-.466 1.031zm.664-1.449c-.21.093-.443.151-.629.232-.384.174-.757.394-1.13.58-.862.44-1.76.87-2.564 1.39-.815.534-1.55 1.16-2.377 1.682-.57.36-1.305.753-1.794 1.275.082-.348.151-.684.245-1.032.011-.011.023-.035.035-.046.36-.452.792-.788 1.281-1.101 1.002-.638 2.051-1.16 3.088-1.716.536-.29 1.049-.591 1.608-.835.455-.185.909-.382 1.34-.602.385-.198.758-.383 1.154-.545.011 0 .011-.012.023-.012-.082.243-.187.487-.28.73zm.455-1.136c-.222.105-.443.174-.688.255-.442.151-.85.395-1.27.568-.92.383-1.77.789-2.657 1.252-.955.499-1.91.974-2.83 1.542a6.351 6.351 0 00-1.026.765c.28-1.032.57-2.052.885-3.06.163-.116.315-.255.466-.394.408-.383.816-.73 1.27-1.055.92-.626 1.911-1.09 2.913-1.565.99-.476 2.005-.928 3.007-1.38.373-.174.745-.336 1.13-.498a49.405 49.405 0 01-1.2 3.57zm3.064-11.882c-1.573.626-3.041 1.438-4.556 2.168-.757.36-1.538.66-2.295.997a1.907 1.907 0 01-.152.07 11.5 11.5 0 01.92-.615 35.53 35.53 0 012.53-1.38c.862-.428 1.759-.765 2.656-1.124.268-.104.652-.209.932-.406l-.035.29zm-4.16-4.81c.688-1.253 1.41-2.493 2.307-3.606.63-.788 1.259-1.577 2.005-2.249.093 1.24-.012 2.48.058 3.721l.035.823c-.77.267-1.492.65-2.214 1.009-.827.417-1.631.846-2.365 1.402-.222.163-.431.337-.641.51.256-.544.524-1.078.815-1.61zm-1.211 2.48c.57-.487 1.13-.997 1.747-1.414 1.212-.835 2.599-1.38 3.88-2.099.012.244.012.476.012.72-.652.08-1.27.428-1.83.753-.663.382-1.34.753-2.003 1.136a35.14 35.14 0 00-1.923 1.159c.035-.081.07-.174.117-.255zm-1.713 4.463c.175-.522.361-1.043.547-1.565.478-.336.886-.835 1.352-1.194.63-.498 1.317-.927 2.016-1.322.547-.3 1.083-.58 1.608-.904.5-.313 1.06-.637 1.666-.684.105-.011.128-.15.023-.185-.466-.15-.99.104-1.398.301-.617.302-1.212.661-1.83.986a16.24 16.24 0 00-2.178 1.356c-.268.197-.583.417-.874.672.117-.313.245-.614.373-.927.221-.162.443-.325.676-.464.617-.382 1.223-.776 1.852-1.124 1.165-.661 2.307-1.438 3.542-1.96.012.847-.011 1.705-.07 2.563a40.86 40.86 0 01-.14 1.68c-.232.174-.582.255-.838.348-.35.128-.688.255-1.037.383-.793.29-1.573.614-2.33.997-.793.394-1.574.823-2.343 1.287-.268.162-.559.324-.85.51.07-.267.151-.51.233-.754zm-.664 1.97c.372-.196.745-.382 1.13-.556.792-.359 1.608-.649 2.377-1.043.746-.383 1.445-.823 2.202-1.17.688-.325 1.398-.615 2.004-1.056-.035.29-.081.591-.128.881-.664 0-1.305.44-1.9.684-.861.348-1.724.742-2.574 1.113-.862.371-1.702.765-2.517 1.217-.233.128-.49.267-.746.418.047-.151.093-.325.152-.487zm-.455 1.404c.327-.22.641-.534.92-.684.77-.441 1.55-.858 2.354-1.23.84-.37 1.667-.753 2.506-1.135.675-.313 1.444-.789 2.202-.916-.047.243-.093.487-.152.73-.128.545-.256 1.09-.384 1.646-.583.325-1.27.499-1.853.8a25.387 25.387 0 00-2.691 1.611c-.874.615-1.806 1.148-2.669 1.774-.408.29-.734.638-1.095.974-.128.116-.268.232-.408.348.408-1.31.84-2.62 1.27-3.918zM50.71 25.33c.745-.428 1.328-1.275 1.992-1.773.91-.684 1.911-1.252 2.82-1.925.862-.637 1.818-1.136 2.75-1.669.338-.185.886-.325 1.317-.556-.129.51-.257 1.031-.385 1.541h-.023c-.758.371-1.573.603-2.354.951a28.106 28.106 0 00-5.162 2.956c-.35.255-.722.522-1.072.8.047-.116.082-.22.117-.325zm1.305-.115c.757-.557 1.55-1.055 2.342-1.542a23.765 23.765 0 012.691-1.415c.676-.313 1.434-.533 2.063-.95-.047.185-.093.382-.14.568-.093.382-.198.765-.303 1.136-.221.07-.454.127-.652.209-.42.173-.828.37-1.247.556-.944.406-1.876.811-2.808 1.24-.91.418-1.83.858-2.657 1.426-.443.302-.85.638-1.247.986.082-.255.163-.499.233-.754.571-.498 1.107-1.02 1.725-1.46zM7.19 7.177a24.671 24.671 0 00-3.81.266c-.653.093-1.317.232-1.97.267-.268.011-.547.011-.792.081.233-2.052 1.387-3.872 3.041-5.1a6.337 6.337 0 00-.512.73c-.233.405-.571.95-.501 1.437.011.07.128.104.163.047.291-.371.407-.882.64-1.299.28-.487.606-.962 1.014-1.345.035-.034.047-.07.035-.104.396-.22.816-.417 1.247-.568-.28.487-.594.95-.897 1.438-.327.533-.77 1.17-.77 1.82 0 .058.082.104.117.046.42-.51.653-1.217.99-1.785.315-.534.642-1.067.91-1.635.244-.07.489-.116.734-.139.104-.012.221-.012.326-.023-.478.568-.827 1.205-1.119 1.878-.28.637-.757 1.507-.734 2.226 0 .08.128.15.187.08.407-.51.536-1.298.769-1.9.314-.789.687-1.589 1.223-2.25l.012-.011c.373.035.745.116 1.107.255-.396.696-.793 1.38-1.142 2.098-.292.592-.676 1.299-.641 1.971 0 .104.14.14.198.058.385-.614.571-1.38.874-2.029.314-.672.676-1.321 1.025-1.97.28.127.56.29.804.463-.28.603-.57 1.217-.862 1.832-.291.626-.687 1.263-.874 1.947-.023.105.105.186.187.105.466-.522.734-1.229 1.013-1.855.28-.614.536-1.229.804-1.843l.035.035c.245.197.466.405.676.637a.156.156 0 00-.093.081 33.83 33.83 0 00-1.037 2.052c-.292.626-.653 1.264-.78 1.948-.013.046.022.104.069.139a19.795 19.795 0 00-1.666-.081zm4.055.243c-.396-.023-.781-.058-1.165-.081.232-.429.372-.916.617-1.356.28-.51.583-1.009.816-1.542.081-.186-.187-.348-.28-.162-.28.58-.652 1.1-.967 1.657-.233.406-.513.881-.536 1.368-.256-.023-.501-.035-.757-.058.011-.011.023-.011.034-.023.432-.545.665-1.229.944-1.855.315-.707.641-1.402 1.002-2.075v-.011a9.047 9.047 0 011.294 2.063c0 .012-.012.035-.012.046-.023.406-.256.812-.454 1.16-.129.22-.478.58-.42.846 0 .011 0 .011.012.023-.058.012-.093 0-.128 0zm.78.081c-.128-.023-.256-.035-.384-.046.256-.14.43-.568.536-.777.116-.232.233-.475.303-.73.058.162.116.313.175.475-.024.012-.035.035-.059.058-.163.29-.396.65-.57 1.02zm.886.186a7.147 7.147 0 00-.478-.116c.105-.255.233-.499.361-.742.094.301.175.591.257.892l-.14-.034zm9.112 41.837c-.361 1.055-.898 2.029-1.352 3.037-.198.429-.373.858-.513 1.31-.058.174-.128.37-.174.568a4.217 4.217 0 01-1.562-.267c.058-.278.105-.556.198-.823.21-.59.466-1.17.711-1.75.245-.58.513-1.148.723-1.727.163-.476.407-.94.442-1.438.012-.209-.291-.197-.314 0-.07.591-.466 1.264-.7 1.797-.256.568-.5 1.148-.757 1.716-.256.568-.664 1.321-.769 2.028a4.557 4.557 0 01-.932-.66c.105-.371.186-.766.338-1.125.233-.545.443-1.078.652-1.634.233-.592.478-1.183.781-1.728.256-.464.501-.892.536-1.426.012-.197-.291-.197-.314 0-.059.638-.513 1.148-.805 1.704a15.616 15.616 0 00-.722 1.623c-.221.58-.734 1.392-.909 2.145-.14-.174-.28-.36-.408-.556a7.9 7.9 0 01-.384-.684c.116-.348.175-.73.28-1.09.186-.58.407-1.17.664-1.727.384-.847.839-1.647.944-2.586.023-.15-.245-.185-.268-.034-.175 1.031-.804 1.924-1.2 2.875-.234.556-.572 1.263-.711 1.936-.595-1.334-.898-2.771-1.072-4.22.652-.66.64-1.774 1.34-2.434.116-.105-.059-.279-.175-.174-.373.324-.594.753-.792 1.194-.14.313-.292.637-.432.962a35.801 35.801 0 01-.105-1.577c.035-.07.07-.127.105-.197.14-.278.292-.556.35-.858.023-.127-.163-.173-.198-.058-.058.22-.163.406-.28.603-.093-3.107.012-6.19.257-9.285.512-6.504 1.06-13.053.885-19.58-.082-2.968-.233-6.016-1.153-8.857-.665-2.075-1.853-4.22-3.706-5.46.793 0 1.585.012 2.377.012 2.086 0 4.172.012 6.246.035 4.206.046 8.4.139 12.595.208 2.04.035 4.079.012 6.13.07 2.027.058 4.1.081 6.082.556 1.748.418 3.157 1.31 4.078 2.864.909 1.518 1.258 3.292 1.468 5.02.536 4.497.175 9.041.606 13.54-.746 2.306-1.492 4.625-2.11 6.955-.36 1.38-.745 2.782-.931 4.196-.175 1.264-.187 2.608-.63 3.814a26.153 26.153 0 00-2.132.035c-.85.058-1.701.15-2.552.232-1.643-.94-4.31 1.623-3.006 3.222.408.499.99.72 1.608.812-1.84 1.403-3.379 3.35-3.717 5.634a.542.542 0 00-.244-.047 29.686 29.686 0 01-2.68-.174c-.92-.092-1.853-.127-2.774-.231-.803-.093-1.573-.116-2.388-.093-.536.012-1.2-.023-1.736.174-.28-.15-.641-.093-.711.301-.21 1.136-.571 2.284-1.224 3.246l.525-1.321c.093-.232-.28-.325-.373-.105-.245.592-.501 1.183-.746 1.785-.081.21-.186.43-.268.661a8.392 8.392 0 01-1.864 1.391c.035-.104.081-.22.14-.324.186-.36.35-.65.477-1.032.315-.916.676-1.808.98-2.724.07-.22-.28-.313-.35-.093a51.87 51.87 0 01-1.142 2.91c-.222.51-.618 1.008-.723 1.565-.35.139-.71.232-1.072.278.035-.174.07-.348.129-.51.174-.533.396-1.055.629-1.565.407-.893.839-1.774 1.13-2.713.081-.243-.256-.336-.326-.127zm.99 5.796c-.058.14-.151.336-.14.498-.617.047-1.235.058-1.84.024a6.712 6.712 0 002.12-.823c-.047.104-.093.197-.14.301zm13.528.046l.035-.07.035-.127c0-.011 0-.011.012-.023.151-.498.407-.962.512-1.472.035-.186-.244-.267-.28-.081-.14.568-.489 1.043-.605 1.611-.012.07.011.116.046.162-.314 0-.629-.011-.955-.011 0-.012.011-.035.023-.07a.11.11 0 00-.023-.104 2.908 2.908 0 01.513-1.46c.128-.186-.164-.348-.303-.175-.397.522-.641 1.148-.641 1.809-2.936-.023-5.861 0-8.786.174a.35.35 0 01.093-.093c.059-.046.024-.14-.046-.162-.047-.012-.082-.012-.105-.012.012-.348.268-.719.431-.997.093-.15-.14-.278-.233-.139-.268.37-.64.904-.513 1.391 0 .012.012.012.012.023-.862.058-1.736.174-2.598.244.011-.047.011-.105.035-.163.035-.15.093-.301.151-.452.035-.116.07-.22.093-.336 2.098-1.333 3.822-3.582 3.729-6.12.49.046 1.025.034 1.491.034.816.012 1.608.104 2.424.174 1.771.15 3.554.383 5.325.394a.902.902 0 00.175-.023c.035 1.553.652 3.06 1.62 4.3-.012.012-.024.012-.036.024-.396.51-.792 1.09-.885 1.739-.257.023-.501.011-.746.011zm2.04-.51c-.06.151-.152.348-.152.534-.245 0-.501-.012-.746-.012v-.046c.093-.545.384-1.032.71-1.484.14.174.292.348.455.51a4.123 4.123 0 00-.268.498zm.267.545c.035-.15.047-.301.093-.452.035-.127.082-.243.14-.36.315.302.653.58 1.002.824-.42 0-.827-.012-1.235-.012zm13.109-.788c-.28.116-.571.22-.874.313.011-.035.023-.058.035-.093.07-.197-.245-.278-.303-.081-.035.104-.082.197-.117.29-.373.104-.746.174-1.13.243.116-.22.28-.417.384-.637.105-.197-.186-.371-.302-.174-.105.185-.408.545-.56.88a4.122 4.122 0 01-.396.047l-1.002.035c.058-.162.117-.336.186-.498.175-.337.362-.661.536-.998.094-.185-.174-.347-.28-.162-.209.394-.465.754-.675 1.148-.082.162-.175.336-.233.51-.117 0-.245.011-.361.011h-.77c.199-.452.49-.869.688-1.275.093-.185-.186-.359-.291-.162-.21.394-.455.765-.653 1.17a2.035 2.035 0 00-.128.28h-.885c.011-.07.023-.152.046-.21.128-.336.303-.66.513-.95.128-.186-.175-.348-.303-.174a4.25 4.25 0 00-.571 1.032c-.035.093-.082.197-.105.313h-.862l-.175-.035c.128-.719.56-1.403 1.049-1.924.128-.14-.07-.348-.222-.22a5.069 5.069 0 00-.908 1.193c-.14.244-.292.545-.35.847-.047-.012-.082-.024-.128-.035a6.579 6.579 0 01-.804-.278c0-.012 0-.012.011-.024.07-.278.198-.544.327-.8.221-.44.49-.857.687-1.31.082-.173-.175-.336-.268-.15-.268.545-.629 1.032-.897 1.577-.082.15-.175.336-.245.533-.198-.105-.396-.209-.594-.337.151-.382.326-.846.373-.939.233-.428.49-.834.699-1.263.093-.174-.175-.336-.268-.162-.373.684-.909 1.356-1.177 2.098-.186-.128-.361-.278-.536-.429 0-.012.012-.035.023-.046.21-.499.525-1.032.898-1.438.14-.15-.082-.37-.222-.22-.151.15-.687.823-1.002 1.426a4.962 4.962 0 01-.42-.44c.036-.14.047-.302.094-.43.105-.29.256-.568.385-.846.07-.15-.152-.29-.233-.139-.164.301-.327.591-.455.904-.023.058-.047.116-.07.186-.128-.174-.256-.337-.373-.522.07-.232.14-.452.257-.684.163-.313.35-.603.547-.904.105-.174-.151-.313-.268-.15-.116.161-.594.787-.804 1.297a6.647 6.647 0 01-.314-.649c.023-.058.023-.116.046-.197.035-.197.105-.394.198-.568.152-.324.362-.626.641-.87.105-.092-.035-.277-.151-.196-.338.255-.595.58-.781.95a2.167 2.167 0 00-.151.325 7.863 7.863 0 01-.129-.499c.117-.208.198-.44.303-.637.163-.302.327-.603.443-.928.035-.092-.128-.162-.163-.07-.163.337-.373.65-.56.975l-.104.174c-.338-2.852 1.701-5.17 3.74-6.944h.175c1.538.046 3.076-.058 4.626-.105h.233c-.082.105-.152.22-.222.337-.14.22-.373.486-.326.765.012.07.093.08.14.058.221-.116.326-.453.454-.673.094-.162.198-.336.303-.498.361 0 .723 0 1.084.011-.466.522-1.375 1.264-1.049 1.82.047.07.14.058.187 0 .105-.15.116-.359.198-.521a2.47 2.47 0 01.396-.522c.221-.243.454-.487.63-.765l.838.035a9.38 9.38 0 00-.617.892c-.199.337-.571.893-.28 1.252.105.128.268-.023.245-.139-.059-.382.372-.939.547-1.252.152-.255.303-.498.466-.73.35.012.711.035 1.06.046-.326.394-.629.8-.885 1.24-.233.383-.582.928-.49 1.392.024.092.152.127.21.058.303-.337.397-.858.618-1.252.268-.487.57-.95.92-1.391.012-.012.012-.024.024-.035.186 0 .384 0 .582-.023.92.59 1.736 1.217 2.436 2.028-.012.012-.024.023-.024.035-.268.44-.547.858-.827 1.287-.245.36-.594.765-.664 1.205-.023.128.105.198.21.116.337-.278.547-.765.78-1.136.257-.405.513-.823.746-1.24l.315.417c.046.058.093.128.128.197a6.8 6.8 0 00-.862 1.136c-.245.395-.583.916-.513 1.391.012.093.151.128.21.058.29-.359.384-.857.617-1.263.21-.371.455-.719.734-1.043.175.266.35.544.513.823-.618.66-1.503 1.657-1.049 2.063.117.104.292.035.292-.116.023-.452.396-.87.652-1.217.093-.128.187-.244.28-.371.151.29.28.591.384.893-.116.15-.221.313-.326.475-.14.22-.64.858-.443 1.124.035.047.082.07.14.058.291-.046.443-.672.571-.892.058-.116.128-.232.198-.348.093.325.151.66.175.997 0 .081.012.162.012.243-.35.464-.7.95-.863 1.473-.035.115.128.208.21.115.21-.22.373-.475.548-.73-.478 1.901-2.47 3.431-4.183 4.162zm2.027.464a9.021 9.021 0 001.095-.789c-.151.232-.36.487-.443.742a12.33 12.33 0 01-.652.047zm5.896-3.038c-.676.962-1.666 1.855-2.762 2.388.117-.243.257-.475.42-.707.128-.185-.175-.347-.303-.174-.245.313-.454.661-.618 1.032-.011.023-.023.046-.035.081-.07.023-.151.058-.233.081a9.278 9.278 0 01-.606.151c.059-.185.14-.36.222-.545.198-.429.454-.823.734-1.194.116-.15-.14-.348-.256-.197-.35.44-.665.916-.91 1.414a4.272 4.272 0 00-.256.603l-.256.035c.187-.232.315-.545.42-.777.058-.139.128-.278.174-.417 1.002-.985 1.748-2.191 1.946-3.582a5.19 5.19 0 000-1.345c1.165.07 2.296-.104 3.39-.464-.104 1.264-.302 2.528-1.071 3.617zM31.263 34.49c2.202.08 4.404.162 6.606.011 1.06-.07 2.133-.185 3.193-.29.443-.046.897-.127 1.34-.15.361-.024.722.08 1.072.057.186-.011.361-.15.35-.347-.035-.916-1.003-1.067-1.748-.986-1.049.116-2.11.197-3.158.325-2.307.278-4.672.209-6.991.139-2.284-.07-4.544-.07-6.828-.035-1.107.012-2.202 0-3.31-.116-1.013-.104-2.027-.104-3.017.209-.233.07-.245.406 0 .475.932.279 1.922.197 2.878.336.99.151 2.004.21 3.006.232 2.214.047 4.405.058 6.607.14zm-7.807-7.698c1.876.012 3.729.197 5.593.209 1.934.011 3.88-.093 5.814.046.886.058 1.771.162 2.657.174.909.012 1.817-.058 2.726-.07a34.481 34.481 0 003.1-.22c.256-.035.513-.058.757-.07.175-.011.338-.011.513 0 .14 0 .314.151.093-.034.42.348 1.049.023.92-.534-.28-1.24-2.563-.568-3.39-.486-.979.092-1.958.07-2.936.116-.968.034-1.935.058-2.902 0-.955-.058-1.9-.163-2.843-.174-1.025-.012-2.05.046-3.088.08a66.222 66.222 0 01-3.03.047c-.966-.011-1.933-.15-2.9-.139-1.107.012-2.203-.058-3.31-.046-.524 0-1.06-.093-1.573-.012-.43.07-.839.22-1.258.325-.21.046-.221.382 0 .429.722.127 1.48.15 2.214.208.932.058 1.91.14 2.843.151zM18.69 10.492c.944.348 2.04.14 3.03.232 1.118.093 2.237.104 3.356.058 2.248-.093 4.485-.023 6.723.011 2.202.035 4.392-.011 6.595.093 1.072.047 2.132.15 3.192.255.665.058 1.492-.034 2.051.36.431.301 1.002-.197.874-.661-.245-.881-1.154-.916-1.923-.95-1.048-.047-2.085-.198-3.122-.279-2.284-.174-4.58-.127-6.863-.15-2.354-.024-4.708-.128-7.061-.012-1.189.058-2.39.139-3.578.104-1.072-.035-2.248-.023-3.262.371-.303.093-.303.464-.012.568zM18.4 18.77c1.014.336 2.109.278 3.17.313 1.083.023 2.178.116 3.262.128 2.237.023 4.486-.047 6.723-.07 2.272-.035 4.544-.081 6.805-.093 1.095 0 2.179.012 3.262.058 1.014.047 2.237.22 3.17-.232.303-.15.303-.66 0-.8-.92-.44-2.063-.243-3.065-.266a76.23 76.23 0 00-3.262-.046c-2.307.023-4.615.092-6.922.127-2.202.046-4.416.116-6.618.15-1.084.024-2.179-.046-3.262-.034-1.084.011-2.238-.035-3.275.313-.21.07-.21.383.012.452z" fill="#FFF06A"/></svg><svg fill="none" viewBox="0 0 79 62" id="2" xmlns="http://www.w3.org/2000/svg"><path d="M22.488 49.1c.058-.22.102-.41.218-.615.102-.176.219-.351.306-.541.102-.205-.19-.395-.32-.19-.233.394-.656.79-.656 1.287.015.263.393.321.452.058zm-1.238-.337c.029-.307.174-.541.32-.79.146-.249-.218-.453-.379-.22-.218.308-.422.63-.451 1.024 0 .307.48.293.51-.014zm6.423 2.355c.073 0 .145-.059.16-.117.015-.088 0-.176.015-.264.014-.131.072-.263.116-.38.102-.234.219-.453.306-.688.073-.233-.277-.321-.364-.102-.088.249-.932 1.507-.233 1.55zm-1.296-.63a2.65 2.65 0 01.582-1.243c.16-.19-.087-.438-.277-.278-.378.366-.742.907-.772 1.448-.014.278.423.337.466.074zm-2.812-.95c.088.015.16-.015.19-.102.029-.088.044-.234.102-.337.073-.117.16-.234.218-.366.102-.219-.204-.41-.335-.19-.102.161-.233.307-.32.483-.073.16-.117.468.145.512zm1.428.585c.073.03.145.03.204-.03.116-.116.13-.365.204-.511.087-.205.189-.395.262-.6.073-.234-.277-.322-.35-.102-.116.234-.728 1.038-.32 1.243zm3.845 1.39c.233-.074.306-.235.204-.366.073-.468.306-.849.582-1.243.132-.19-.174-.425-.32-.25-.379.469-.787.98-.787 1.61 0 .16.16.292.32.248zm4.777 1.491c.117.044.262-.044.291-.16.015-.074.015-.162.03-.235.014-.117.087-.234.145-.35.102-.206.233-.396.379-.571.175-.19-.087-.468-.291-.293-.277.264-1.253 1.36-.554 1.61zm-14.011-4.71c.116.03.204-.043.247-.146.102-.248.219-.468.394-.658.145-.16-.073-.395-.233-.234-.233.22-.437.498-.554.79-.029.102.058.22.146.249zm10.676 3.262c0-.014.014-.029.014-.044a.093.093 0 000-.087c.044-.41.32-.776.496-1.156.102-.22-.204-.41-.335-.19-.248.41-.714.878-.67 1.404.029.278.407.366.495.073zm6.947 2.501c.16 0 .204-.16.233-.278.044-.146.073-.307.073-.453 0-.278-.422-.278-.437 0-.014.146-.058.278-.087.424 0 .117.044.293.218.307zm-.932-.292c.16.073.335-.015.35-.205.014-.22 0-.38.087-.585.073-.205.175-.38.233-.585.073-.249-.32-.424-.422-.176-.16.366-.86 1.258-.248 1.55zm19.663-12.213c-.335 1.14-.627 2.282-.714 3.466-.073.907-.16 2.136.233 2.984.03.073.175.088.219 0 .35-.804.043-1.857.072-2.72.03-1.229.292-2.443.598-3.628.058-.248-.335-.35-.408-.102zm-20.9 11.496c.043-.35.145-.585.378-.848.19-.205-.102-.512-.306-.307-.32.307-.583.687-.583 1.155-.014.337.466.322.51 0zm-3.555-1.097c-.029-.19.102-.439.19-.6.102-.204.233-.38.35-.57.13-.22-.19-.38-.336-.19-.277.38-.888 1.024-.64 1.55.13.234.48.044.436-.19zm1.253.497c.102-.336.277-.687.524-.95.16-.176-.087-.424-.262-.264-.277.278-.655.746-.64 1.17 0 .22.305.264.378.044zm-19.197-6.347c.073-.234.131-.468.292-.658.16-.176-.088-.425-.263-.264-.218.22-.334.512-.451.805-.087.263.335.38.422.117zm33.237-23.84c.365.087.54-.22.554-.542a.168.168 0 00-.262-.146c-.19.102-.16-.044-.19-.22a2.564 2.564 0 01-.029-.746 4.55 4.55 0 01.364-1.389c.117-.263-.262-.497-.393-.234-.393.775-.699 1.755-.524 2.633.043.263.19.585.48.643zm-1.908 1.067c.35-.015.437-.337.394-.614-.015-.103-.146-.132-.219-.088-.16.088-.16-.015-.19-.205-.043-.278-.014-.57.03-.848a5.065 5.065 0 01.583-1.77c.13-.249-.233-.483-.394-.234-.51.848-1.063 2.18-.772 3.174.073.248.263.585.568.585zm3.758-1.77c.16-.073.219-.16.291-.322.044-.087.03-.204-.058-.248a.437.437 0 00-.204-.059c-.13-.424 0-.98.073-1.36.102-.483.233-.965.408-1.433.102-.293-.335-.395-.452-.132-.378.892-1.063 2.516-.48 3.437.087.146.262.19.422.117zm7.982 2.91c.364-.965.539-2.047 1.034-2.968.102-.19-.175-.351-.277-.161-.437.79-.597 1.682-.917 2.515-.408 1.068-.816 2.136-1.166 3.218-.364 1.156-.742 2.297-1.223 3.408-.408.95-.932 1.887-1.18 2.896-.029.117.131.19.204.088 1.121-1.77 1.864-3.905 2.476-5.91.32-1.023.67-2.061 1.049-3.085zm-3.336-.321c.32-.878.408-1.814.845-2.647.087-.161-.145-.293-.248-.147-.407.732-.553 1.536-.815 2.326-.32 1.01-.801 1.96-1.136 2.954a222 222 0 01-1.034 2.852c-.19.512-.408 1.024-.583 1.536-.16.439-.233.922-.466 1.331-.058.103.073.19.146.117.582-.512.757-1.404 1.02-2.091.363-.98.742-1.975 1.063-2.97.378-1.111.815-2.179 1.208-3.261zm-18.395-.717a.18.18 0 00.029-.19c-.117-.175-.262-.22-.335-.439-.087-.292-.014-.687.015-.98.072-.526.218-1.023.378-1.52.073-.25-.306-.352-.393-.103-.248.717-.51 1.477-.553 2.223-.015.293 0 .673.204.907.174.19.48.307.655.102zM6.757 42.122a.408.408 0 00.117-.307c0-.058-.087-.058-.073 0 0 .103 0 .19-.073.278-.043.015 0 .059.03.03zm52.653-5.88c.116.103.29.03.29-.116.015-.483.394-1.01.642-1.404.276-.44.568-.849.874-1.273.175-.248-.219-.468-.394-.234-.393.527-.786 1.053-1.136 1.609-.203.322-.699 1.053-.276 1.419zm-40.811 11.57a4.78 4.78 0 00.364-.892c.073-.264-.306-.351-.393-.103-.117.278-.306.527-.394.82-.072.248.306.424.423.175zm14.186-25.098c.058-.015.102-.088.087-.147-.058-.175-.145-.321-.174-.512-.03-.277.043-.585.102-.848.102-.453.276-.907.29-1.375 0-.248-.363-.248-.392 0-.015.278-1.02 3.276.087 2.882zm28.212 13.134c.291.132.32-.22.394-.424.145-.44.465-.82.757-1.17.19-.234-.146-.556-.32-.322-.394.497-.889 1.053-.918 1.726-.015.073.029.16.087.19zm-3.422 1.404c.072.03.145-.03.16-.088.218-.673.393-1.316.699-1.974.466-1.01.976-1.99 1.587-2.926.16-.234-.218-.438-.364-.219-.32.468-3.335 4.812-2.082 5.207zM11.01 44.594c.146-.292.263-.57.423-.848.102-.19-.16-.322-.277-.161-.19.263-.437.527-.539.848-.058.22.291.38.393.161zm3.816 1.858c.16-.234.277-.497.437-.746.132-.22-.189-.395-.335-.205-.16.234-.32.468-.466.717-.174.248.204.468.364.234zm-2.883-1.39c.102-.22.174-.424.335-.614.145-.146-.073-.366-.219-.22-.204.19-.35.44-.422.703-.044.175.218.321.306.131zm-4.56-2.53c0-.205.074-.38.146-.556.073-.16-.145-.292-.233-.132-.116.22-.203.44-.233.703-.029.19.306.19.32-.015zm8.565 4.344c.204-.249.291-.6.466-.878.117-.204-.19-.38-.32-.19-.19.264-.38.57-.496.863-.087.19.219.366.35.205zm.976.834c.262-.015.306-.278.408-.483.102-.22.218-.439.35-.644.145-.219-.205-.424-.35-.204a5.54 5.54 0 00-.379.629c-.102.19-.291.41-.16.628.029.044.087.088.13.074zm-4.093-2.107c.058-.234.073-.453.233-.643.146-.176-.087-.424-.248-.249-.218.205-.378.541-.349.863.03.176.32.249.364.03zm-4.18-2.281c.116-.205.175-.424.335-.614.146-.161-.087-.395-.248-.25-.218.206-.393.469-.437.761-.014.205.263.249.35.103zm-.874-.234c.204.044.233-.264.291-.395.088-.19.219-.351.292-.556.072-.205-.233-.278-.32-.088-.074.19-.248.337-.336.527-.073.146-.145.468.073.512zm1.296.629c.03.044.073.058.117.044.131-.044.19-.205.233-.322.058-.132.131-.249.233-.351.131-.147-.073-.351-.219-.22a1.468 1.468 0 00-.29.38c-.074.118-.176.337-.074.469zm1.064.424c.072-.249.189-.483.262-.731.044-.176-.219-.308-.306-.132-.117.263-.35.497-.35.819 0 .22.335.278.394.044zm68.586-4.71c-.583-.863-1.88-1.36-2.899-1.55-.16-.205-.407-.351-.684-.293-.233-.424-.32-.994-.35-1.448-.087-.921-.146-1.901.058-2.793.175-.775.219-1.58.408-2.355.146-.585.35-1.14.54-1.711l.392-.22c.452-.248.86-.57 1.311-.848.423-.263.816-.527 1.15-.907.438-.526.132-1.228-.538-1.302-1.617-.16-3.059-.994-4.53-1.623-1.718-.717-3.408-1.477-5.112-2.209-.64-.277-1.282-.526-1.923-.79-.072-1.564-.407-3.07-1.543-4.27-.132-.132-.263-.263-.408-.38a32.54 32.54 0 002.068-.878c.495-.234.961-.512 1.471-.731.451-.205.874-.366 1.107-.834.874-1.682-1.864-2.984-3.059-3.32-2.17-.63-4.326-1.17-6.423-1.99-2.243-.877-4.515-1.696-6.714-2.647-2.083-.906-4.21-1.755-6.278-2.705a33.32 33.32 0 00-3.087-1.258c-1.093-.366-2.287-.717-3.307-1.273-.655-.35-1.18-.775-1.864-.965-.452-.336-1.282-.132-1.282.6v.014c-1.937.907-4.034 1.463-6.044 2.18a95.682 95.682 0 00-6.365 2.486c-2.185.95-4.311 2.018-6.525 2.896-1.893.746-3.83 1.419-5.724 2.194-1.122.468-2.636 1.126-2.913 2.472-.35 1.696 1.704 2.969 2.928 3.627 2.17 1.155 4.442 2.047 6.743 2.881-.16 1.872-.03 3.774-.015 5.66-1.107.278-2.14.864-3.131 1.405-1.15.629-2.258 1.33-3.379 2.003-2.33 1.39-4.704 2.736-6.918 4.315-1.88 1.346-3.656 2.881-4.763 4.944-1.107 2.047-1.486 4.548-.787 6.8 1.122 3.599 4.676 5.398 7.982 6.539 4.66 1.609 9.409 2.983 14.128 4.417 2.884.877 5.753 1.828 8.622 2.779 2.782.921 5.535 1.96 8.055 3.495a.779.779 0 00.48.117.431.431 0 00.423.015c1.53-.79 3-1.697 4.5-2.545 1.588-.892 3.234-1.682 4.821-2.574 3.16-1.74 6.35-3.393 9.555-5.017 3.306-1.682 6.583-3.437 9.846-5.192 1.53-.82 3.058-1.653 4.602-2.443.728-.365 1.457-.746 2.127-1.199.582-.395 1.121-.76 1.748-1.053 1.063-.439 2.33-1.273 1.5-2.516zm-4.457-8.57c-.233.54-.335 1.082-.51 1.637-.146.469-.35.937-.422 1.42-.146 1.067-.102 2.222.072 3.275.059.352.175.776.365 1.127a80.06 80.06 0 00-2.389 1.448c.233-.688.248-1.99.277-2.224.058-.848.145-1.696.276-2.544.088-.6.16-1.2.292-1.785.13-.585.335-1.14.35-1.74.014-.278-.394-.264-.423 0-.058.6-.306 1.14-.452 1.725-.145.542-.218 1.097-.32 1.653-.131.76-.262 1.521-.306 2.282-.029.541-.073 1.082-.116 1.623-.03.264-.044.527-.073.805 0 .088-.044.482-.015.424-.014.044-.029.088-.014.117-.408.249-.816.512-1.224.76.102-.409.131-.848.16-1.257.073-.82.102-1.624.16-2.443.117-1.55.074-3.174.7-4.622a.206.206 0 00-.03-.204c.743-.483 1.486-.98 2.258-1.42.612-.35 1.238-.687 1.85-1.038-.16.308-.32.63-.466.98zm-7.093 3.29c.451.03.699-.234 1.092-.468.146-.088.291-.16.437-.234-.146.57-.335 1.156-.466 1.726a20.237 20.237 0 00-.306 1.843c-.087-1.038-.364-1.93-.757-2.867zm.364 6.48c-.073.555-.175 1.111-.248 1.667-.335.19-.655.38-1.005.556.262-.424.554-.834.801-1.273.19-.307.335-.629.452-.95zm.495.511c.146-1.053.219-2.12.32-3.173.102-.995.19-1.975.365-2.955.102-.57.233-1.155.305-1.74.248-.117.496-.234.729-.38.174-.103.35-.22.524-.322-.553 1.228-.67 2.56-.772 3.89-.058.775-.145 1.55-.19 2.326-.043.79-.203 1.609-.218 2.413-.35.22-.684.424-1.034.629-.029.014-.073.044-.102.058.03-.248.044-.511.073-.745zm-1.398-13.25c-.058-1.449-.146-2.882-.102-4.33.014-.263.014-.541.014-.805.685.293 1.355.6 2.025.907 1.646.76 3.292 1.536 4.967 2.267.96.424 1.864.892 2.825 1.229-.379.263-.743.512-1.15.731-.99.541-1.967 1.126-2.957 1.668a35.137 35.137 0 00-2.84 1.74c-.714.483-1.53.82-2.243 1.302a.84.84 0 00-.597.292 1.022 1.022 0 00-.306-.307c.51-1.462.422-3.188.364-4.695zm-1.427 5.66c.029.029.043.073.087.102.014 0 .058.014.087.058.044.03.088.044.146.059-.058-.015-.088-.015-.131-.03.014.015.029.044.029.074.044.146.102.292.175.424.204.439.422.834.582 1.302.32.994.379 2.15.306 3.188-.073 1.068-.553 1.916-1.136 2.78-.175.262-.335.526-.48.789l-.132-.307c-.466-1.097-.932-2.223-1.208-3.394-.248-1.038-.306-2.15.043-3.173.175-.483.452-.98.816-1.346.233-.234.539-.351.816-.527zm-1.748 10.735a3.307 3.307 0 01-.335.146c.014-.19 0-.395.014-.6.015-.394.03-.774.102-1.155.19.527.32 1.083.219 1.61zm1.369-23.577c-.379-.161-.758-.322-1.136-.498-1.355-.6-2.651-1.243-4.108-1.477 1.093-.438 2.2-.863 3.292-1.301 1.31.73 1.792 1.945 1.952 3.276zm-6.132-3.379c-.146-.248-.175-.526-.16-.804.145.014.291.044.451.058.364.059.743.088 1.122.132v.058c-.48.205-.947.38-1.413.556zm7.894-4.636c.058.029.117.058.175.102.175.117.364.249.539.395-.03.117-.044.234-.058.351-.015.102-.03.19-.044.293l-.219.087c-.306.132-.597.278-.903.41.044-.512.175-1.2.481-1.594.015-.015.03-.03.03-.044zm-55.012 1.287c-.305-.293-.553-.556-.262-.95a1.86 1.86 0 01.466-.425c-.043.453-.101.921-.204 1.375zm7.735 3.817c-.452-.16-.889-.336-1.34-.497-.03-.132-.059-.263-.044-.41.029-.497.16-1.082.422-1.506.117-.205-.19-.395-.32-.19-.262.41-.393.907-.48 1.375-.03.16-.06.35-.06.54-.334-.13-.67-.262-.99-.394-.043-.015-.102-.044-.145-.059a2.9 2.9 0 01.378-1.872c.117-.19-.174-.35-.29-.175-.161.234-.569 1.228-.54 1.857-.32-.131-.64-.263-.961-.41 0-.014-.015-.029-.015-.058-.043-.278 0-.556.059-.819.087-.395.233-.775.306-1.185.043-.219-.277-.307-.335-.087-.102.41-.525 1.257-.54 1.901a21.43 21.43 0 01-.815-.41c0-.087.015-.16.015-.248.043-.483.13-.965.204-1.463.029-.22-.292-.307-.335-.088-.088.469-.175.937-.248 1.405-.015.058-.015.117-.03.175-.218-.131-.436-.263-.655-.41.03-.233.044-.482.088-.701.087-.425.19-.849.247-1.273.03-.175-.233-.248-.262-.073-.102.527-.364 1.17-.437 1.784a2.139 2.139 0 01-.276-.234c.13-.672.116-1.638.101-1.799 0-.014 0-.029-.014-.043.277-.161.583-.278.83-.396 1.864-.819 3.802-1.462 5.695-2.237 2.2-.892 4.311-1.96 6.467-2.94 2.17-.995 4.37-1.945 6.598-2.823 2.024-.79 4.005-1.492 5.811-2.676a.88.88 0 00.553.248c.423.03.787.337 1.137.556.364.234.728.424 1.136.585 1.034.41 2.068.79 3.117 1.14 1.951.674 3.786 1.624 5.724 2.326 1.966.717 3.86 1.638 5.825 2.37 2.083.775 4.151 1.594 6.263 2.267.947.307 1.894.6 2.84.907.714.234 1.5.41 2.2.731-.32.307-.51.819-.656 1.229-.087.248-.203.585-.189.892-.379.175-.743.336-1.136.497-.014-.293.146-.717.204-.907.117-.424.262-.819.379-1.243.058-.22-.277-.38-.365-.16-.262.599-.597 1.17-.771 1.798a2.445 2.445 0 00-.059.76c-.276.118-.568.235-.844.337-.03-.015-.059-.015-.088-.03.131-.672.364-1.33.379-2.032 0-.264-.379-.249-.393 0-.044.658-.38 1.228-.583 1.857-.16-.044-.32-.073-.48-.102l-.83-.132c.043-.336.101-.672.218-.98.073-.204-.233-.321-.335-.146a4.521 4.521 0 00-.408 1.053c-.48-.058-.976-.117-1.457-.16.044-.074.073-.147.131-.206.16-.204-.102-.482-.29-.292a2.545 2.545 0 00-.278.453l-1.092-.131c-3.146-.424-6.292-.76-9.467-.995-3.481-.248-6.933-.629-10.429-.35a.187.187 0 00-.043.365c1.281.453 2.563.497 3.903.629 1.457.146 2.913.38 4.37.512 3.014.292 6.059.497 9.059.936.597.087 1.209.175 1.806.263-.219.76-.364 1.667-.015 1.945-.568.22-1.15.454-1.718.688 0-.117-.03-.249-.03-.366.015-.687.088-1.507.35-2.135.102-.234-.291-.395-.408-.176-.29.6-.437 1.346-.538 2.004-.03.175-.044.6.029.921-.54.22-1.078.454-1.617.688h-.015c-.189-.015-.16.073-.145-.146.014-.117 0-.25 0-.38.058-.659.204-1.361.48-1.975.102-.249-.247-.468-.378-.22-.38.775-.772 1.77-.714 2.662a.909.909 0 00.116.351c-.087.044-.174.073-.247.117-.291.132-.568.264-.86.395.015-.102-.072-.22-.189-.175-.816.307-.073-2.165.088-2.516.101-.249-.248-.468-.38-.22-.378.746-.844 1.858-.654 2.706a.909.909 0 00.393.57c-1.384.659-2.738 1.346-4.122 2.034-.918.453-1.864.892-2.855 1.229.03-.015.058-.03.073-.059a.914.914 0 00.248-.468c.029-.146-.088-.249-.219-.22a.493.493 0 00-.175.059c-.335-.673.32-2.15.568-2.691.117-.263-.262-.498-.393-.234-.437.848-1.442 2.881-.393 3.598.058.044.146.044.218.03-.466.16-.932.292-1.398.38 0-.015.015-.044.015-.06.014-.13-.131-.233-.233-.13-.437.409-.263-1.376-.233-1.507.087-.527.247-1.039.407-1.565.088-.278-.335-.395-.437-.117-.32.921-.932 2.296-.582 3.276.029.088.073.175.13.249-.087.014-.16.014-.247.029-.291.03-.582.03-.874.015l-.029-.03c-.043-.058-.058-.058-.072-.044-.059-.307-.03-.628 0-.936.058-.672.16-1.36.349-2.003.073-.264-.335-.38-.422-.117a11.699 11.699 0 00-.51 2.354c-.015.117-.03.44.029.732-.35-.03-.7-.088-1.049-.161-.014-.015-.014-.044-.029-.059-.306-.395-.291-.702-.204-1.214.073-.438.19-.95.423-1.345.145-.249-.233-.468-.379-.22-.364.57-.568 1.375-.626 2.048a1.72 1.72 0 00.087.614c-.218-.058-.451-.117-.67-.19.015 0 .03-.014.03-.014a.197.197 0 00.087-.205c-.059-.205-.248-.322-.32-.542-.103-.35-.015-.79.043-1.14.087-.541.291-1.083.306-1.638 0-.264-.393-.264-.408 0-.058.804-.466 1.55-.524 2.354-.015.22.043.702.218.995a27.753 27.753 0 01-1.544-.57c-1.02-.395-2.039-.834-3.058-1.258 0-.03-.015-.059-.015-.103-.058-.292-.218-.497-.218-.819a4.846 4.846 0 01.407-1.974c.102-.234-.218-.424-.335-.205-.305.614-.815 1.96-.539 2.794-.335-.147-.684-.278-1.02-.425-.188-.76-.072-1.784.321-2.457.131-.234-.218-.453-.364-.22-.291.454-.408 1.04-.495 1.566-.044.263-.087.585-.058.877-.073-.029-.131-.058-.204-.087-.32-.132-.641-.249-.961-.366-.19-.82.16-1.784.335-2.56.058-.248-.306-.35-.38-.102-.174.629-.625 1.638-.553 2.443-.378-.147-.757-.278-1.136-.41.059-.804.204-1.609.204-2.413 0-.264-.393-.264-.408 0-.029.746-.218 1.477-.305 2.223l-1.137-.395c.03-.717.117-1.375.365-2.077.087-.22-.263-.307-.35-.102a6.736 6.736 0 00-.495 2.003c-.379-.131-.743-.263-1.122-.394-.043-.132-.029-.264-.029-.395.015-.644.248-1.258.262-1.902 0-.263-.378-.248-.393 0-.044.63-.32 1.229-.364 1.858v.263c-.306-.102-.612-.22-.918-.322v-.014c-.029-.103-.116-.19-.145-.293-.044-.146-.015-.322 0-.468.058-.643.32-1.258.335-1.901 0-.22-.306-.205-.32 0-.059.643-.394 1.243-.481 1.887-.015.102-.03.336 0 .555a27.79 27.79 0 01-1.005-.365c.087-.176-.03-.512-.015-.717.044-.6.219-1.2.393-1.77.073-.234-.276-.322-.35-.102-.043.263-.538 1.843-.422 2.486zm38.174 11.803c-.364.878-.816 1.8-.99 2.72-1.02.864-2.302 1.449-3.496 1.975-1.893.82-3.83 1.522-5.84 1.99-4.472 1.038-8.812.248-13.255-.512-2.199-.38-4.413-.776-6.568-1.36-1.632-.44-3.365-.98-4.676-2.092-1.835-1.55-1.937-3.774-1.864-6.011.058-2.121-.029-4.403-.495-6.509 1.587.556 3.175 1.097 4.748 1.697 2.2.819 4.37 1.682 6.51 2.618 2.01.877 4.035 1.77 6.19 2.194 3.788.73 7.08-.849 10.342-2.516-.496.848-.903 1.945-.714 2.779.03.102.16.088.19 0 .16-.556.203-1.126.378-1.682.146-.454.335-.892.568-1.302a27.8 27.8 0 01.932-.468c-.364.717-.67 1.463-.917 2.223-.32 1.01-.685 2.238-.437 3.291.029.102.174.102.204 0 .276-1.038.306-2.135.611-3.174.262-.877.597-1.726.976-2.56.073-.043.16-.072.233-.116.51-.249 1.02-.498 1.544-.732-.466 1.331-.976 2.633-1.47 3.964-.453 1.214-.919 2.604-1.093 3.876-.015.132.145.22.218.088.728-1.185.86-2.72 1.355-4.022.495-1.287.903-2.59 1.31-3.906.015-.058 0-.117-.029-.146 1.34-.614 2.71-1.185 4.079-1.74-.918 2.003-1.66 4.08-2.404 6.157-.422 1.2-.8 2.413-1.209 3.627-.393 1.2-.946 2.37-1.281 3.584-.03.132.13.175.204.088.713-.936 1.078-2.18 1.456-3.291.393-1.17.728-2.355 1.136-3.525.801-2.296 1.559-4.607 2.535-6.83.495-.205.99-.395 1.47-.585-.029 1.404.059 2.808.19 4.197-.073-.03-.146 0-.204.088-.772 1.419-1.223 2.984-1.835 4.476a34.12 34.12 0 00-.801 2.34c-.277.863-.656 1.71-.83 2.603-.03.146.145.22.233.102.96-1.301 1.136-3.086 1.718-4.578.597-1.52 1.02-3.13 1.748-4.607l.175 1.61c.073.584.116 1.198.13 1.784-.218.76-.684 1.477-.975 2.194zm.947-.98c-.102.922-.379 1.8-.932 2.604-.059.088-.117.16-.19.249.292-.673.51-1.39.758-2.048.116-.263.233-.527.364-.805zm-.35-11.057c-.335.132-.684.263-1.02.395v-.015c.015-.087-.028-.146-.101-.16-.073-.293 0-.79.043-1.097.015-.117.03-.234.044-.366l.903.132c-.087.468-.073.892.131 1.111zM5.621 34.84c2.229-1.77 4.734-3.203 7.137-4.71 1.21-.746 2.389-1.536 3.598-2.267.961-.585 2.01-1.053 2.956-1.667 0 .087 0 .175-.014.263-.087 2.077.029 4.212 1.325 5.938 1.165 1.536 2.913 2.428 4.676 3.042a.27.27 0 00.102.03c-.073.087-.16.16-.233.234-.263.248-.554.482-.743.79-.044.058.029.131.087.087.335-.22.612-.526.889-.804.072-.073.145-.161.218-.234.335.117.685.22 1.02.322-.277.233-.583.497-.7.848-.029.087.073.117.132.073.305-.249.582-.556.888-.82l.015-.014c.262.073.51.132.772.205 0 0 0 .015-.015.015-.233.263-.568.585-.568.95 0 .088.102.147.175.103.306-.176.51-.6.728-.878.03-.03.044-.058.073-.088.393.088.8.176 1.194.264-.087.102-.16.204-.247.292-.204.249-.496.541-.452.892 0 .074.087.147.16.088.291-.205.48-.6.714-.877.087-.103.16-.205.248-.308.393.074.786.147 1.165.22-.117.131-.219.263-.335.395-.204.263-.466.54-.408.907.014.073.116.116.175.073.305-.176.51-.6.728-.878.102-.132.204-.278.306-.41.19.03.364.074.553.103.03 0 .044.014.073.014a6.867 6.867 0 00-.291.395c-.19.278-.568.776-.379 1.127.03.073.117.073.175.043.291-.131.408-.584.553-.848a3.57 3.57 0 01.408-.629c.393.073.772.147 1.165.205a5.059 5.059 0 00-.32.453c-.175.278-.568.79-.452 1.141.03.073.102.132.19.103.32-.117.408-.57.553-.849.131-.263.277-.555.48-.775l1.268.22c-.146.19-.291.38-.422.585-.233.35-.627.833-.496 1.287.03.087.132.131.204.087.364-.219.51-.76.729-1.111.145-.263.305-.512.48-.76.495.087 1.005.16 1.515.233-.19.278-.379.57-.553.863-.175.293-.554.717-.408 1.068.029.073.087.117.16.088.364-.088.495-.614.655-.922.19-.35.408-.702.627-1.038.378.058.772.102 1.15.146-.16.205-.32.395-.466.614-.13.19-.626.878-.204 1.039.335.132.568-.629.7-.82.174-.262.349-.511.51-.76.45.044.902.073 1.368.103-.087.102-.16.204-.247.307-.219.278-.583.687-.452 1.067.03.088.117.117.19.074.32-.161.495-.673.699-.966.116-.16.218-.322.335-.482.393.014.786.029 1.18.014l-.175.263c-.248.395-.598.937-.394 1.405.044.087.16.087.233.029.364-.307.466-.922.7-1.316.072-.132.16-.264.247-.38a39.42 39.42 0 001.31-.074c-.13.176-.261.336-.392.512-.277.395-.656.892-.554 1.404.015.073.131.132.19.073.407-.292.597-.863.859-1.272.175-.264.364-.527.539-.775.364-.044.713-.103 1.078-.161.35-.059.713-.132 1.063-.22-.452.63-.932 1.258-1.194 2.004-.03.088.087.19.16.132.524-.366.772-1.01 1.092-1.55.131-.235.277-.454.422-.688.583-.146 1.151-.307 1.72-.483a9.898 9.898 0 01-.307.41c-.51.643-1.31 1.433-1.267 2.31 0 .103.146.176.218.088.51-.614.845-1.389 1.34-2.032.219-.293.452-.659.7-1.01a37.464 37.464 0 002.126-.819c-.175.234-.35.454-.524.688-.291.41-.51.863-.758 1.287-.218.38-.466.731-.568 1.17-.014.102.088.19.175.132.743-.498 1.034-1.507 1.5-2.238.32-.498.67-.951 1.034-1.419.496-.22.976-.439 1.457-.673l-.524.79c-.583.863-1.37 1.784-1.617 2.823-.03.131.131.234.233.131.743-.745 1.267-1.799 1.85-2.676.335-.512.655-1.01.96-1.536.773-.439 1.501-.95 2.127-1.594-.393.673-.8 1.33-1.18 2.018-.553 1.01-1.63 2.063-1.529 3.306.015.117.146.131.19.029.466-1.155 1.238-2.106 1.82-3.203.32-.6.67-1.185 1.005-1.785.277-.497.495-1.053.918-1.433.16-.146 0-.35-.175-.322.787-1.418 1.005-3.086.918-4.753-.146-2.56-.554-5.06-.437-7.635 0-.03.014-.058.014-.102v-.015c1.806 1.112 3.729 2.004 5.68 2.852 0 .307-.014.63-.014.936-.058 1.463-.03 2.91.015 4.359.029.848.058 1.696.029 2.545-.03.907-.19 1.784-.233 2.676v.132c-1.486.263-2.433 1.828-2.768 3.335a768.545 768.545 0 01-10.05 6.128c-2.184 1.316-4.383 2.618-6.626 3.847-.816.453-1.617.892-2.447 1.301-.612.308-.962.498-1.457.644-1.427.439-2.884-.673-4.194-1.112a48.582 48.582 0 01-1.559-.54c-1.908-.659-3.801-1.346-5.71-2.02-4.762-1.696-9.51-3.407-14.288-5.074-1.63-.57-3.262-1.127-4.879-1.697-1.646-.585-3.219-1.477-4.996-1.536a4.935 4.935 0 00-1.602.22c.466-.468.976-.922 1.5-1.331zM62.6 44.667c-.437.19-.888.395-1.325.57.175-1.403.466-2.764.83-4.153.073-.278-.35-.395-.422-.117-.32 1.126-.67 2.238-.903 3.393-.059.293-.16.775-.059 1.112-.305.131-.597.263-.902.41.16-.322.13-.659.145-1.04.015-.555.03-1.11.073-1.666.087-1.141.277-2.268.597-3.364.087-.264-.32-.38-.422-.117a14.492 14.492 0 00-.728 3.217 21.37 21.37 0 00-.117 1.668c-.015.482-.073.965.16 1.39 0 .014.015.014.03.028-1.938.936-3.788 2.092-5.652 3.174-.116.059-.233.132-.335.19.248-.921-.014-2.077.044-2.998.058-1.2.408-2.355.582-3.54.015-.102-.043-.16-.116-.204a394.755 394.755 0 004.165-2.53c-.262 1.17-.597 2.325-.742 3.524-.073.585-.073 1.156-.073 1.74 0 .513-.044 1.01.175 1.478a.124.124 0 00.218 0c.437-.921.117-2.15.218-3.145.132-1.243.423-2.471.656-3.685a.204.204 0 00-.03-.161c1.05-.644 2.113-1.302 3.161-1.946.088 1.068.35 2.121.714 3.13.117.308.262.644.423.98-.365.761-.554 1.829-.365 2.662zm-9.423 4.915c-.568.322-1.136.658-1.69.994 0-.248-.029-.497-.043-.746-.03-.658-.044-1.287.014-1.945.059-.658.102-1.33.16-1.989.059-.644.248-1.273.263-1.93v-.015c.655-.395 1.31-.776 1.966-1.17-.291 1.155-.685 2.267-.801 3.466-.088.98-.233 2.37.13 3.335zm-2.316.234c.015.35 0 .746.073 1.097-.146.088-.291.175-.437.278-.918.585-1.85 1.082-2.811 1.565.262-.995.16-2.15.247-3.16.102-1.199.32-2.384.467-3.583.422-.249.83-.483 1.252-.731-.291 1.082-.437 2.194-.524 3.32-.058.673-.35 2.15.262 2.618.087.058.218 0 .233-.102.16-.834-.014-1.785.044-2.633.073-1.17.19-2.34.466-3.481.335-.205.67-.395 1.005-.6.116-.073.233-.132.35-.205-.074.57-.277 1.112-.35 1.682-.088.658-.16 1.331-.233 1.99a9.66 9.66 0 00-.044 1.945zm-3.466 3.071l-.263.132c-.407.205-.815.424-1.209.658.117-.995.103-2.048.146-3.028.044-.745.19-1.491.233-2.237.03-.425 0-.834.058-1.244.525-.292 1.05-.6 1.573-.892-.189 1.053-.407 2.106-.538 3.174-.131 1.082-.32 2.37 0 3.437zm-2.069 1.126c-.306.176-.597.366-.888.556.218-1.024.116-2.164.218-3.188.102-1.156.32-2.326.394-3.481.276-.146.553-.307.83-.468l-.044.482c-.058.732-.204 1.463-.262 2.194-.058.732-.073 1.463-.131 2.194-.073.57-.146 1.156-.117 1.711zm-1.369.863c-.262.176-.524.337-.8.498-.161.102-.321.204-.481.292.043-.38.043-.76.072-1.111.059-.746.146-1.478.233-2.224.146-1.17.292-2.34.423-3.525.422-.219.83-.453 1.223-.672-.145 1.082-.378 2.164-.495 3.247-.073.643-.087 1.287-.117 1.93-.029.527-.087 1.053-.058 1.565zm-1.806 1.097c-.218.117-.437.234-.655.366-.16-.38-.248-.79-.379-1.17-.014-.044-.029-.073-.044-.117.248-.088.233-.307.263-.541.072-.658.174-1.302.262-1.946.145-1.067.437-2.12.597-3.188.277-.102.553-.22.816-.351a57.904 57.904 0 00-.496 3.188c-.102.732-.189 1.478-.247 2.224-.059.468-.146 1.023-.117 1.535zM40.912 54.6c-.175-.512-.364-1.039-.51-1.566.16-.614.175-1.316.263-1.945.058-.482.16-.965.218-1.448.291-.014.583-.073.874-.146-.204.775-.437 1.55-.568 2.355-.087.512-.146 1.038-.218 1.565-.03.278-.088.585-.088.877 0 .103.015.205.03.308zM6.015 39.066c.32-.176.48-.556.64-.849.132-.234.263-.482.408-.716.03.014.059.014.088.029.247.088.51.19.757.292l-.466.556c-.262.307-.553.585-.699.965-.03.074.073.147.131.103.35-.205.583-.556.83-.863.16-.205.32-.424.48-.644.248.103.51.22.758.337-.087.146-.19.278-.291.41-.175.219-.379.409-.539.628-.044.073.03.176.117.147.276-.103.466-.366.64-.586.117-.16.233-.321.335-.497.263.117.54.234.801.351-.058.073-.116.161-.189.234-.145.176-.32.351-.379.57-.029.088.073.161.16.118.22-.132.38-.366.54-.556.058-.073.116-.161.174-.234.088.03.175.073.262.102.219.073.423.161.641.234-.29.307-.582.717-.699 1.126-.014.074.073.147.131.103.379-.249.54-.702.86-1.024.029-.03.029-.044.043-.073.248.088.496.175.729.278-.073.146-.16.278-.248.41a3.632 3.632 0 01-.277.38c-.072.087-.19.175-.204.307-.014.073.015.131.088.16.291.103.539-.307.67-.511a8.5 8.5 0 00.32-.63c.262.103.54.206.801.293-.16.205-.364.395-.51.615-.101.16-.32.585-.043.702.233.102.335-.322.422-.468.146-.25.364-.44.524-.688.335.117.656.249.99.366a9.646 9.646 0 01-.363.439c-.19.219-.452.424-.48.73-.015.089.101.176.188.147.292-.102.481-.424.67-.658.132-.175.248-.336.365-.527.204.074.407.147.597.22-.131.175-.233.366-.35.556-.145.234-.379.468-.393.746 0 .087.087.16.175.131.276-.088.408-.395.539-.629.13-.22.247-.453.393-.672.379.146.772.277 1.15.424-.116.16-.218.307-.334.468-.146.19-.394.395-.437.643-.015.088.043.161.145.147.248-.044.394-.308.525-.512.145-.205.262-.425.407-.63.102.044.204.074.306.118-.13.234-.277.468-.408.702-.16.248-.393.497-.422.79-.014.087.102.16.175.131.291-.102.437-.41.582-.673.16-.263.306-.54.466-.819.292.103.598.22.889.322-.102.146-.19.307-.277.468-.145.278-.422.585-.48.907-.015.102.058.205.174.175.32-.073.466-.395.598-.672.116-.249.233-.512.378-.746.175.058.35.131.524.19-.305.541-.902 1.038-.699 1.696.03.088.146.117.204.059.306-.293.335-.79.554-1.155.102-.161.19-.322.262-.483.35.132.7.248 1.049.38-.102.19-.292.336-.423.497-.19.234-.335.454-.291.761.03.19.335.22.422.059.131-.278.277-.483.466-.732.102-.131.19-.278.248-.424.218.073.437.16.64.234-.276.351-1.033 1.17-.582 1.39.262.117.393-.308.495-.454.16-.263.38-.497.525-.775.247.088.495.175.757.263-.218.22-.495.483-.51.79 0 .175.219.263.335.132.102-.117.175-.264.277-.38.102-.118.204-.235.306-.337a.199.199 0 00.044-.059c.204.074.422.147.626.22a3.035 3.035 0 00-.35.497c-.13.205-.276.483-.174.717.058.131.262.146.35.044.13-.147.16-.38.247-.541.087-.176.19-.351.32-.483.015-.015.03-.044.044-.059.218.073.422.147.64.234-.218.351-.582.615-.582 1.068 0 .249.379.307.437.059.102-.38.379-.615.568-.951 0-.015.015-.015.015-.03.262.088.51.176.772.279l-.015.014c-.19.263-.393.527-.553.82-.131.219.204.511.364.292.218-.278.393-.585.582-.878.015-.03.03-.058.03-.088l.611.22h-.014c-.219.205-.466.512-.54.819-.043.234.263.38.394.16.146-.233.233-.482.422-.687.044-.058.059-.117.044-.175.19.073.379.131.568.205h.015c-.19.321-.54.585-.598.965-.043.248.306.439.438.19.174-.322.393-.6.553-.921.015-.03.015-.059.03-.088.32.117.64.22.946.336a.242.242 0 00-.16.059c-.19.175-.38.38-.51.614-.117.19-.248.658.102.702.087.015.204 0 .233-.102.073-.161.058-.293.145-.454.088-.16.204-.322.335-.453.102-.117.059-.263-.043-.337.364.132.713.264 1.078.38-.117.162-.263.293-.35.469-.146.248-.19.585.146.702.16.058.305-.117.276-.278-.029-.102.03-.22.117-.366.073-.131.175-.248.233-.38.218.073.437.16.67.234-.277.249-.51.6-.554.936-.029.263.335.293.452.117.204-.292.277-.643.568-.863.015 0 .015-.015.015-.015.189.074.378.132.568.205-.219.293-.612.63-.51.995.058.205.393.278.495.058.044-.087.044-.117.087-.219.044-.088.088-.175.146-.249.087-.146.19-.278.262-.424.233.088.466.161.7.249.058.015.101.03.16.058-.102.161-.204.337-.277.527-.073.175-.219.512.014.643.248.132.364-.204.423-.38a5.12 5.12 0 01.291-.643l1.049.35c.903.308 1.762.79 2.665 1.083-.364 1.214-.408 2.486-.16 3.759.175.863.422 1.682.655 2.53.117.41.233.849.408 1.258-2.636-1.316-5.462-2.165-8.273-3.028-3-.906-5.986-1.857-8.972-2.793-3-.936-5.986-1.93-8.928-3.042a46.119 46.119 0 01-4.53-1.975C8.2 45.472 6.714 45.062 5.665 44.2c-1.078-.892-.99-2.457-.655-3.7.19-.673.48-1.287.86-1.872.101-.161.232-.307.349-.454-.16.249-.32.498-.394.76 0 .103.102.176.19.133zM40.11 51.907a5.827 5.827 0 01-.116-1.14c.014-.366.058-.761.073-1.156.101.015.189.03.29.03.074 0 .132 0 .205.014-.131.497-.263.994-.35 1.506-.029.249-.073.483-.102.746zm36.98-11.598c-.189.102-.393.19-.597.278-.597.263-1.121.6-1.66.98-1.326.921-2.826 1.535-4.253 2.267-1.442.746-2.84 1.565-4.268 2.31-3.015 1.58-6.015 3.218-9.059 4.754-3 1.521-5.972 3.086-8.914 4.724-1.587.892-3.233 1.682-4.792 2.618-.786.483-1.558.966-2.3 1.507-.38.278-.758.541-1.079.834-.058-.059-.116-.117-.203-.176-4.21-2.545-9.06-3.876-13.692-5.382-4.864-1.58-9.773-3.072-14.666-4.578-3.059-.936-6.802-1.843-8.9-4.476-1.252-1.58-1.514-3.715-1.02-5.646a8.313 8.313 0 011.108-2.486c.83-.614 1.908-.775 2.971-.644a8.58 8.58 0 00-1.413 1.99c-.568 1.096-.874 2.354-.786 3.583.087 1.287.786 2.238 1.82 2.954 1.268.863 2.782 1.448 4.151 2.136 3 1.521 6.322 2.574 9.526 3.627 3.248 1.068 6.51 2.062 9.773 3.072 3.627 1.126 7.297 2.135 10.734 3.788a.742.742 0 00.525.058c.058 0 .13 0 .203-.014.437-.132.83-.366 1.21-.6.524-.322 1.106-.541 1.645-.848 1.224-.688 2.403-1.434 3.612-2.136 1.15-.673 2.433-1.111 3.569-1.843a145.922 145.922 0 013.219-1.974c1.194-.717 2.417-1.375 3.626-2.062 1.15-.673 2.302-1.375 3.51-1.931 1.107-.512 2.214-.995 3.321-1.507.335.059.728-.043.961-.35.044-.06.073-.103.117-.162a50.095 50.095 0 002.65-1.345c1.355-.731 2.608-1.624 3.904-2.428a99.786 99.786 0 013.423-2.004c.058.03.146.059.218.073.38.073.758.19 1.122.351.204.088.408.19.597.307.058.044.204.132.306.22-.102.088-.204.146-.219.16zm-11.695-6.567c0-.015-.015-.015-.015-.03-.029-.014-.058-.044-.087-.058-.03 0-.015.044.102.088z" fill="#FFF06A"/></svg><svg fill="none" viewBox="0 0 61 59" id="3" xmlns="http://www.w3.org/2000/svg"><path d="M58.748 30.038c-.585-.113-1.204-.056-1.801-.022-.687.033-1.385.1-2.05.304a4.77 4.77 0 00-1.53.765c.303-.844.585-1.711.844-2.578.18-.608.338-1.216.484-1.824 1.892-.034 3.592-.98 4.875-2.364.653-.698 2.364-2.759.766-3.4-1.115-.45-2.68.168-3.57.81-.529.383-.979.856-1.362 1.385.225-1.464.372-2.939.417-4.425.675-.045 1.351-.675 1.846-1.07.63-.495 1.239-1.024 1.7-1.677.45-.63 1.6-2.747.237-3.107-.878-.226-1.96.529-2.556 1.092a6.47 6.47 0 00-1.272 1.655 28.983 28.983 0 00-.552-4.143l.057-.023.135-.068c1.373-.641 2.341-1.846 2.713-3.31.225-.9.45-1.891.462-2.826.01-.585-.192-1.26-.879-1.317-1.035-.079-1.925 1.239-2.341 2.038-.428.8-.699 1.678-.879 2.567-.01.034-.01.056-.022.09a25.842 25.842 0 00-1.407-3.479C52.048 3.062 50.495.957 48.344.033c-.135-.056-.236.113-.112.203.844.642 1.655 1.329 2.308 2.162.653.833 1.182 1.79 1.643 2.747a22.806 22.806 0 011.273 3.287c-.372-.439-.788-.855-1.205-1.238-1.227-1.103-2.77-1.903-4.447-1.959-.237-.011-.417.203-.428.428-.034.81.394 1.463.878 2.071.552.698 1.058 1.453 1.7 2.083.608.597 1.396.935 2.23 1.092.405.08.832.17 1.238.203.191.011.394.023.574-.034.023 0 .056-.034.101-.056l.135.675c.237 1.33.372 2.658.428 3.997-.281-.473-.596-.889-.833-1.193a8.711 8.711 0 00-1.779-1.745c-.36-.27-.765-.45-1.17-.653-.372-.191-.688-.45-1.104-.54-.282-.057-.507.123-.53.405-.168 1.767.485 3.693 1.532 5.1.473.63 1.08 1.148 1.835 1.419.687.247 1.351.146 2.027.078a38.532 38.532 0 01-.53 4.673 7.684 7.684 0 00-.529-1.475c-.72-1.509-1.88-2.837-3.411-3.547-.27-.123-.507-.01-.62.248-.416 1.002-.438 2.05-.292 3.108.09.608.214 1.204.44 1.767 0 .09.01.169.022.26.01.055.067.078.123.055.158.316.35.62.586.89a4.665 4.665 0 002.24 1.43c.18.056.485.168.789.236-.068.293-.147.574-.226.856a39.531 39.531 0 01-1.092 3.445 6.263 6.263 0 00-.247-1.385c-.586-1.79-2.117-3.085-3.265-4.503-.214-.27-.721-.124-.777.202-.192.991-.54 1.948-.608 2.961a6.568 6.568 0 00.36 2.601c.27.754.732 1.351 1.34 1.858.529.45 1.036.934 1.587 1.362 0 .124.057.236.158.35a33.384 33.384 0 01-1.937 3.512c.17-.912.214-1.847-.18-2.702-.416-.924-1.08-1.678-1.666-2.5-.315-.45-.63-.912-.9-1.385-.226-.405-.395-.799-.699-1.148-.225-.248-.698-.124-.765.203-.192.98-.44 1.914-.563 2.916-.124 1.013.034 2.071.281 3.062.203.822.54 1.61 1.047 2.286.26.337.54.608.9.833.237.135.474.27.721.394.113.056.237.101.36.146-.022.034-.056.08-.078.113a34.777 34.777 0 01-3.062 3.501c.202-.608.349-1.283.258-1.891-.123-.923-.517-1.802-.889-2.646-.203-.473-.45-.934-.653-1.407-.191-.462-.372-.901-.664-1.306-.158-.214-.462-.304-.676-.09-1.26 1.294-1.801 3.197-1.914 4.965-.067.912-.056 1.891.316 2.736.337.776 1.058 1.44 1.778 1.914a52.87 52.87 0 01-2.803 2.229c.135-.496.18-1.025.191-1.543.023-1.07-.214-2.038-.45-3.073-.113-.507-.203-1.014-.315-1.52-.113-.507-.36-.98-.383-1.498-.011-.225-.203-.484-.462-.461-.472.045-.822.281-1.16.619-.382.394-.787.788-1.148 1.193-.81.912-1.384 1.926-1.79 3.085-.371 1.07-.653 2.263-.495 3.4.146 1.059.777 1.937 1.576 2.613a.47.47 0 00.101.157 74.244 74.244 0 01-4.098 2.364 77.263 77.263 0 01-4.098-2.353.472.472 0 00.101-.157c.777-.653 1.408-1.509 1.565-2.533.18-1.16-.112-2.387-.484-3.48a9.093 9.093 0 00-1.722-3.006c-.372-.427-.777-.81-1.171-1.215-.35-.36-.698-.62-1.205-.665-.259-.022-.45.237-.462.462-.033.518-.27 1.002-.382 1.497-.113.507-.203 1.014-.316 1.52-.236 1.036-.484 1.993-.45 3.074.011.54.056 1.07.203 1.576a54.787 54.787 0 01-2.815-2.252c.71-.461 1.418-1.103 1.767-1.857.395-.867.406-1.87.338-2.804-.123-1.756-.653-3.67-1.914-4.965-.214-.214-.518-.135-.675.09-.304.405-.473.845-.665 1.306-.202.473-.45.935-.652 1.407-.18.428-.372.856-.54 1.307-.023.022-.035.045-.023.078-.147.417-.27.834-.327 1.273-.079.608.056 1.272.259 1.88a38.122 38.122 0 01-1.948-2.106 29.95 29.95 0 01-1.193-1.486l.27-.101c.248-.124.495-.259.732-.394.371-.214.675-.484.934-.822.53-.687.89-1.509 1.092-2.342.237-.968.395-2.004.293-2.995-.112-1.024-.371-1.981-.563-2.983-.067-.327-.551-.45-.765-.203-.293.327-.462.698-.665 1.081-.259.484-.563.934-.878 1.373-.596.845-1.295 1.633-1.722 2.59-.383.844-.35 1.756-.192 2.657 0 .023.011.045.011.068a32.396 32.396 0 01-1.947-3.513l.01-.011a.492.492 0 00.159-.35c.551-.427 1.058-.911 1.587-1.362.608-.518 1.07-1.103 1.34-1.857a6.566 6.566 0 00.36-2.601c-.067-1.013-.428-1.97-.608-2.961-.056-.327-.563-.473-.777-.203-1.148 1.419-2.69 2.713-3.265 4.504-.146.45-.225.934-.247 1.418a30.323 30.323 0 01-.597-1.79 50.113 50.113 0 01-.71-2.544c.282-.068.563-.17.732-.214.901-.27 1.678-.732 2.297-1.441.71-.811 1.002-1.847 1.16-2.894.157-1.08.146-2.162-.282-3.186-.112-.27-.349-.372-.619-.248-1.531.698-2.69 2.038-3.411 3.547a7.479 7.479 0 00-.53 1.452 38.173 38.173 0 01-.529-4.65c.676.079 1.34.17 2.027-.079.754-.27 1.362-.788 1.835-1.418 1.058-1.396 1.7-3.333 1.531-5.1-.022-.282-.247-.462-.529-.406-.416.09-.732.35-1.103.54-.406.203-.8.384-1.171.654a9.013 9.013 0 00-1.779 1.745c-.236.304-.552.732-.833 1.193.022-.664.067-1.328.146-1.993.09-.9.237-1.79.417-2.68.045.035.09.057.101.057.146.045.338.056.484.045.406-.011.833-.124 1.239-.191.867-.158 1.688-.496 2.319-1.115.62-.608 1.115-1.328 1.655-2.015.495-.63.957-1.306.934-2.14-.01-.225-.19-.427-.427-.427-1.69.067-3.22.855-4.448 1.959-.427.383-.833.8-1.204 1.238.27-.878.585-1.745.946-2.59.45-1.024.979-2.048 1.61-2.972.72-1.047 1.655-1.868 2.657-2.634.112-.09.022-.259-.113-.203-1.846.71-3.321 2.466-4.29 4.222A23.737 23.737 0 006.52 8.556c0-.022-.011-.045-.011-.067a9.12 9.12 0 00-.879-2.567c-.416-.788-1.306-2.117-2.341-2.038-.687.045-.89.732-.879 1.317.012.935.225 1.925.462 2.826.383 1.475 1.351 2.68 2.713 3.31.034.023.08.057.135.068.023.011.034.011.057.022a30.42 30.42 0 00-.552 4.155 6.147 6.147 0 00-1.283-1.667c-.597-.551-1.678-1.317-2.556-1.092-1.351.35-.214 2.477.236 3.108.473.653 1.081 1.182 1.7 1.677.507.406 1.182 1.036 1.858 1.081.045 1.475.191 2.95.417 4.425a5.844 5.844 0 00-1.352-1.385c-.889-.642-2.454-1.26-3.569-.81-1.61.641.113 2.713.766 3.4 1.284 1.373 2.984 2.33 4.875 2.364 0 .011.011.023.011.045.372 1.475.8 2.927 1.318 4.357a5.342 5.342 0 00-1.025-.574c-1.17-.484-2.612-.585-3.873-.518-.507.034-1.126.135-1.373.63-.27.53.056 1.059.394 1.464.889 1.036 2.037 1.948 3.32 2.443 1.307.507 2.703.45 3.987 0a34.05 34.05 0 002.094 3.76 6.213 6.213 0 00-1.79-.596c-1.498-.248-3.052.079-4.448.63-.461.18-.968.44-1.16.924-.225.54.046 1.114.473 1.475 1.07.912 2.894 1.058 4.223 1.103.923.034 1.823-.045 2.68-.405a9.337 9.337 0 001.61-.879 38.287 38.287 0 003.095 3.524 6.946 6.946 0 00-1.08-.044c-.834.044-1.644.247-2.421.54-.71.281-1.441.54-2.15.833-.519.203-1.307.552-1.42 1.17-.123.665.507 1.037 1.025 1.262 1.588.687 3.21 1.036 4.943.968 1.666-.067 2.927-.878 3.896-2.162a62.12 62.12 0 003.456 2.714h-.214c-.844.022-1.678.101-2.51.281a12.84 12.84 0 00-2.545.879c-.653.303-1.453.641-1.993 1.137-.45.405-.675 1.08-.225 1.576.416.473 1.137.529 1.722.585 1.734.17 3.468.687 5.225.372.878-.158 1.654-.574 2.319-1.16.461-.416.99-.968 1.328-1.553a62.08 62.08 0 003.828 2.263c-.98.506-1.981.979-2.983 1.44-1.318.597-2.68 1.081-3.963 1.734-.608.316-.18 1.261.461 1.093 1.25-.327 2.443-.879 3.626-1.408A77.468 77.468 0 0029.7 54.92c.27-.135.54-.27.799-.417a67.997 67.997 0 003.76 1.824c1.363.62 2.748 1.273 4.189 1.655.641.17 1.08-.776.461-1.092-1.103-.563-2.263-.98-3.4-1.486a73.342 73.342 0 01-3.423-1.632c-.033-.023-.078-.034-.112-.057a62.053 62.053 0 003.828-2.263c.281.473.687.912 1.036 1.284.54.551 1.182.99 1.914 1.26 1.767.631 3.67.057 5.449-.157.597-.067 1.25-.056 1.79-.349.552-.293.8-.912.484-1.475-.338-.574-1.058-.878-1.621-1.182a13.2 13.2 0 00-2.477-1.024 11.95 11.95 0 00-2.882-.473 10.147 10.147 0 00-.597-.023 57.033 57.033 0 003.456-2.702c.811 1.07 1.87 1.925 3.243 2.105 1.666.214 3.49-.022 5.033-.675.517-.214 1.26-.428 1.52-.99.303-.677-.327-1.183-.856-1.465-.653-.349-1.385-.529-2.06-.822-.777-.326-1.543-.607-2.387-.72a6.443 6.443 0 00-1.678-.022 34.154 34.154 0 003.063-3.524c1.07.731 2.296 1.227 3.591 1.272 1.452.056 3.243-.09 4.526-.822 1.08-.608 1.272-1.858.113-2.488-1.227-.665-2.871-1.002-4.245-.901-.856.068-1.655.315-2.42.687a35.375 35.375 0 002.105-3.772c1.092.383 2.252.484 3.4.191 1.43-.36 2.59-1.294 3.614-2.319.35-.349.777-.788.8-1.317.044-.552-.44-.878-.969-.99zm.574-16.325c-.01-.023.012-.045 0 0zm-3.096 2.927c.248-.506.53-1.002.89-1.43.518-.619 1.17-1.238 1.981-1.43a.694.694 0 01.203-.033c0 .01-.011.022-.011.033-.057.102-.057.316-.09.428-.18.62-.552 1.194-.991 1.666-.428.462-.935.879-1.441 1.25-.27.203-.63.36-.935.563v-.157c.146-.304.26-.608.394-.89zm-4.2-8.624c-.033.022-.056.045-.056.09-.022.518-.169 1.126-.146 1.678a4.964 4.964 0 01-.664-.293c.011-.315-.011-.63-.011-.923-.012-.44-.023-.879-.046-1.318.237.17.462.35.676.54.079.068.169.147.248.226zM49.9 8.33c-.147-.169-.293-.349-.44-.529.012-.236.012-.484.023-.72l.034-.687c.203.078.394.157.597.259-.045.326-.08.664-.113.99-.034.226-.079.45-.101.687zm-.665-2.038c-.033.26-.044.53-.067.788a2.964 2.964 0 00-.023.327c-.337-.405-.709-.822-.855-1.317.315.033.642.112.945.202zm1.014 2.421c.067-.315.045-.653.079-.968.033-.316.067-.63.078-.935.147.079.293.17.44.26-.045.495-.057.99-.068 1.485 0 .214-.011.428-.023.653a1.192 1.192 0 01-.123-.101c-.136-.124-.26-.259-.383-.394zm3.479 1.396c-.192.056-.473-.011-.72-.067-.012-.046-.012-.09-.023-.136-.034-.304-.08-.608-.09-.912-.012-.157-.248-.157-.248 0-.011.327.011.653.034.98a4.206 4.206 0 01-.518-.101c.09-.552.067-1.171.045-1.712.338.316.664.63.99.957.226.237.462.484.631.755.023.033.045.078.068.123 0 .012 0 .012.01.023a.453.453 0 01-.18.09zm1.993 14.062c.405-.619.923-1.204 1.53-1.643a3.88 3.88 0 011.656-.71c.214-.034.98-.203 1.137.023-.011-.023-.124.338-.169.428a5.774 5.774 0 01-.743 1.058c-.54.63-1.193 1.238-1.937 1.621-.698.36-1.452.597-2.229.63l.068-.326c.214-.383.461-.743.687-1.08zm-.36-15.447c.168-.642.37-1.283.641-1.903.18-.405.394-.81.664-1.16.18-.224.575-.731.879-.776.1-.011.056-.113.067.113.011.394-.045.776-.101 1.17-.09.653-.203 1.329-.428 1.948-.383 1.047-1.126 1.79-2.094 2.274-.023-.078-.034-.157-.056-.236.1-.473.315-.98.427-1.43zm-4.696 4.11c.124.056.237.112.35.169.056.394-.192 1.238-.237 1.44-.023.09-.056.203-.079.316-.27-.71-.416-1.441-.529-2.207.18.101.349.214.495.282zm.27 2.454c.18-.461.215-1.07.27-1.509.023-.157.068-.427.057-.664.113.068.225.124.338.203.101.067.203.146.293.214-.08.89-.563 1.767-.417 2.68a5.491 5.491 0 01-.54-.924zm.789 1.25c.202-.597.101-1.306.214-1.925.056-.304.123-.608.157-.912.237.191.45.394.664.608-.044.01-.09.045-.09.09-.022.608-.146 1.182-.27 1.778-.056.282-.135.586-.135.879a3.894 3.894 0 01-.54-.518zm1.767 1.024c.045-.281.057-.574.09-.867.046-.427.08-.844.068-1.283 0-.124-.18-.113-.18 0-.045.642-.327 1.407-.282 2.094-.033-.011-.067-.011-.112-.023a2.049 2.049 0 01-.484-.213c.135-.44.168-.957.247-1.408.08-.484.124-.957.034-1.452.079.09.169.18.248.27a9.252 9.252 0 011.148 1.576c.124.237.315.552.45.89v.315c-.427.068-.821.135-1.227.101zm-.641 4.324c0 .011-.012.011-.012.022a32.627 32.627 0 00-.36 1.509c-.09.394-.236.81-.27 1.216a3.397 3.397 0 01-.586-.405c.214-.496.304-1.115.473-1.61.147-.473.293-.946.327-1.442.124.17.236.35.337.53.034.056.057.123.09.18zm-2.624-2.759c.158.09.304.18.45.282-.01.011-.033.034-.033.056-.011.608-.26 1.216-.45 1.801 0-.022-.012-.056-.012-.078-.09-.676-.112-1.385.045-2.06zm.113 2.894c.067-.237.135-.462.191-.698.147-.586.428-1.182.304-1.79.518.382.968.833 1.351 1.34-.112.63-.315 1.227-.529 1.835-.124.36-.315.788-.371 1.193a9.115 9.115 0 01-.316-.372c.068-.416.057-.866.18-1.272.17-.563.406-1.047.406-1.655 0-.191-.282-.191-.293 0-.067.71-.439 1.284-.563 1.97l-.067.36a6.613 6.613 0 01-.293-.911zm3.096 3.04c-.248-.068-.495-.135-.732-.214-.056-.023-.124-.045-.18-.068.203-.338.259-.765.338-1.148.09-.428.146-.867.225-1.295.191.405.338.822.44 1.261.123.552.123 1.013.044 1.509-.056-.023-.101-.034-.135-.045zM11.788 7.487c-.169.202-.327.405-.495.608.27-.383.146-1.126.056-1.655.439-.17.89-.293 1.362-.36-.146.54-.563.979-.923 1.407zm-1.565-.462a5.682 5.682 0 01-.27 1.149c-.124.405-.406.855-.394 1.283 0 .068.09.101.135.056.349-.326.473-.98.596-1.43.102-.394.17-.788.136-1.182a5.85 5.85 0 01.698-.36c0 .203 0 .394-.012.597-.01.383-.135.698-.214 1.058-.01.056.046.135.113.113a.75.75 0 00.225-.135c-.27.326-.552.653-.878.945-.473.428-1.047.676-1.666.81.281-.596.236-1.429.428-2.048.033-.023.056-.056.09-.079a8.085 8.085 0 011.013-.777zM7.746 9.198c.36-.383.743-.743 1.126-1.103-.09.304-.147.608-.203.923-.056.326-.157.63-.248.946-.022 0-.045.01-.067.01-.293.046-.81.215-1.092.136a.568.568 0 01-.147-.056c.18-.293.36-.574.631-.856zm-2.59 8.478c-.281-.18-.596-.327-.855-.507a12.703 12.703 0 01-1.464-1.238c-.473-.484-.867-1.081-1.047-1.734-.022-.068-.056-.326-.09-.44.056.012.124.012.191.023.777.192 1.419.777 1.926 1.363.371.439.653.912.912 1.418.157.304.27.642.427.957v.158zm-1.34 7.262c-.742-.394-1.395-.98-1.936-1.621a7.271 7.271 0 01-.698-.969 15.26 15.26 0 01-.214-.506c.17-.226.923-.057 1.137-.023a3.88 3.88 0 011.655.71c.586.416 1.081.979 1.487 1.564.236.35.506.732.731 1.126l.068.338c-.777-.011-1.531-.248-2.23-.62zm2.185-14.546c-.935-.462-1.644-1.16-2.05-2.173-.247-.62-.36-1.295-.45-1.948-.056-.383-.135-.777-.123-1.171 0-.034.01-.158.01-.225.012 0 .035.011.046.011.315.068.653.507.844.732.27.326.484.732.665 1.114.292.63.506 1.306.686 1.982.113.44.327.946.428 1.43-.011.09-.034.169-.056.248zm4.244 2.476c.17-.078.372-.213.586-.326-.191 1.329-.507 2.567-1.317 3.704a3.538 3.538 0 01-.27.338c.078-.53-.023-1.104-.057-1.621-.022-.473-.067-.935-.101-1.408.079-.056.157-.124.236-.18a5.64 5.64 0 01.923-.507zm-1.373.867c-.011.406-.011.822 0 1.228.011.608-.068 1.306.112 1.891a2.968 2.968 0 01-.776.53c.056-.474.022-.969.01-1.453 0-.518 0-1.047-.022-1.565.214-.225.44-.428.676-.63zm-.946.924c-.011.427-.011.855-.011 1.283 0 .507-.045 1.036.034 1.543h-.012a2.536 2.536 0 01-.574.09c0-.26-.011-.507 0-.755.011-.495.011-.98 0-1.475.169-.225.35-.45.54-.664l.023-.022zm-1.61 2.814v-.315c.113-.304.282-.585.405-.81a7.53 7.53 0 01.462-.755c-.034.405-.068.81-.09 1.216-.011.236-.045.484-.056.743a7.428 7.428 0 01-.72-.079zm4.492 3.727c-.101.664-.247 1.407-.574 2.015.045-.551-.101-1.126-.225-1.655-.124-.529-.27-1.058-.383-1.587a5.537 5.537 0 011.149-.833c.168.664.146 1.373.033 2.06zm-1.396-1.013c.057.394.135.776.214 1.16.147.72.192 1.497.394 2.206a3.9 3.9 0 01-.698.732c.079-.417-.067-.867-.169-1.284a11.605 11.605 0 01-.225-1.25c-.022-.247-.045-.574-.101-.889.169-.225.371-.461.585-.675zm-.8.957c.035.371.012.765.035 1.024.022.248.078.496.135.732.112.495.157 1.058.338 1.52-.203.146-.428.27-.653.36-.057-.495-.248-.968-.36-1.452a9.807 9.807 0 01-.192-.968c.101-.226.225-.45.349-.665.101-.18.214-.36.349-.551zm-1.147 2.533c.067-.315.168-.63.281-.935.022.158.056.316.09.473.113.53.203 1.149.484 1.622H8.31c-.237.078-.495.146-.732.213-.045.012-.09.023-.124.034a3.3 3.3 0 01.011-1.407zM5.2 33.438c-.698-.27-1.328-.698-1.891-1.182-.146-.124-1.216-.98-1.115-1.216.124-.293 1.408-.113 1.667-.101.653.022 1.306.067 1.925.247 1.024.282 1.813.912 2.522 1.644.09.225.191.45.293.676-1.104.349-2.218.383-3.4-.068zm5.844-1.903c-.011-.09-.011-.19-.023-.236l-.236-1.07c-.135-.641-.315-1.305-.372-1.97a7.18 7.18 0 01.496-.698c.034.507.146.99.281 1.486.18.642.27 1.306.45 1.948-.168.203-.382.372-.596.54zm1.362-5.618c.135.608.27 1.216.282 1.835a5.717 5.717 0 01-.507 2.523 2.868 2.868 0 01-.27.439c0-.473-.147-.935-.282-1.385-.191-.665-.405-1.317-.506-1.993.18-.214.371-.428.574-.642.045.845.281 1.757.563 2.5.034.101.169.079.18-.023.09-.9-.327-1.824-.518-2.724.169-.18.326-.36.484-.53zm-2.15 2.635c.079.856.315 2.668.596 3.152l-.168.136a3.026 3.026 0 00-.338.315c-.023-.44-.192-.912-.282-1.318l-.27-1.092c.068-.281.169-.563.281-.833a3.57 3.57 0 01.18-.36zm-.518 4.143c-.124-.754-.17-1.554-.068-2.32l.068.294c.146.574.191 1.182.326 1.756l-.101.101c-.079.057-.158.113-.225.17zm1.036 7.645c-.732.326-1.52.383-2.308.383-.856-.012-1.7-.113-2.522-.338-.282-.079-1.34-.35-1.216-.777.09-.315 1.024-.507 1.306-.597a7.84 7.84 0 012.443-.416 6.08 6.08 0 012.229.428c.44.168.844.416 1.261.63-.394.236-.777.495-1.193.687zm3.366-2.308c-.045-.315-.18-.63-.304-.912-.259-.608-.563-1.194-.732-1.835.079-.225.18-.45.315-.687.012-.023.034-.045.045-.068.203.608.428 1.205.608 1.813.136.45.214.968.473 1.374a1.867 1.867 0 01-.405.315zm-.18-4.222c.169.45.349.878.551 1.317.192.405.372.822.53 1.238.056.147.101.293.146.428a4.4 4.4 0 01-.417.665c-.292-1.081-.776-2.106-1.17-3.153.123-.157.236-.326.36-.495zm1.734-2.432c.022-.034.045-.079.067-.124.101.495.192.99.225 1.52a7.254 7.254 0 01-.168 2.15c0-.292-.192-.54-.327-.81-.236-.473-.44-.991-.63-1.486.01-.012.01-.023.022-.023.281-.405.563-.81.81-1.227zm-1.014 1.497c.293.777.608 1.543.98 2.286.022.045.067.045.101.022-.022.102-.056.214-.079.316-.078.27-.157.551-.27.81-.135-.349-.315-.687-.45-.98-.27-.574-.574-1.136-.845-1.722.18-.248.372-.484.563-.732zm-1.722 4.132c-.045-.473-.034-.9.034-1.306.067.35.191.676.337 1.002.135.304.282.608.383.935.056.18.09.36.135.54-.236.113-.473.214-.698.338a18.397 18.397 0 01-.191-1.509zm7.15 5.979c-.035.09-.08.169-.125.247-.191-.608-.63-1.216-.912-1.688-.405-.71-.788-1.43-1.137-2.162.124-.27.248-.53.383-.788.259.529.585 1.013.878 1.53.203.361.394.744.586 1.115.18.338.292.721.517 1.036-.033.248-.09.484-.19.71zm-.935-6.159c.788 1.092 1.047 2.533 1.137 3.85.011.237.034.485.034.744-.203-.45-.507-.89-.71-1.25-.36-.642-.822-1.239-1.17-1.88.236-.484.438-.991.709-1.464zM17.45 40.6c.101-.304.225-.608.35-.912.247.642.54 1.25.877 1.858.237.416.473.844.687 1.272.124.259.225.529.36.788-.18.214-.394.394-.619.574-.169-.608-.552-1.193-.844-1.723a29.461 29.461 0 01-.867-1.677.835.835 0 00.056-.18zm-1.058 6.586c-.676.394-1.374.473-2.14.473a9.372 9.372 0 01-2.375-.259 7.271 7.271 0 01-1.092-.349c-.079-.034-.507-.281-.755-.383.023-.022.057-.034.08-.056.146-.09.292-.169.45-.236.337-.147.686-.26 1.024-.383.687-.26 1.34-.575 2.05-.777a5.987 5.987 0 012.274-.225c.45.045.867.157 1.272.304.203.191.405.371.608.551-.394.54-.833 1.014-1.396 1.34zm2.049-2.488l-.507-.473c-.259-.439-.405-1.024-.506-1.407-.147-.563-.203-1.059-.113-1.588.158.35.326.698.507 1.036.36.676.641 1.453 1.058 2.105-.158.113-.304.214-.44.327zm7.205 4.943c-.349-.845-.968-1.588-1.497-2.309-.36-.495-.833-1.317-1.475-1.553.011-.248.034-.496.068-.72.033-.226.079-.462.123-.688.586.89 1.205 1.768 1.78 2.68.461.743.889 1.52 1.384 2.252-.124.124-.27.225-.383.338zm-1.97-8.433c.068-.192.124-.372.169-.552.214.18.405.462.552.62.371.405.72.799 1.035 1.238.608.855.969 1.801 1.228 2.815.045.157.078.326.123.495-.225-.394-.472-.766-.709-1.126-.619-.968-1.317-1.88-2.128-2.69-.135-.136-.337.067-.214.213.822.856 1.498 1.824 2.106 2.849.383.652.72 1.362 1.126 2.015.01.36-.023.71-.135 1.047-.045-.113-.124-.214-.18-.315-.26-.44-.518-.867-.8-1.284-.349-.518-.71-1.024-1.08-1.52-.248-.326-.496-.664-.778-.957-.27-.292-.653-.529-.709-.946 0-.033-.022-.044-.045-.067.056-.214.113-.428.158-.63.067-.417.146-.822.281-1.205zm-.563 2.206c.045.124.113.237.214.35.293.36.597.698.878 1.08.417.574.8 1.182 1.216 1.768.293.417.552.878.81 1.306.102.169.226.473.429.563-.09.169-.203.338-.327.495-.45-.743-.934-1.475-1.407-2.195-.597-.912-1.227-1.87-1.993-2.657.056-.237.124-.473.18-.71zm-.067 8.659a3.753 3.753 0 01-2.128.945c-.878.09-1.768-.045-2.635-.157-.743-.102-1.475-.124-2.218-.18-.135-.012-.27-.023-.405-.057-.214-.056-.225-.011-.146-.135.135-.214.461-.315.664-.428.788-.439 1.576-.855 2.432-1.16.878-.303 1.756-.461 2.668-.596.62-.102 1.284-.192 1.925-.158.304.214.608.417.912.62-.36.416-.653.923-1.07 1.306zm.281-3.49a3.256 3.256 0 01-.45-.935c-.147-.496-.203-1.07-.203-1.621.563.382.957 1.227 1.306 1.745.248.36.518.698.743 1.07.203.348.372.731.574 1.069-.664-.428-1.317-.878-1.97-1.329zm11.022-3.255c.057-.225.124-.439.192-.664.27-.18.484-.439.698-.675.315-.35.642-.676.98-1.002.28-.27.585-.54.866-.822.147-.135.26-.293.383-.417.056.18.101.36.146.552l.102.416c-.17.203-.405.383-.574.53-.293.259-.575.518-.867.777-.383.349-.766.697-1.137 1.058-.338.326-.732.642-.969 1.047.045-.282.113-.54.18-.8zm1.171-2.747c.327-.461.676-.867 1.059-1.272.157-.169.36-.462.585-.664.056.259.135.518.214.777l-.011.01c-.327.237-.597.586-.89.868-.428.405-.867.788-1.272 1.216-.113.124-.248.248-.383.371.17-.45.406-.89.698-1.306zm-1.396 3.76c.023.023.068.034.113.012.507-.259.9-.766 1.295-1.16.439-.439.9-.855 1.362-1.283.259-.237.642-.518.9-.856l.203.777c-.022 0-.033.011-.045.034-.54.754-1.373 1.362-2.049 2.004-.371.349-.72.71-1.058 1.092-.237.259-.53.518-.743.81-.09-.461-.056-.956.022-1.43zm.158 2.016a1.936 1.936 0 01-.124-.326c.36-.124.608-.485.856-.755.383-.416.765-.844 1.182-1.238.63-.597 1.463-1.216 1.846-2.015.09.349.158.697.214 1.047.012.078.023.157.023.236-.045-.023-.113-.011-.124.045-.068.394-.563.743-.844.99-.282.248-.53.53-.811.778-.574.517-1.576 1.182-1.7 2.004a2.96 2.96 0 01-.518-.766zm2.533.8c-.405.28-.81.551-1.227.81-.09-.259-.338-.405-.563-.62l-.101-.1c.36-.417.63-.879 1.035-1.261.35-.327.732-.63 1.059-.98.394-.405 1.148-.912 1.294-1.509.057.676.023 1.419-.146 2.05a3.35 3.35 0 01-.45.979c-.304.214-.608.428-.9.63zm2.905 1.125c.912.147 1.801.293 2.668.597.833.293 1.588.676 2.353 1.115.214.123.608.259.743.484.09.135.08.045-.09.112-.135.068-.315.068-.461.08-.71.056-1.419.078-2.128.168-.9.124-1.813.259-2.714.169a3.68 3.68 0 01-2.127-.946c-.417-.383-.71-.89-1.07-1.328.304-.203.608-.417.912-.62.63-.022 1.295.068 1.914.17zm2.96-11.697c-.27.315-.64.574-.877.923-.383.563-.968 1.227-1.059 1.925-.01.079.102.112.158.067.63-.585.89-1.53 1.486-2.161.135-.147.304-.293.44-.462.078.17.157.327.236.496-.484.472-.867 1.024-1.25 1.587-.326.495-.743.99-1.07 1.52-.123-.585-.09-1.216-.045-1.801.023-.338.057-.676.102-1.014.214-.349.439-.664.731-.968.26-.259.586-.518.8-.844.079.18.169.36.259.54.022.068.056.124.09.191zm-.855-1.757c.124.225.237.462.35.71-.293.438-.71.765-1.082 1.148-.045.056-.1.112-.157.169.191-.72.461-1.43.89-2.027zm-.957 6.114c.462-.417.8-1.081 1.104-1.565.382-.597.754-1.194 1.193-1.745.135.315.259.641.372.968.033.101.056.191.078.281-.281.462-.72.81-1.024 1.261-.372.552-.81 1.07-1.137 1.655-.237-.236-.45-.506-.575-.81 0-.012 0-.023-.01-.045zm1.69 1.745c-.305-.237-.643-.473-.947-.743.608-.383.946-1.014 1.329-1.6.225-.348.552-.663.777-1.012.056.45.011.9-.113 1.396-.101.416-.247 1.024-.518 1.486-.18.157-.349.315-.529.473zm4.818.54c.71.203 1.362.53 2.049.777.315.113.63.214.934.338.158.067.316.146.473.225.057.034.102.067.158.101a9.924 9.924 0 00-.653.338 7.177 7.177 0 01-1.205.394c-.777.191-1.576.259-2.375.259-.732-.011-1.43-.068-2.072-.439-.586-.327-1.047-.81-1.441-1.351.214-.192.428-.394.642-.586a5.35 5.35 0 011.092-.27c.8-.101 1.621-.011 2.398.214zm-.98-7.554c-.033-.034-.067-.08-.101-.113a4.565 4.565 0 01-.495-.777.062.062 0 00.056-.034c.338-.439.394-1.013.574-1.53.169-.485.45-.902.63-1.386.18.237.35.484.507.743-.157.608-.473 1.16-.698 1.745-.18.44-.326.901-.473 1.352zm-.281-5.078c.022.034.045.056.067.09-.022.011-.033.034-.045.056-.225.63-.506 1.239-.776 1.847-.057.123-.113.259-.18.394-.057-.282-.113-.563-.147-.845.079-.236.135-.484.203-.642.18-.416.506-.821.608-1.26.101.123.191.247.27.36zm-.867-1.34c.022.045.045.079.067.113.113.202.237.394.36.585-.09.45-.46.89-.675 1.306 0-.158 0-.326.023-.484.033-.53.124-1.025.225-1.52zm.112 4.39l.136-.404c.123-.338.27-.653.405-.98.191-.45.349-.9.416-1.385.18.248.372.484.563.732-.214.53-.608.968-.799 1.509-.169.473-.326.98-.371 1.486a6.114 6.114 0 01-.35-.957zm2.68 1.363c-.045.496-.09 1.014-.203 1.509-.416-.225-.867-.372-1.25-.664.226-.394.372-.822.53-1.261.191-.563.462-1.104.62-1.667.326.665.37 1.295.303 2.083zm2.184 2.038c.72-.281 1.43-.439 2.207-.45.867-.011 1.711.146 2.544.416.293.09 1.194.27 1.306.597.147.428-.945.71-1.215.777a9.732 9.732 0 01-2.421.338c-.788.01-1.576-.034-2.32-.327-.461-.191-.866-.473-1.283-.743.394-.214.777-.45 1.182-.608zm.98-9.356a13.55 13.55 0 00-.9 2.128c-.282-.225-.564-.44-.823-.676.135-.349.248-.709.372-1.058.225-.608.473-1.205.743-1.79.124.203.236.405.338.62.112.247.202.506.27.776zm-2.612-3.772c.214.225.428.45.641.687-.382.54-.574 1.205-.754 1.835-.034.113-.067.226-.101.327a7.647 7.647 0 01-.068-1.013c.012-.62.147-1.228.282-1.836zm.315 4.515c.191-.259.27-.608.338-.9.18-.699.563-1.318.72-2.027.034-.158-.202-.237-.247-.068-.18.642-.563 1.194-.766 1.824a19.92 19.92 0 00-.225.777 3.656 3.656 0 01-.169-.495c.09-.26.146-.53.214-.743.203-.676.405-1.34.653-2.005.36.395.72.811 1.013 1.239-.011.011-.022.023-.034.045-.439.833-.98 1.79-1.204 2.758a2.058 2.058 0 01-.293-.405zm2.353 2.263c-.067-.056-.146-.101-.225-.18-.18-.158-.35-.338-.518-.507.35-.529.608-1.148.8-1.779.123.811.078 1.667-.057 2.466zm6.429-.439c-.54.462-1.148.878-1.813 1.148-1.205.496-2.353.462-3.49.09.101-.225.203-.45.293-.675.698-.71 1.452-1.329 2.454-1.621.653-.192 1.329-.248 2.004-.27.282-.012 1.52-.192 1.666.1.113.226-.979 1.116-1.114 1.228z" fill="#FFF06A"/></svg><svg fill="none" viewBox="0 0 58 59" id="4" xmlns="http://www.w3.org/2000/svg"><path d="M10.038 24.944c-.043.794-.359 1.502-.555 2.253-.174.643-.468 1.437-.403 2.102.011.108.163.185.229.065.348-.686.38-1.513.588-2.243.207-.718.413-1.426.424-2.177 0-.185-.272-.185-.283 0zm6.979 5.552c-.055 1.165-.425 2.308-.588 3.462-.152 1.045-.305 2.123-.381 3.18-.011.108.174.163.218.054.457-.98.424-2.134.555-3.19.152-1.165.457-2.33.457-3.517 0-.152-.261-.152-.261.011zm4.366 4.137c-.044.838-.273 1.688-.414 2.526-.13.784-.261 1.568-.338 2.363-.065.805-.141 1.6-.207 2.406-.065.794-.195 1.655-.01 2.427.021.11.196.11.217 0 .186-.75.153-1.567.218-2.33l.196-2.514c.054-.806.196-1.6.294-2.406.109-.817.283-1.644.283-2.472 0-.141-.229-.141-.24 0zm8.796 9.113c-.12.73-.098 1.47-.152 2.199-.065.751-.174 1.502-.25 2.254a55.136 55.136 0 00-.207 2.308c-.055.73-.153 1.502.021 2.232.022.098.175.098.197 0 .163-.665.141-1.361.184-2.036.044-.773.11-1.546.186-2.308.076-.719.141-1.438.206-2.156.077-.806.011-1.611.131-2.428 0-.174-.283-.261-.316-.065zm2.385.25a27.475 27.475 0 01-.218 2.994c-.13 1.002-.425 1.992-.512 2.994-.01.12.185.174.24.065.413-.882.533-1.905.653-2.852.13-1.056.174-2.123.163-3.19-.022-.207-.326-.207-.326-.01zm2.71-.326c0-.207-.326-.207-.326 0l-.033 2.71c-.01.806-.087 1.644.12 2.428.022.077.142.077.163 0 .196-.784.12-1.633.12-2.428-.022-.903-.032-1.807-.043-2.71zm2.603-1.634c-.011.882-.098 1.764-.196 2.646-.077.74-.305 1.677-.077 2.395.033.11.196.11.23 0 .239-.73.162-1.633.239-2.395.076-.882.152-1.764.152-2.646 0-.217-.348-.217-.348 0zm1.927-.762c-.055.828-.207 1.633-.338 2.45-.098.62-.337 1.448-.109 2.047.044.12.196.12.25 0 .131-.338.11-.708.142-1.067.033-.381.076-.751.13-1.132.088-.763.186-1.525.153-2.298-.032-.13-.228-.13-.228 0zm2.199-.326c-.022.751-.12 1.48-.218 2.232-.076.61-.283 1.393-.033 1.97.033.076.175.076.207 0 .262-.566.185-1.36.25-1.97.077-.74.153-1.481.153-2.232.011-.229-.348-.229-.36 0zM27.74 2.19l-.011.01-.022.022.033-.032zm25.17 27.86c-1.186-3.44-2.427-6.914-4.605-9.864a19.029 19.029 0 001.764-.882c3.647-2.09 7.251-5.814 7.011-10.332-.228-4.333-3.94-8.024-8.11-8.797-4.638-.87-9.146 1.764-12.455 4.758-.283.25-.555.512-.828.773-1.143-1.056-2.417-1.949-3.756-2.722a22.21 22.21 0 00-2.275-1.143c-.566-.24-1.198-.49-1.83-.5-.021-.011-.043-.033-.065-.044a.47.47 0 00-.315-.055h.01H27.36a.501.501 0 00-.175.077c-.032.01-.065.021-.108.043-.186.098-.338.229-.501.349-.654.5-1.296 1.012-1.938 1.524-2.123 1.687-4.235 3.407-6.347 5.128a5028.433 5028.433 0 00-14.644 12.03c-.838.686-1.676 1.372-2.47 2.101-.219.196-.545.468-.676.62-.087.11-.152.164-.196.23-.01.01-.01.021-.01.032-.012.01-.023.033-.044.043a.175.175 0 00-.055.12c-.163.011-.261.229-.141.37.337.392.838.6 1.306.795.664.283 1.22.588 1.753 1.089 1.002.947 2.167 1.73 3.212 2.646a48.994 48.994 0 015.705 5.933c3.418 4.202 6.51 8.731 8.71 13.707 1.36 3.08 2.231 6.369 3.19 9.58.13.436.805.72 1.131.294.806-1.034 2.178-1.578 3.267-2.264l1.633-1.045c2.025-1.307 4.06-2.591 6.086-3.898 4.812-3.092 9.635-6.184 14.36-9.406a75.361 75.361 0 002.438-1.71c.37-.272.991-.62 1.144-1.1a.6.6 0 00.021-.271c.828-.665.272-2.46.087-3.3-.37-1.643-.631-3.309-1.186-4.91zM46.413 19.51l-.261-.13a13.903 13.903 0 01-1.241-.697 19.58 19.58 0 00-2.994-1.568 32.416 32.416 0 00-3.18-1.132c-.467-.142-1.153-.447-1.709-.382.283-.348.577-.696.871-1.034 2.08.316 4.018.958 6 1.633.543.185 1.055.458 1.578.686.468.196.958.294 1.426.48.512.206 1.023.424 1.524.652.207.099.414.207.62.316-.848.48-1.73.86-2.634 1.176zm-3.353.784c-.142-.534-.74-.926-1.165-1.23a6.732 6.732 0 00-1.83-.926c-1.327-.446-2.666-1.012-4.07-1.143.271-.381.554-.762.837-1.132.36-.066.806.174 1.11.272.436.13.861.272 1.286.425 1.023.359 2.046.707 3.026 1.186 1.209.588 2.385 1.285 3.538 1.993-.903.283-1.818.511-2.754.696.022-.065.033-.108.022-.141zm-6.979 1.85c.458.023.904.186 1.35.251.055.011.11.011.163.022-.26.087-.533.152-.729.229-.24.076-.435.152-.642.239 0 0 0-.01-.011-.01-.48-.545-1.34-.85-2.036-.97-.446-.076-.947-.174-1.404-.087.304-.468.61-.925.914-1.393.719-1.078 1.415-2.178 2.167-3.245 1.284.294 2.493.784 3.734 1.23.631.229 1.208.48 1.775.85.304.207.598.413.86.664.185.174.326.38.522.533-2.188.392-4.442.512-6.674.49-.75.011-.75 1.165.011 1.198zm-4.148-5.66c.142.533.283 1.077.392 1.622.098.522.098 1.045.305 1.546.033.087.109.12.185.108-1.165 1.775-2.297 3.56-3.299 5.433a40.43 40.43 0 00-.61 1.187c-.326-1.633-.37-3.299-.337-4.965.022-1.012.044-2.068.272-3.059.022-.109.055-.218.076-.316.022-.076.044-.141.066-.218.01-.01.01-.01.01-.021.262.087.49.435.61.653.25.446.85.196.893-.24.142-1.393.425-2.721.86-3.995.033.207.076.414.12.61.152.566.316 1.11.457 1.654zm-.413-2.7c.152-.425.326-.839.511-1.253.13.85.414 1.688.599 2.515.142.62.25 1.241.403 1.862.141.566.25 1.23.512 1.753-.066.109-.142.207-.207.316-.131.195-.262.391-.381.577-.142-.48-.164-.97-.273-1.46a30.012 30.012 0 00-.424-1.709c-.25-.838-.457-1.752-.74-2.602zm.468 9.264c.588.066 1.154.196 1.73.338.251.065.545.152.828.196-.479.228-.947.479-1.426.718a54.573 54.573 0 00-2.82 1.557c.534-.936 1.1-1.883 1.688-2.809zm1.546-.043a5.779 5.779 0 00-1.427-.153c.164-.26.327-.511.49-.762.523-.141 1.176.044 1.688.174.588.153 1.067.545 1.622.74-.054.023-.109.044-.163.066-.207.076-.403.163-.6.25-.5-.174-1.099-.206-1.61-.315zm16.81-5.411c-.262.163-.512.327-.785.479-.185-.174-.435-.272-.675-.381-.522-.229-1.056-.436-1.578-.675-.48-.218-.98-.305-1.47-.49-.555-.207-1.089-.48-1.644-.686-1.045-.381-2.134-.697-3.2-1.012-.915-.273-1.917-.534-2.886-.501 1.013-1.089 2.123-2.058 3.245-3.016.01.01.021.022.032.022.49.12.98-.044 1.47-.044.566-.01 1.132 0 1.698.011 1.22.022 2.428.163 3.637.185.577.011 1.165-.022 1.73.044.654.065 1.296.24 1.939.37.566.109 1.132.196 1.687.316.49.098 1.024.228 1.524.217-.947 2.113-2.798 3.92-4.725 5.16zm4.953-5.596c-1.121-.185-2.254-.338-3.375-.555-1.187-.24-2.286-.392-3.495-.392-1.187 0-2.362-.12-3.549-.142-.566-.01-1.121.022-1.688.033-.566.022-1.1.185-1.654.24.337-.284.664-.567 1.001-.85.349-.087.882-.033 1.187-.065.555-.055 1.11-.055 1.677-.076 1.208-.033 2.406-.022 3.614-.022 1.121.01 2.275-.055 3.375.152.577.11 1.132.262 1.71.36.5.087 1.023.25 1.535.304-.099.349-.207.675-.338 1.013zM47.098 1.112c3.887-.022 7.708 2.852 8.568 6.684.218.948.218 1.873.044 2.755-.49-.207-1.089-.25-1.6-.338-.632-.108-1.253-.294-1.884-.38-1.165-.175-2.363-.099-3.528-.088-1.295.011-2.59.055-3.886.12-.577.033-1.154.12-1.731.174-.077.011-.164.011-.25.022a.615.615 0 00.086-.076c.294-.25.577-.512.871-.773.784-.12 1.612-.022 2.406-.022.991-.01 1.982-.109 2.973-.12 1.045-.01 2.1.011 3.146.011.446 0 .882.065 1.328.109.512.054 1.089-.044 1.546.229.229.141.447-.229.218-.36-.327-.196-.664-.228-1.034-.24-.49-.01-.97-.086-1.448-.119-1.165-.098-2.363-.01-3.539-.01-1.1.01-2.188.13-3.288.163-.675.021-1.339 0-1.992.087.544-.469 1.11-.915 1.753-1.263.773-.425 1.775-.697 2.362-1.394.48-.555-.337-1.372-.816-.816a2.372 2.372 0 01-.686.533c.076-.686.065-1.415.087-2.058.022-.936-.065-1.872-.12-2.808.13-.011.273-.022.414-.022zm-.74.032c-.011.926.021 1.862-.011 2.788-.022.74-.185 1.556-.185 2.33-.283.12-.566.239-.817.37.076-.784-.087-1.666-.141-2.406-.077-.959-.175-1.917-.218-2.886.446-.087.904-.152 1.372-.196zm-1.666.262c-.022.947.022 1.883.087 2.82.033.479.065.958.087 1.437.022.392.011.805.076 1.197a7.875 7.875 0 00-.925.653c.033-.348-.033-.718-.065-1.045-.044-.49-.11-.969-.185-1.459-.153-1.067-.327-2.134-.403-3.2.435-.153.87-.294 1.328-.403zm-1.557.479c-.022 1.001.087 1.981.218 2.972.065.533.141 1.067.196 1.611.043.425 0 .904.13 1.318-.337.283-.675.577-1.001.87-.893.795-1.807 1.557-2.711 2.341.065-.49-.065-1.067-.13-1.513-.099-.73-.197-1.47-.306-2.2a11.996 11.996 0 00-.533-2.133c-.087-.25-.109-.534-.207-.773 1.34-1.023 2.787-1.905 4.344-2.493zm-4.605 2.7c.01.12.01.228.032.348.033.24.12.468.186.708.196.686.315 1.404.402 2.112.087.631.175 1.263.262 1.905.065.534.022 1.154.206 1.666-.195.174-.402.348-.598.533-.044-.402-.174-.827-.25-1.208-.131-.62-.295-1.23-.447-1.84-.152-.588-.261-1.198-.425-1.775-.141-.5-.348-.99-.479-1.502.36-.338.73-.653 1.11-.947zm-1.35 1.143c.032.403.196.806.305 1.187.174.62.294 1.252.435 1.872.142.588.283 1.165.414 1.742.109.523.163 1.11.337 1.622-.294.273-.587.556-.87.85-.077-.262-.175-.523-.208-.752-.12-.686-.206-1.372-.37-2.046-.163-.686-.37-1.361-.598-2.036-.142-.436-.403-.937-.534-1.416.349-.337.708-.686 1.089-1.023zM35.873 6.98c.066.305.186.61.273.904.228.707.435 1.415.631 2.133.185.708.305 1.427.414 2.145.043.305.13.588.217.893l.066.294c-1.415 1.502-2.548 3.223-3.68 4.943-.022-.414-.185-.817-.283-1.209-.163-.61-.283-1.22-.425-1.84-.25-1.088-.61-2.123-.805-3.211.882-1.83 2.1-3.517 3.592-5.052zM27.61 2.244c-.098.044-.218.033-.381-.054a.494.494 0 00.381.054zM2.95 24.508a3.542 3.542 0 00-.663-.36c-.523-.217-1.154-.228-1.677-.424.01 0 .01 0 .022-.01.022-.011.032-.011.043-.022a.52.52 0 00.12-.055c.174-.076.414-.24.642-.392.697-.479 1.372-1.001 2.036-1.513 0 0 .011 0 .011-.01-.076.489-.207.968-.316 1.447-.087.425-.228.904-.217 1.34zm50.125 12.923c-.01.055-.01.11-.022.163 0 .011-.01.022-.01.033a.483.483 0 00-.011.327c-.033.032-.066.076-.098.12-.066.054-.12.108-.186.163-.076.065-.163.13-.24.196a1.211 1.211 0 01-.053.043 3.812 3.812 0 01-.218.164c-.37.283-.752.544-1.133.816.153-.337.25-.73.338-1.056.152-.588.25-1.197.24-1.807 0-.153-.23-.153-.23 0-.043.61-.195 1.208-.38 1.796-.153.468-.425.947-.48 1.437l-.424.294c-.577.392-1.143.784-1.72 1.165.087-.348.065-.74.098-1.088.065-.85.283-1.644.272-2.515 0-.218-.326-.218-.337 0-.033.816-.262 1.567-.381 2.362-.033.272-.011.555-.055.828-.043.26-.12.522-.163.783-.62.414-1.241.828-1.85 1.23 0-.01.01-.01.01-.021.261-.588.24-1.34.36-1.97.13-.665.239-1.34.239-2.015 0-.228-.349-.228-.349 0-.032.751-.206 1.47-.37 2.2-.12.533-.337 1.23-.13 1.763.021.066.108.109.174.098-.556.37-1.122.74-1.677 1.1 0 0 0-.011.011-.011.174-.523.087-1.132.109-1.677.032-.642.098-1.284.272-1.905.055-.207-.261-.294-.327-.087a8.383 8.383 0 00-.304 1.796c-.044.599-.142 1.285.043 1.862a.113.113 0 00.109.076c-.163.109-.327.218-.5.327-4.606 3.005-9.211 6.02-13.882 8.905-.664.414-1.339.828-2.014 1.23-.348.208-.719.404-1.089.6.153-.893.11-1.84.196-2.733.098-1.078.272-2.134.403-3.201.261-2.069.708-4.126.708-6.217 0-.185-.294-.185-.294 0-.044 2.112-.523 4.203-.817 6.293-.141 1.002-.305 2.003-.403 3.016-.098.958-.26 2.036-.076 2.994-.5.272-1.001.555-1.459.904-.163-.6-.337-1.187-.511-1.786.13-1.023.141-2.058.25-3.081.142-1.274.316-2.548.48-3.821.337-2.515.641-5.02.587-7.556 0-.13-.196-.13-.196 0-.065 2.547-.425 5.084-.784 7.61-.163 1.154-.326 2.308-.457 3.462-.087.74-.196 1.503-.24 2.265a54.84 54.84 0 00-1.546-4.377c.153-.686.175-1.415.218-2.08.066-1.023.12-2.057.24-3.08.261-2.123.207-4.3.838-6.37.054-.184-.229-.272-.294-.076-.675 2.014-.697 4.094-.98 6.173-.13.98-.196 1.96-.272 2.95-.033.502-.098 1.013-.163 1.525a50.112 50.112 0 00-3.593-6.804c-.229-.37-.468-.74-.719-1.1.512-1.165.512-2.504.719-3.734.24-1.416.283-2.886.686-4.268.043-.152-.185-.218-.24-.065-.457 1.339-.522 2.765-.816 4.148-.153.707-.207 1.437-.327 2.144-.076.469-.185.937-.283 1.394-1.067-1.59-2.22-3.125-3.408-4.627.436-.98.501-2.123.697-3.168.174-.991.163-2.047.555-2.983.044-.11-.141-.196-.196-.087-.457.903-.5 1.916-.707 2.885-.207 1.012-.436 2.057-.555 3.092-.088-.11-.175-.23-.273-.338-.392-.49-.794-.969-1.197-1.437.38-.817.392-1.764.544-2.635.153-.914.24-1.872.457-2.776.044-.185-.24-.261-.283-.076-.25.882-.392 1.84-.555 2.743a32.002 32.002 0 00-.37 2.494 59.85 59.85 0 00-1.372-1.525.111.111 0 00.055-.065c.26-.795.26-1.698.402-2.526.153-.838.338-1.665.61-2.471.065-.185-.229-.261-.294-.076-.316.86-.566 1.742-.74 2.645-.142.73-.316 1.546-.229 2.297a46.004 46.004 0 00-2.874-2.765c-.13-.109-.261-.218-.392-.338.13-.468.153-.99.25-1.437.24-1.023.425-2.057.86-3.026.066-.142-.141-.261-.206-.12-.664 1.296-1.024 2.82-1.274 4.279a45.998 45.998 0 00-1.209-.947.082.082 0 00.077-.055c.152-.337.152-.718.24-1.089.108-.446.25-.87.38-1.306.229-.762.414-1.535.36-2.34-.011-.131-.207-.131-.196 0 .01.881-.273 1.687-.545 2.514-.207.62-.61 1.513-.446 2.178-.447-.338-.904-.675-1.35-1.013.326-.664.424-1.513.653-2.188.261-.74.599-1.437.523-2.243-.022-.174-.294-.185-.283 0 .043.838-.381 1.535-.643 2.297-.13.381-.228.762-.348 1.143-.076.24-.174.49-.229.74-.261-.206-.522-.413-.784-.609.153-.577.164-1.23.294-1.818.087-.447.164-.893.196-1.35 2.069-1.633 4.137-3.332 6.206-5.008 4.78-3.898 9.559-7.806 14.36-11.671a218.87 218.87 0 012.482-1.97c.153-.12.381-.284.643-.49.087-.066.163-.131.25-.208l.01-.01h.012c.01-.011.022-.011.022-.022.032-.033.01-.011-.011.01a.62.62 0 00.152-.14c.425.25.893.456 1.328.674.708.36 1.394.762 2.058 1.187 1.241.795 2.45 1.676 3.516 2.7-1.219 1.306-2.308 2.732-3.146 4.311-1.045 1.949-1.677 4.05-1.981 6.217-.349-.24-.752-.349-1.133-.12-.315.196-.38.577-.446.914a13.55 13.55 0 00-.24 1.753c-.184 2.483-.141 5.074.686 7.436-.25.534-.479 1.067-.696 1.611-.48 1.187-.806 2.428-1.274 3.615-.109.294.305.414.468.196.664-.915.969-1.982 1.426-3.005.229-.512.457-1.012.708-1.502a.593.593 0 00.49-.403c-.087.25-.109.174.076.022-.033.032.218-.164.294-.207.392-.262.784-.501 1.187-.74a67.113 67.113 0 013.005-1.644c.707-.36 1.404-.697 2.1-.97 1.002-.391 2.516-.642 3.104-1.633a.566.566 0 00.076-.348c2.613-.13 5.193-.555 7.632-1.448 2.144 2.798 3.244 6.14 4.42 9.428.316.893.577 1.819.773 2.744.141.686.218 1.382.392 2.068.13.523.25 1.056.316 1.59.032.25.054.523.054.773 0 .01-.011.142-.011.163z" fill="#FFF06A"/></svg><svg fill="none" viewBox="0 0 26 26" id="fb" xmlns="http://www.w3.org/2000/svg"><rect x=".088" width="25.735" height="25.735" rx="12.867" fill="#612B1C"/><path d="M17.497 7.306H16c-1.184 0-1.394.58-1.394 1.442v1.84h2.787l-.368 2.991h-2.419v7.614h-2.98V13.58H9.171v-2.991h2.454v-2.14c0-2.529 1.49-3.907 3.672-3.907 1.043 0 1.937.082 2.2.118v2.647z" fill="#FFF06A"/></svg><svg fill="none" viewBox="0 0 26 26" id="inst" xmlns="http://www.w3.org/2000/svg"><rect x=".265" width="25.735" height="25.735" rx="12.867" fill="#612B1C"/><path fill-rule="evenodd" clip-rule="evenodd" d="M6.32 10.358a4.302 4.302 0 014.303-4.303h5.02a4.302 4.302 0 014.302 4.303v5.02a4.302 4.302 0 01-4.303 4.302h-5.02a4.302 4.302 0 01-4.302-4.303v-5.02zM18.242 8.61a.851.851 0 11-1.703 0 .851.851 0 011.703 0zm-2.839 4.257a2.27 2.27 0 11-4.541 0 2.27 2.27 0 014.541 0zm1.136 0a3.406 3.406 0 11-6.812 0 3.406 3.406 0 016.812 0z" fill="#FFF06A"/></svg><svg fill="none" viewBox="0 0 33 9" id="left-arrow" xmlns="http://www.w3.org/2000/svg"><path d="M.646 4.74a.5.5 0 010-.707L3.828.851a.5.5 0 11.708.707L1.707 4.387l2.829 2.828a.5.5 0 11-.708.707L.646 4.74zM33 4.887H1v-1h32v1z" fill="#612B1C"/></svg><svg fill="none" viewBox="0 0 33 9" id="right-arrow" xmlns="http://www.w3.org/2000/svg"><path d="M32.854 4.74a.5.5 0 000-.707L29.672.851a.5.5 0 10-.707.707l2.828 2.829-2.828 2.828a.5.5 0 00.707.707l3.182-3.182zM.5 4.887h32v-1H.5v1z" fill="#612B1C"/></svg><svg fill="none" viewBox="0 0 26 26" id="tg" xmlns="http://www.w3.org/2000/svg"><path fill-rule="evenodd" clip-rule="evenodd" d="M12.85 25.7c7.097 0 12.85-5.753 12.85-12.85C25.7 5.753 19.947 0 12.85 0 5.753 0 0 5.753 0 12.85 0 19.947 5.753 25.7 12.85 25.7zm3.923-7.203l2.04-9.63-.006-.005c.209-.842-.317-1.22-.865-.977l-12.006 4.63c-.82.334-.814.791-.147.99l3.078.96L9.94 17.96c.029.082.048.153.065.214.063.228.089.323.41.323.304 0 .446-.142.611-.308l.01-.009 1.502-1.451 3.106 2.299c.576.316.988.152 1.13-.531z" fill="#612B1C"/></svg><svg fill="none" viewBox="0 0 27 26" id="tt" xmlns="http://www.w3.org/2000/svg"><g clip-path="url(#jclip0_1_649)"><circle cx="13.55" cy="12.85" r="12.85" fill="#612B1C"/><path fill-rule="evenodd" clip-rule="evenodd" d="M16.45 10.197a5.768 5.768 0 003.365 1.076V8.86c-.237 0-.474-.025-.707-.074v1.899a5.769 5.769 0 01-3.364-1.076v4.924a4.461 4.461 0 01-6.947 3.706 4.461 4.461 0 007.653-3.118v-4.924zm.872-2.435a3.362 3.362 0 01-.871-1.969v-.31h-.67c.169.96.743 1.781 1.541 2.279zm-6.966 8.587a2.04 2.04 0 012.244-3.18v-2.467a4.509 4.509 0 00-.706-.04v1.92a2.044 2.044 0 00-2.66 1.944 2.04 2.04 0 001.122 1.823z" fill="#612B1C"/><path fill-rule="evenodd" clip-rule="evenodd" d="M15.744 9.609a5.769 5.769 0 003.365 1.076v-1.9a3.377 3.377 0 01-1.787-1.023 3.379 3.379 0 01-1.54-2.28h-1.76v9.639a2.041 2.041 0 01-3.666 1.228 2.04 2.04 0 011.538-3.767v-1.92a4.461 4.461 0 00-3.097 7.577 4.461 4.461 0 006.947-3.706V9.61z" fill="#FFF06A"/><path fill-rule="evenodd" clip-rule="evenodd" d="M19.109 8.786v-.514a3.365 3.365 0 01-1.787-.51 3.375 3.375 0 001.787 1.024zM15.78 5.483a3.443 3.443 0 01-.037-.277v-.31h-2.428v9.637a2.04 2.04 0 01-2.96 1.816 2.041 2.041 0 003.666-1.228V5.483h1.76zm-3.887 5.179v-.547a4.461 4.461 0 00-3.097 8.124 4.461 4.461 0 013.097-7.578z" fill="#612B1C"/></g><defs><clipPath id="jclip0_1_649"><path fill="#fff" transform="translate(.7)" d="M0 0h25.7v25.7H0z"/></clipPath></defs></svg><svg fill="none" viewBox="0 0 25 24" id="upload" xmlns="http://www.w3.org/2000/svg"><path d="M21.5 15v4a2 2 0 01-2 2h-14a2 2 0 01-2-2v-4M7.5 10l5 5 5-5M12.5 15V3" stroke="#fff" stroke-linecap="round" stroke-linejoin="round"/></svg><svg fill="none" viewBox="0 0 27 26" id="vk" xmlns="http://www.w3.org/2000/svg"><rect x=".663" width="25.735" height="25.735" rx="12.867" fill="#612B1C"/><path d="M13.288 17.952h1.018s.306-.034.463-.207c.149-.162.149-.461.149-.461s-.022-1.41.615-1.617c.628-.205 1.425 1.36 2.275 1.963.648.46 1.136.361 1.136.361l2.275-.032s1.191-.077.628-1.043c-.043-.077-.32-.713-1.68-2.019-1.424-1.361-1.233-1.142.48-3.502 1.04-1.437 1.466-2.315 1.328-2.688-.118-.352-.893-.264-.893-.264l-2.551.022s-.191-.022-.33.066c-.138.087-.222.286-.222.286s-.405 1.118-.946 2.063c-1.15 1.996-1.607 2.106-1.788 1.974-.427-.286-.317-1.156-.317-1.779 0-1.932.286-2.743-.554-2.951-.276-.067-.482-.11-1.193-.122-.914-.01-1.685.008-2.122.228-.287.148-.51.477-.382.493.17.022.552.107.754.393.266.37.254 1.197.254 1.197s.15 2.28-.35 2.562c-.35.192-.818-.205-1.838-2.016a16.644 16.644 0 01-.914-1.953s-.074-.187-.212-.297a1.099 1.099 0 00-.394-.164l-2.434.022s-.36.011-.488.175c-.117.143-.011.45-.011.45s1.903 4.599 4.06 6.915c1.977 2.122 4.22 1.986 4.22 1.986l-.036-.04z" fill="#FFF06A"/></svg><svg fill="none" viewBox="0 0 27 26" id="yadz" xmlns="http://www.w3.org/2000/svg"><path fill-rule="evenodd" clip-rule="evenodd" d="M13.25 25.7c7.097 0 12.85-5.753 12.85-12.85C26.1 5.753 20.347 0 13.25 0 6.153 0 .4 5.753.4 12.85c0 7.097 5.753 12.85 12.85 12.85zM4.793 11.082c.01-4.953.886-6.222 4.546-6.587a36.901 36.901 0 012.44-.14l1.281-.024v1.146c0 3.063-.646 5.083-1.942 6.072-.825.63-2.29.982-4.715 1.136l-1.613.102.003-1.705zm11.76 1.112c-2.19-.727-3.162-2.832-3.162-6.848V4.283l2.205.115c3.45.179 4.582.589 5.308 1.924.507.93.75 2.463.754 4.75.003 1.507-.029 1.695-.286 1.693-1.235-.012-4.19-.362-4.82-.57zM5.546 19.378c-.506-.93-.75-2.463-.754-4.75-.003-1.507.03-1.695.287-1.693 1.234.012 4.19.362 4.82.57 2.175.723 3.16 2.825 3.16 6.742v1.17l-2.205-.115c-3.45-.179-4.581-.589-5.308-1.924zm8.608-3.754c.776-1.616 2.092-2.3 4.86-2.527a64.463 64.463 0 012.05-.14l.645-.024-.097 2.44c-.105 2.624-.244 3.332-.821 4.18-.83 1.218-1.899 1.578-5.196 1.75l-2.205.114v-1.17c0-1.816.307-3.673.764-4.623z" fill="#612B1C"/></svg><svg fill="none" viewBox="0 0 26 26" id="youtube" xmlns="http://www.w3.org/2000/svg"><rect width="25.735" height="25.735" rx="12.867" fill="#612B1C"/><path d="M21.391 8.64c-.1-.352-.29-.673-.552-.93a2.165 2.165 0 00-.945-.544c-1.342-.354-6.74-.354-6.74-.354s-5.385-.007-6.74.354a2.165 2.165 0 00-.946.543 2.114 2.114 0 00-.552.93 21.698 21.698 0 00-.374 4.096 21.7 21.7 0 00.374 4.081c.1.352.29.672.552.93.263.258.588.445.946.543 1.34.355 6.74.355 6.74.355s5.384 0 6.74-.355c.357-.098.683-.285.945-.543.262-.258.453-.578.552-.93a21.7 21.7 0 00.359-4.08c.01-1.374-.11-2.745-.359-4.097zm-9.96 6.63v-5.076l4.493 2.541-4.493 2.534z" fill="#FFF06A"/></svg><svg fill="none" viewBox="0 0 41 28" id="youtube2" xmlns="http://www.w3.org/2000/svg"><path d="M40.144 4.324a4.997 4.997 0 00-1.316-2.201A5.166 5.166 0 0036.576.837C33.38 0 20.518 0 20.518 0S7.69-.017 4.461.837a5.167 5.167 0 00-2.253 1.286 4.997 4.997 0 00-1.316 2.2A51.023 51.023 0 000 14.018c-.01 3.24.289 6.473.892 9.658.238.832.691 1.59 1.316 2.2.626.612 1.401 1.055 2.253 1.287C7.653 28 20.518 28 20.518 28s12.828 0 16.058-.838a5.165 5.165 0 002.252-1.286 4.997 4.997 0 001.316-2.201c.59-3.186.877-6.42.855-9.658a51.018 51.018 0 00-.855-9.693zm-23.73 15.69V8.002l10.704 6.015-10.705 5.997z" fill="#fff"/></svg></svg>