<?xml version="1.0" standalone="no"?>
<!DOCTYPE svg PUBLIC "-//W3C//DTD SVG 20010904//EN"
 "http://www.w3.org/TR/2001/REC-SVG-20010904/DTD/svg10.dtd">
<svg version="1.0" xmlns="http://www.w3.org/2000/svg"
 width="512.000000pt" height="512.000000pt" viewBox="0 0 512.000000 512.000000"
 preserveAspectRatio="xMidYMid meet">

<g transform="translate(0.000000,512.000000) scale(0.100000,-0.100000)"
fill="red" stroke="none">
<path d="M2415 5114 c-491 -38 -898 -176 -1284 -435 -940 -629 -1353 -1823
-1005 -2900 182 -563 546 -1040 1039 -1362 642 -418 1448 -526 2176 -291 901
291 1567 1050 1733 1974 76 427 50 841 -80 1241 -309 956 -1133 1635 -2134
1759 -94 11 -367 20 -445 14z m451 -1774 c268 -34 407 -128 445 -302 14 -65
15 -48 -57 -608 -24 -190 -51 -369 -60 -399 -20 -70 -85 -140 -162 -174 -130
-59 -333 -81 -679 -75 -212 4 -259 8 -326 26 -220 60 -335 183 -345 367 -11
215 88 384 280 475 129 61 321 103 670 146 l147 18 6 48 c13 90 -30 155 -118
179 -101 28 -311 8 -547 -50 -63 -16 -118 -26 -123 -22 -4 4 -16 61 -27 127
-20 118 -20 119 0 135 34 29 285 89 445 107 112 13 355 14 451 2z m-1209 -16
c2 -6 -141 -175 -317 -375 -189 -215 -319 -370 -317 -379 2 -8 100 -172 217
-364 118 -193 214 -359 214 -370 1 -21 -4 -21 -226 -24 -223 -2 -227 -2 -252
20 -15 13 -128 190 -251 393 -168 275 -225 377 -223 396 3 31 563 670 613 701
27 17 52 18 284 16 178 -2 255 -6 258 -14z m2482 -1 c25 -22 481 -768 481
-788 0 -8 -53 -75 -117 -148 -422 -479 -488 -550 -520 -563 -43 -19 -528 -16
-528 2 0 7 146 177 323 378 l324 367 -50 82 c-27 45 -128 212 -225 371 -136
223 -174 292 -166 303 9 10 61 13 234 13 198 0 225 -2 244 -17z"/>
<path d="M2561 2514 c-177 -28 -234 -48 -287 -99 -49 -47 -69 -106 -60 -178
15 -133 114 -187 316 -173 52 3 108 10 125 14 l30 8 27 210 c15 115 29 217 32
227 5 21 2 21 -183 -9z"/>
</g>
</svg>
