<?xml version="1.0" standalone="no"?>
<!DOCTYPE svg PUBLIC "-//W3C//DTD SVG 20010904//EN"
 "http://www.w3.org/TR/2001/REC-SVG-20010904/DTD/svg10.dtd">
<svg version="1.0" xmlns="http://www.w3.org/2000/svg"
 width="1000.000000pt" height="1005.000000pt" viewBox="0 0 1000.000000 1005.000000"
 preserveAspectRatio="xMidYMid meet">

<g transform="translate(0.000000,1005.000000) scale(0.100000,-0.100000)"
fill="blue" stroke="none">
<path d="M0 5025 l0 -5025 5000 0 5000 0 0 5025 0 5025 -5000 0 -5000 0 0
-5025z m2514 844 c65 -21 169 -64 231 -95 136 -68 310 -184 309 -206 -1 -11
-924 -1160 -1014 -1261 -3 -4 -28 2 -54 13 -34 16 -46 26 -42 38 2 9 84 348
181 752 97 404 181 752 186 773 10 38 11 39 47 32 20 -3 91 -24 156 -46z
m3170 -359 c110 -28 190 -73 272 -155 78 -77 130 -170 161 -285 24 -89 23
-281 -1 -370 -59 -218 -228 -385 -437 -435 -83 -19 -257 -19 -334 0 -169 43
-316 159 -387 305 -67 137 -67 132 21 248 42 56 79 101 84 101 4 1 7 -30 7
-67 0 -267 180 -452 438 -452 184 0 330 87 398 235 53 116 65 289 30 422 -57
213 -226 333 -452 321 -52 -2 -71 0 -66 8 4 6 30 41 57 78 47 62 52 66 91 66
22 0 76 -9 118 -20z m912 12 c13 -8 479 -799 504 -855 l18 -39 25 54 c14 29
128 231 254 448 l229 395 97 3 97 3 0 -641 -1 -640 -84 0 -85 0 -2 498 -3 499
-230 -399 c-126 -220 -237 -404 -246 -409 -32 -17 -87 -10 -112 14 -13 12
-122 191 -242 397 -120 206 -223 382 -229 391 -8 12 -10 -119 -8 -487 l3 -504
-86 0 -85 0 0 640 0 640 88 0 c48 0 92 -4 98 -8z m2334 -62 l0 -70 -325 0
-325 0 0 -210 0 -210 255 0 255 0 0 -70 0 -70 -255 0 -255 0 0 -220 0 -220
194 0 c107 0 197 -3 199 -7 3 -5 -2 -36 -11 -70 l-17 -63 -277 0 -278 0 0 640
0 640 420 0 420 0 0 -70z m-4372 35 c71 -23 208 -104 227 -135 9 -15 -52 -108
-76 -115 -13 -4 -39 7 -79 33 -90 61 -147 77 -265 76 -115 0 -182 -21 -258
-79 -58 -44 -121 -139 -148 -224 -33 -101 -38 -291 -10 -400 65 -260 264 -389
526 -340 33 6 77 20 98 31 21 10 41 18 43 16 3 -4 -106 -158 -141 -200 -12
-15 -32 -18 -109 -18 -122 0 -182 13 -281 60 -117 56 -215 159 -271 287 -68
152 -86 375 -45 547 56 233 213 406 426 467 97 28 264 25 363 -6z m-2751 -209
l84 -218 -31 -135 c-18 -74 -34 -133 -36 -131 -3 4 -161 432 -182 493 l-10 30
-7 -30 c-5 -16 -55 -156 -112 -309 -56 -154 -103 -283 -103 -288 0 -4 88 -8
195 -8 l195 0 -6 -27 c-3 -16 -10 -45 -15 -65 l-10 -38 -207 0 -208 0 -33 -92
c-79 -219 -91 -245 -117 -257 -14 -6 -54 -11 -90 -11 -52 0 -65 3 -62 14 2 8
113 303 248 655 l245 641 89 -2 89 -3 84 -219z m1531 153 c126 -72 232 -224
267 -384 26 -115 17 -293 -19 -400 -66 -197 -222 -339 -427 -389 -52 -13 -123
-16 -362 -16 l-297 0 0 141 0 141 88 106 87 107 3 -179 2 -178 208 4 c178 4
215 8 264 26 147 54 237 164 272 335 51 244 -31 477 -203 575 l-50 28 46 57
c26 31 51 57 57 57 6 0 35 -14 64 -31z"/>
</g>
</svg>
