<?xml version="1.0" standalone="no"?>
<!DOCTYPE svg PUBLIC "-//W3C//DTD SVG 20010904//EN"
 "http://www.w3.org/TR/2001/REC-SVG-20010904/DTD/svg10.dtd">
<svg version="1.0" xmlns="http://www.w3.org/2000/svg"
 width="204.000000pt" height="217.000000pt" viewBox="0 0 204.000000 217.000000"
 preserveAspectRatio="xMidYMid meet">

<g transform="translate(0.000000,217.000000) scale(0.100000,-0.100000)"
fill="#000000" stroke="none">
<path d="M896 2150 c-222 -35 -385 -118 -542 -274 -179 -180 -274 -412 -274
-670 0 -142 55 -367 91 -373 34 -7 41 12 21 63 -56 142 -72 361 -38 517 64
291 286 545 565 647 207 76 449 66 657 -26 177 -78 339 -235 431 -419 99 -196
116 -466 44 -683 l-28 -83 28 -14 27 -14 26 70 c75 201 73 458 -4 657 -86 223
-278 429 -489 524 -147 67 -370 101 -515 78z"/>
<path d="M712 1786 c-161 -80 -292 -148 -292 -151 0 -3 260 -4 578 -3 l577 3
-560 5 -560 5 278 137 278 138 60 -31 c34 -16 100 -47 147 -69 48 -21 154 -70
235 -110 82 -39 152 -70 157 -68 8 2 -531 260 -592 283 -8 3 -146 -60 -306
-139z"/>
<path d="M460 1565 l0 -35 58 0 c56 0 57 -1 35 -18 -44 -34 -53 -78 -53 -270
0 -166 -2 -181 -21 -206 -11 -14 -29 -26 -40 -26 -16 0 -19 -7 -19 -45 l0 -45
160 0 160 0 0 39 c0 30 -5 42 -25 55 l-25 17 2 242 c3 240 3 242 26 252 16 7
22 18 22 42 l0 33 -140 0 -140 0 0 -35z m180 -85 c19 -19 20 -33 20 -223 0
-167 -3 -206 -16 -225 -21 -30 -58 -28 -83 4 -20 25 -21 40 -21 219 0 179 1
194 21 219 24 31 52 33 79 6z"/>
<path d="M780 1565 c0 -24 5 -35 14 -35 8 0 22 -10 30 -22 13 -19 16 -59 16
-240 0 -205 -1 -219 -20 -238 -11 -11 -27 -20 -35 -20 -11 0 -15 -12 -15 -45
l0 -45 80 0 80 0 0 45 c0 33 -4 45 -15 45 -8 0 -22 11 -31 26 -15 22 -16 48
-10 240 4 118 9 221 13 229 7 20 52 31 72 18 9 -6 21 -28 28 -49 11 -37 11
-36 12 44 l1 82 -110 0 -110 0 0 -35z"/>
<path d="M1051 1518 c1 -61 3 -74 8 -48 9 46 18 60 40 60 38 0 41 -16 41 -256
0 -198 -2 -235 -16 -248 -8 -9 -22 -16 -30 -16 -10 0 -14 -13 -14 -45 l0 -45
80 0 80 0 0 45 c0 33 -4 45 -14 45 -8 0 -22 10 -30 22 -13 19 -16 59 -16 241
0 131 4 226 10 238 15 27 58 25 70 -3 7 -18 9 -10 9 35 l1 57 -110 0 -110 0 1
-82z"/>
<path d="M1320 1567 c0 -26 6 -36 25 -45 25 -12 25 -12 25 -147 0 -75 4 -144
10 -154 14 -27 64 -45 88 -32 11 6 22 7 26 4 13 -13 5 -75 -14 -112 -29 -58
-64 -81 -121 -81 l-49 0 0 -40 0 -40 125 0 125 0 0 40 0 40 -40 0 c-22 0 -40
3 -40 6 0 3 10 20 23 37 21 30 22 44 27 250 5 225 7 236 48 237 9 0 12 11 10
33 -3 32 -4 32 -60 35 l-58 3 0 -34 c0 -19 7 -40 15 -47 12 -10 15 -38 15
-135 0 -106 -3 -126 -19 -146 -16 -20 -23 -22 -47 -14 l-29 10 -3 129 c-2 102
1 133 13 152 8 13 15 37 15 54 0 30 0 30 -55 30 l-55 0 0 -33z"/>
<path d="M1137 826 c-31 -7 -71 -22 -87 -35 l-31 -22 -27 20 c-43 31 -108 42
-215 39 l-99 -3 -59 -139 c-33 -77 -56 -142 -52 -146 8 -6 437 -160 448 -160
12 0 450 154 459 161 4 4 3 15 -3 26 -11 17 -12 17 -6 -2 5 -19 -2 -22 -78
-33 -120 -17 -193 -38 -273 -77 -40 -19 -75 -35 -78 -35 -3 0 -6 76 -6 168 0
185 1 187 65 212 43 17 173 31 222 24 34 -5 44 -11 54 -35 6 -16 13 -28 15
-26 3 2 -3 20 -11 40 l-15 37 -83 -1 c-45 0 -108 -6 -140 -13z m-182 -32 l40
-19 3 -177 c1 -98 0 -178 -3 -178 -4 0 -25 11 -48 24 -58 34 -146 61 -266 82
-55 9 -101 20 -101 24 0 8 89 229 102 254 9 17 20 18 122 14 83 -3 121 -9 151
-24z"/>
<path d="M216 811 c-4 -6 -4 -16 0 -22 3 -6 1 -15 -7 -19 -20 -13 9 -63 33
-57 22 6 56 -42 38 -53 -18 -11 25 -71 46 -63 21 8 57 -26 44 -42 -14 -17 31
-58 54 -49 20 8 57 -22 50 -41 -7 -17 38 -47 59 -39 22 8 57 -13 57 -35 0 -23
50 -48 61 -29 10 16 65 -3 61 -22 -6 -26 62 -44 70 -19 6 19 69 0 66 -19 -4
-23 62 -30 73 -9 11 18 59 10 59 -9 0 -10 13 -14 40 -14 29 0 40 4 40 15 0 10
10 15 30 15 17 0 30 -4 30 -10 0 -5 15 -10 34 -10 24 0 35 5 39 19 5 21 54 34
65 16 10 -17 73 1 66 18 -7 19 44 41 61 27 16 -14 68 8 61 26 -7 18 43 49 57
35 14 -14 68 25 61 43 -7 17 33 46 53 39 19 -8 54 27 48 47 -7 21 27 52 47 45
21 -8 62 47 47 62 -16 16 11 55 34 49 22 -5 56 52 38 64 -7 3 -9 14 -5 23 4
11 1 17 -9 17 -8 0 -37 -35 -65 -77 -132 -203 -347 -348 -577 -388 -222 -38
-435 0 -612 111 -133 84 -228 179 -303 302 -21 36 -41 59 -44 53z"/>
<path d="M1390 745 c0 -5 5 -17 10 -25 5 -8 10 -10 10 -5 0 6 -5 17 -10 25 -5
8 -10 11 -10 5z"/>
<path d="M1410 695 c0 -5 5 -17 10 -25 5 -8 10 -10 10 -5 0 6 -5 17 -10 25 -5
8 -10 11 -10 5z"/>
<path d="M1431 645 c0 -5 6 -21 14 -35 8 -14 14 -20 14 -15 0 6 -6 21 -14 35
-8 14 -14 21 -14 15z"/>
</g>
</svg>
