<svg width="26" height="26" viewBox="0 0 26 26" fill="none" xmlns="http://www.w3.org/2000/svg">
<g clip-path="url(#clip0_4_303)">
<rect x="0.973083" y="0.929871" width="24.202" height="24.202" fill="#E1E7FE"/>
<path d="M11.1486 19.3336C10.0993 19.3417 9.15931 18.686 8.80467 17.6984C8.45002 16.7108 8.75812 15.6069 9.57295 14.9457C8.995 14.4779 8.65921 13.7741 8.65921 13.0306C8.65921 12.2871 8.995 11.5833 9.57295 11.1156C8.75786 10.4546 8.44957 9.3506 8.80429 8.36294C9.159 7.37527 10.0992 6.71969 11.1486 6.72823H14.9995C16.0489 6.71969 16.9891 7.37527 17.3438 8.36294C17.6985 9.3506 17.3902 10.4546 16.5751 11.1156C17.39 11.7768 17.6981 12.8807 17.3434 13.8683C16.9888 14.8559 16.0488 15.5116 14.9995 15.5034C14.5148 15.504 14.0405 15.3629 13.635 15.0975V16.8623C13.6291 18.2306 12.5169 19.336 11.1486 19.3336ZM11.1347 15.5041C10.3882 15.5159 9.79146 16.1285 9.79929 16.8751C9.80712 17.6217 10.4166 18.2217 11.1632 18.2178C11.9098 18.2139 12.513 17.6076 12.5131 16.861V15.5041H11.1341H11.1347ZM15.0001 11.674C14.2516 11.6778 13.6476 12.287 13.6501 13.0355C13.6527 13.784 14.2608 14.3891 15.0094 14.3879C15.7579 14.3866 16.364 13.7794 16.364 13.0309C16.3612 12.2797 15.7507 11.6726 14.9995 11.674H15.0001ZM11.1492 11.674C10.6644 11.6714 10.2151 11.9276 9.97045 12.3462C9.72582 12.7647 9.72305 13.282 9.96321 13.7031C10.2034 14.1243 10.6499 14.3853 11.1347 14.3879H12.5131V11.674H11.1492ZM13.635 7.84388V10.5584H14.9989C15.7284 10.5618 16.3303 9.98829 16.3621 9.25944V9.53361V9.20083C16.359 8.45049 15.7498 7.84388 14.9995 7.84388H13.635ZM11.148 7.84388C10.6632 7.84388 10.2152 8.10251 9.97282 8.52235C9.73042 8.9422 9.73042 9.45946 9.97282 9.8793C10.2152 10.2991 10.6632 10.5578 11.148 10.5578H12.5131V7.84388H11.148Z" fill="#516CF7"/>
</g>
<defs>
<clipPath id="clip0_4_303">
<rect x="0.973083" y="0.929871" width="24.202" height="24.202" rx="12.101" fill="white"/>
</clipPath>
</defs>
</svg>
