<svg width="13" height="13" viewBox="0 0 13 13" fill="none" xmlns="http://www.w3.org/2000/svg">
<path d="M6.19188 11.2363C5.55503 10.693 4.96473 10.0975 4.42715 9.45591C3.62041 8.49236 2.66241 7.05738 2.66241 5.68997C2.6617 4.26182 3.52171 2.974 4.84114 2.42744C6.16056 1.88088 7.67933 2.18332 8.68872 3.19363C9.35249 3.85445 9.72432 4.75335 9.72136 5.68997C9.72136 7.05738 8.76334 8.49236 7.95661 9.45591C7.41903 10.0975 6.82873 10.693 6.19188 11.2363ZM6.19188 4.17734C5.65147 4.17734 5.15211 4.46565 4.8819 4.93366C4.6117 5.40167 4.6117 5.97828 4.8819 6.44628C5.15211 6.91429 5.65147 7.2026 6.19188 7.2026C7.02728 7.2026 7.7045 6.52537 7.7045 5.68997C7.7045 4.85457 7.02728 4.17734 6.19188 4.17734Z" fill="#79819A"/>
</svg>
