<?xml version="1.0" encoding="utf-8"?>
<!-- Generator: Adobe Illustrator 23.0.3, SVG Export Plug-In . SVG Version: 6.00 Build 0)  -->
<svg version="1.1" id="Слой_1" xmlns="http://www.w3.org/2000/svg" xmlns:xlink="http://www.w3.org/1999/xlink" x="0px" y="0px"
	 viewBox="0 0 786.69 174.45" style="enable-background:new 0 0 786.69 174.45;" xml:space="preserve">
<style type="text/css">
	.st0{fill-rule:evenodd;clip-rule:evenodd;}
  
</style>
<path class="st0" d="M786.69,168.99h-21.42l-36.54-43.55l-36.35,43.55h-21.28l46.97-56.26l-44.54-53.07h21.42l33.79,40.28
	l33.63-40.28h21.28l-44.23,52.99L786.69,168.99L786.69,168.99L786.69,168.99z M463.39,171.72c-33.63,0-43.73-8.2-43.73-8.2V5h16.4
	v57.63c6.07-3,14.81-5.7,27.33-5.7c33.21,0,60.13,24.18,60.13,57.4C523.52,147.54,496.6,171.72,463.39,171.72L463.39,171.72
	L463.39,171.72z M463.39,73.33c-11.38,0-20.72,4.36-27.33,8.86v67.67c0,0,8.8,5.47,27.33,5.47c24.15,0,43.73-16.85,43.73-41
	C507.12,90.17,487.54,73.33,463.39,73.33L463.39,73.33L463.39,73.33z M364.99,5h16.4v163.99h-16.4V5L364.99,5L364.99,5z M326.73,5
	v163.99h-16.4V5H326.73L326.73,5z M263.53,29.6c-7.55,0-13.67-6.12-13.67-13.67c0-7.54,6.11-13.67,13.67-13.67
	c7.54,0,13.67,6.12,13.67,13.67C277.19,23.47,271.07,29.6,263.53,29.6L263.53,29.6L263.53,29.6z M209.2,168.99l-57.4-57.4
	l51.93-51.93h23.19l-51.93,51.93l57.4,57.4H209.2L209.2,168.99L209.2,168.99z M135.4,168.99V5h16.4v106.6v57.4H135.4L135.4,168.99
	L135.4,168.99z M109.43,124.38c0,27.4-21.83,47.28-56.5,47.28c-22.43,0-39.89-11.09-52.93-23.77l11.6-12.81
	c10.85,10.33,23.61,20.38,41.1,20.38c19.43,0,40.37-10.89,40.37-30.46c0-16.24-12.92-26.83-40.05-35.19
	C22.11,80.35,6.41,67.53,6.41,43.44C6.41,19.58,26.6,0,55.36,0c21.48,0,34.94,9.16,48.02,20.87L91.99,33.52
	C80.51,23.35,69.58,16.46,56.16,16.46c-16.64,0-33.03,10.72-33.03,26.17c0,14.01,8.04,22.91,36.42,31.61
	C85.55,82.26,109.43,94.67,109.43,124.38L109.43,124.38L109.43,124.38z M272.06,168.99h-16.4V59.66h16.4V168.99L272.06,168.99z
	 M602.78,174.45c-33.21,0-60.13-26.92-60.13-60.13c0-33.21,26.92-60.13,60.13-60.13c33.21,0,60.13,26.92,60.13,60.13
	C662.91,147.54,636,174.45,602.78,174.45L602.78,174.45z M602.78,70.59c-24.15,0-43.73,19.58-43.73,43.73
	c0,24.15,19.58,43.73,43.73,43.73c24.15,0,43.73-19.58,43.73-43.73C646.51,90.17,626.93,70.59,602.78,70.59L602.78,70.59z"/>
</svg>
